<svg width="54" height="45" viewBox="0 0 54 45" fill="none" xmlns="http://www.w3.org/2000/svg">
<g id="Group 17668" filter="url(#filter0_d_133_493)">
<g id="Group 17664">
<path id="Vector 79" d="M10.7181 4.10169C15.7302 0.518245 19.2701 10.6347 18.0572 14.5674C17.3909 15.6414 15.7856 17.9771 14.6948 18.7282C13.3314 19.6671 6.36628 19.0269 4.02749 16.6834C1.6887 14.3399 5.706 7.68514 10.7181 4.10169Z" fill="#F48C6B"/>
<path id="Ellipse 166" d="M15.4953 16.0311C14.4779 17.1628 9.74887 16.4866 8.53015 15.3909C7.31143 14.2952 8.33926 12.1617 9.35668 11.03C10.3741 9.89837 12.6786 9.1645 13.8973 10.2602C15.116 11.3559 16.5127 14.8995 15.4953 16.0311Z" fill="white"/>
</g>
<g id="Group 17665">
<path id="Vector 79_2" d="M50.2149 7.4306C54.1855 12.1419 44.3825 16.475 40.3659 15.5787C39.2423 14.9999 36.7864 13.5853 35.9509 12.5578C34.9065 11.2734 34.9909 4.27935 37.141 1.76163C39.2911 -0.756101 46.2442 2.71932 50.2149 7.4306Z" fill="#F48C6B"/>
<path id="Ellipse 166_2" d="M38.703 13.1414C37.494 12.2172 37.792 7.44938 38.7873 6.14739C39.7826 4.84541 41.9911 5.70034 43.2001 6.62455C44.4091 7.54877 45.3239 9.78757 44.3286 11.0896C43.3332 12.3915 39.9119 14.0656 38.703 13.1414Z" fill="white"/>
</g>
<g id="Group 17667">
<path id="Ellipse 165" d="M48.1468 25.2451C48.1468 33.3223 38.9259 39.8701 28.8588 39.8701C18.7916 39.8701 10.6305 33.3223 10.6305 25.2451C10.6305 17.168 14.2338 10.6201 28.8588 10.6201C42.424 10.6201 48.1468 17.168 48.1468 25.2451Z" fill="#F48C6B"/>
<g id="Group 17666">
<path id="Vector 80" d="M20.1577 25.4571C21.0055 23.3375 23.9838 20.7941 29.4838 20.7941C42.6359 20.7941 39.2446 32.8756 37.337 34.7832C35.4294 36.6908 29.4838 38.3865 23.337 35.4191C17.1903 32.4517 19.3098 27.5767 20.1577 25.4571Z" fill="white"/>
<circle id="Ellipse 4" cx="22.4998" cy="19.9463" r="0.847826" fill="black"/>
<circle id="Ellipse 166_3" cx="36.9129" cy="19.0984" r="0.847826" fill="black"/>
<path id="Vector 81" d="M25.4673 33.5115C28.8586 34.5713 31.826 35.2072 35.0053 32.6637" stroke="black" stroke-width="2" stroke-linecap="round"/>
<path id="Ellipse 167" d="M32.0378 21.2181C32.0378 21.9204 30.9718 22.9137 29.9183 22.9137C28.8647 22.9137 27.7987 21.9204 27.7987 21.2181C27.7987 20.5157 28.8647 20.3702 29.9183 20.3702C30.9718 20.3702 32.0378 20.5157 32.0378 21.2181Z" fill="black"/>
</g>
</g>
</g>
<defs>
<filter id="filter0_d_133_493" x="0.814858" y="0.917603" width="52.8576" height="44.0108" filterUnits="userSpaceOnUse" color-interpolation-filters="sRGB">
<feFlood flood-opacity="0" result="BackgroundImageFix"/>
<feColorMatrix in="SourceAlpha" type="matrix" values="0 0 0 0 0 0 0 0 0 0 0 0 0 0 0 0 0 0 127 0" result="hardAlpha"/>
<feOffset dy="2.52914"/>
<feGaussianBlur stdDeviation="1.26457"/>
<feComposite in2="hardAlpha" operator="out"/>
<feColorMatrix type="matrix" values="0 0 0 0 0.407595 0 0 0 0 0.708511 0 0 0 0 0.269675 0 0 0 1 0"/>
<feBlend mode="normal" in2="BackgroundImageFix" result="effect1_dropShadow_133_493"/>
<feBlend mode="normal" in="SourceGraphic" in2="effect1_dropShadow_133_493" result="shape"/>
</filter>
</defs>
</svg>
