<svg width="193" height="52" viewBox="0 0 193 52" fill="none" xmlns="http://www.w3.org/2000/svg">
<g id="Clip path group">
<mask id="mask0_112_161" style="mask-type:luminance" maskUnits="userSpaceOnUse" x="0" y="0" width="193" height="52">
<g id="clip0">
<path id="Vector" d="M192.5 0.370117H0.5V51.3701H192.5V0.370117Z" fill="white"/>
</g>
</mask>
<g mask="url(#mask0_112_161)">
<g id="Group">
<path id="Vector_2" d="M52.6628 11.6862V7.71948H40.8394V31.3759H44.9221V21.5297H52.307V17.5629H44.9221V11.6862H52.6628Z" fill="black"/>
<path id="Vector_3" d="M59.8847 7.71655H55.9316V31.3758H59.8847V7.71655Z" fill="black"/>
<path id="Vector_4" d="M72.2683 13.145C67.0269 13.145 62.9248 17.3332 62.9248 22.684C62.9321 25.1481 63.9133 27.5087 65.6531 29.2477C67.3929 30.9868 69.7491 31.9622 72.2048 31.96C75.7634 31.96 79.3772 29.596 80.5662 26.5317H76.1358C75.2448 27.4812 73.6531 28.0929 72.042 28.0929C70.9525 28.1021 69.8887 27.7601 69.0073 27.1173C68.1258 26.4745 67.4732 25.5648 67.1455 24.522L67.0738 24.2923H81.0876L81.1262 24.0348C81.2199 23.5026 81.2744 22.9641 81.2889 22.4238C81.2889 17.3941 77.1593 13.145 72.2683 13.145ZM67.0103 20.8127L67.082 20.583C67.7248 18.5152 69.8931 17.0149 72.2379 17.0149C73.3491 16.9903 74.4391 17.3227 75.3487 17.9636C76.2584 18.6045 76.9401 19.5203 77.2945 20.5774L77.3717 20.81L67.0103 20.8127Z" fill="black"/>
<path id="Vector_5" d="M93.0213 22.2659L98.4475 13.729H93.8489L90.7096 18.8251L87.4682 13.729H82.9027L88.362 22.2631L82.1055 31.3758H86.9827L90.7068 25.4022L94.431 31.3758H99.3055L93.0213 22.2659Z" fill="black"/>
<path id="Vector_6" d="M105.75 13.729H101.797V31.3758H105.75V13.729Z" fill="black"/>
<path id="Vector_7" d="M105.75 7.71655H101.797V11.293H105.75V7.71655Z" fill="black"/>
<path id="Vector_8" d="M20.6213 0.793577C19.1869 -0.214021 16.6986 0.895998 16.6986 0.895998C16.6986 0.895998 14.2158 -0.211253 12.7786 0.793577C11.3414 1.79841 12.2765 4.14855 12.4503 4.50287C12.6241 4.85719 13.1814 5.88694 13.1814 5.88694C13.0991 7.2256 13.149 8.56915 13.3303 9.89795C13.6338 11.6862 14.5055 12.3118 14.5772 12.3118C14.6489 12.3118 14.8531 12.2703 15.1786 10.4046C15.5041 8.5388 16.2241 6.82533 16.6986 6.45994C17.1813 6.83917 17.8848 8.55541 18.2186 10.4212C18.5524 12.2869 18.751 12.3284 18.8227 12.3284C18.8945 12.3284 19.7662 11.7028 20.0669 9.91456C20.25 8.58592 20.3008 7.24229 20.2186 5.90355C20.2186 5.90355 20.7703 4.86827 20.9469 4.51948C21.1234 4.1707 22.0531 1.80395 20.6213 0.793577Z" fill="#00A2DB"/>
<path id="Vector_9" d="M32.8088 15.376C33.3192 13.6985 31.4985 11.6667 31.4985 11.6667C31.4985 11.6667 31.7744 8.94839 30.3813 7.89374C28.9882 6.83908 27.0461 8.44736 26.7647 8.72418C26.4833 9.00099 25.6778 9.8508 25.6778 9.8508C24.3838 10.1866 23.1262 10.6502 21.9233 11.2349C20.3178 12.0653 19.9923 13.1034 20.0199 13.1726C20.0475 13.2418 20.144 13.419 22.0144 13.1726C23.8847 12.9262 25.7302 13.0536 26.2378 13.3968C26.0282 13.9726 24.6213 15.1767 22.955 16.0736C21.2888 16.9705 21.2999 17.1808 21.333 17.239C21.3661 17.2971 22.2185 17.9448 24.0088 17.6791C25.324 17.4386 26.6122 17.0677 27.8544 16.5719C27.8544 16.5719 29.0075 16.7795 29.3964 16.8487C29.7854 16.9179 32.2957 17.0563 32.8088 15.376Z" fill="#00A2DB"/>
<path id="Vector_10" d="M22.7648 31.4811C24.5165 31.4451 25.8793 29.0756 25.8793 29.0756C25.8793 29.0756 28.5414 28.497 29.1041 26.8334C29.6669 25.1698 27.5372 23.83 27.1731 23.6473C26.809 23.4646 25.769 22.9608 25.769 22.9608C25.0469 21.832 24.2152 20.7778 23.2862 19.8134C21.9897 18.5456 20.9166 18.5595 20.8586 18.601C20.8007 18.6425 20.6683 18.7948 21.4959 20.4972C22.3234 22.1996 22.7648 24.0044 22.5993 24.594C21.9869 24.5746 20.409 23.6085 19.0434 22.2992C17.6779 20.9899 17.4903 21.0729 17.4324 21.1144C17.3745 21.156 17.0517 22.1802 17.8545 23.8023C18.4897 24.9806 19.239 26.0932 20.0917 27.1241C20.0917 27.1241 20.2545 28.2867 20.3207 28.677C20.3869 29.0673 21.0159 31.5143 22.7648 31.4811Z" fill="#00A2DB"/>
<path id="Vector_11" d="M0.591028 15.3761C0.0779242 13.6986 1.90137 11.6668 1.90137 11.6668C1.90137 11.6668 1.61999 8.95135 3.01861 7.89392C4.41723 6.8365 6.35379 8.44755 6.63241 8.72436C6.91103 9.00117 7.72206 9.85099 7.72206 9.85099C9.01606 10.1867 10.2737 10.6503 11.4765 11.235C13.0793 12.0654 13.4076 13.1035 13.38 13.1727C13.3524 13.2419 13.2559 13.4191 11.3855 13.1727C9.51517 12.9263 7.67241 13.0426 7.16206 13.3803C7.37172 13.9561 8.77861 15.1602 10.4448 16.0571C12.111 16.954 12.1 17.1643 12.0669 17.2225C12.0338 17.2806 11.1814 17.9283 9.39103 17.6626C8.07498 17.4219 6.78593 17.051 5.54275 16.5553C5.54275 16.5553 4.39241 16.763 4.00344 16.8322C3.61448 16.9014 1.10413 17.0564 0.591028 15.3761Z" fill="#00A2DB"/>
<path id="Vector_12" d="M10.6323 31.4811C8.88338 31.4451 7.5289 29.0756 7.5289 29.0756C7.5289 29.0756 4.86683 28.497 4.30407 26.8334C3.74131 25.1698 5.87097 23.83 6.23511 23.6473C6.59925 23.4646 7.63924 22.9608 7.63924 22.9608C8.36031 21.8313 9.19202 20.777 10.122 19.8134C11.4186 18.5456 12.4889 18.5595 12.5468 18.601C12.6048 18.6425 12.7399 18.7948 11.9123 20.4972C11.0848 22.1996 10.6406 24.0044 10.8089 24.594C11.4186 24.5746 12.9965 23.6085 14.3648 22.2992C15.733 20.9899 15.9179 21.0729 15.973 21.1144C16.0282 21.156 16.3675 22.1802 15.5592 23.8023C14.9236 24.981 14.1733 26.0937 13.3192 27.1241C13.3192 27.1241 13.1592 28.2867 13.093 28.677C13.0268 29.0673 12.3841 31.5143 10.6323 31.4811Z" fill="#00A2DB"/>
<path id="Vector_13" d="M125.347 20.7351L124.552 20.14C125.759 18.8482 126.862 17.9347 127.863 17.3995C128.863 16.8643 129.711 16.5931 130.406 16.5857C130.722 16.5654 131.034 16.6522 131.295 16.832C131.394 16.9107 131.474 17.0118 131.527 17.1273C131.58 17.2428 131.606 17.3693 131.601 17.4964C131.601 17.8369 131.204 19.3372 130.304 21.8396C128.804 26.0305 127.736 28.4443 127.736 29.2969C127.73 29.444 127.775 29.5886 127.863 29.7066C127.892 29.7547 127.932 29.795 127.98 29.8239C128.028 29.8529 128.083 29.8696 128.139 29.8727C128.525 29.8727 129.516 29.1493 131.112 27.7025L131.819 28.3668C130.164 29.8727 128.955 30.836 128.194 31.2568C127.432 31.6775 126.81 31.8879 126.326 31.8879C126.141 31.8971 125.957 31.8676 125.784 31.8014C125.611 31.7352 125.454 31.6336 125.322 31.5031C125.193 31.3585 125.093 31.1896 125.03 31.0062C124.966 30.8228 124.939 30.6286 124.95 30.4346C124.95 28.9758 126.224 25.6098 128.442 19.7386C128.521 19.5066 128.564 19.2639 128.569 19.0189C128.569 18.7863 128.461 18.6701 128.244 18.6701C127.948 18.6864 127.662 18.782 127.416 18.9469C126.685 19.4927 125.993 20.0903 125.347 20.7351ZM131.675 12.9622C131.944 12.9523 132.206 13.0431 132.412 13.2169C132.506 13.2975 132.581 13.3983 132.631 13.5119C132.681 13.6254 132.705 13.7488 132.701 13.8729C132.7 14.0565 132.66 14.2378 132.584 14.4048C132.508 14.5717 132.398 14.7207 132.26 14.8418C132.129 14.9748 131.973 15.0803 131.801 15.1521C131.629 15.2239 131.445 15.2605 131.259 15.2598C130.994 15.2688 130.737 15.1757 130.539 14.9995C130.443 14.9128 130.368 14.8062 130.318 14.6871C130.268 14.568 130.244 14.4394 130.249 14.3103C130.247 14.1303 130.284 13.9521 130.356 13.7874C130.428 13.6227 130.535 13.4754 130.668 13.3553C130.802 13.2262 130.96 13.1249 131.133 13.0575C131.305 12.99 131.49 12.9576 131.675 12.9622Z" fill="#00A8D6"/>
<path id="Vector_14" d="M146.155 16.5525L147.612 16.2341C146.733 18.9672 145.926 21.7067 145.192 24.4527C144.739 26.0662 144.371 27.7026 144.089 29.3551C143.981 30.0083 143.584 34.1522 143.328 35.2041C142.442 38.847 139.791 39.9847 137.893 39.9847C136.262 39.9847 134.974 39.6156 134.031 38.8774C133.088 38.1393 132.62 37.2904 132.627 36.3308C132.647 35.3366 133.051 34.389 133.752 33.6872C134.304 33.0699 136.803 31.4727 137.441 30.7419C136.541 31.1848 135.843 31.409 135.347 31.409C135.115 31.4043 134.888 31.3474 134.681 31.2425C134.474 31.1375 134.293 30.9873 134.152 30.8028C133.79 30.3512 133.606 29.7819 133.634 29.2028C133.634 27.0548 134.296 24.9214 135.62 22.8029C136.944 20.6844 138.537 19.0945 140.398 18.0334C141.546 17.3801 142.984 17.0535 144.712 17.0535C145.053 17.0535 145.469 17.0646 145.962 17.0867L146.155 16.5525ZM141.987 28.1066C140.437 29.953 137.383 31.7052 135.43 33.8948C134.544 34.8913 134.652 35.5751 134.721 36.2505C134.739 36.5973 134.83 36.9364 134.988 37.2455C135.146 37.5546 135.367 37.8268 135.637 38.0442C136.254 38.5779 137.048 38.862 137.863 38.8414C138.69 38.8414 139.794 38.0802 140.448 37.128C141.046 36.2477 141.226 35.3841 141.419 34.2574C141.593 33.032 141.69 31.7968 141.711 30.5592C141.741 30.1993 142.064 29.2111 141.987 28.1066ZM144.13 19.1434C143.623 19.0454 143.108 18.9926 142.591 18.9857C141.541 18.9568 140.508 19.263 139.642 19.8604C138.82 20.4435 138.119 21.4235 137.54 22.8001C136.733 24.7507 136.329 26.3904 136.329 27.7191C136.314 28.2236 136.484 28.7161 136.806 29.1032C136.934 29.27 137.097 29.4062 137.283 29.5019C137.47 29.5977 137.675 29.6506 137.885 29.6568C138.368 29.6568 138.966 29.4298 139.678 28.9814C140.372 28.5484 140.967 27.973 141.424 27.2928C141.877 26.6155 142.336 25.4483 142.803 23.7911L144.13 19.1434Z" fill="#00A8D6"/>
<path id="Vector_15" d="M148.227 20.7878L147.612 20.1761C149.158 18.744 150.392 17.7936 151.314 17.3249C152.035 16.9129 152.841 16.6723 153.67 16.6218C153.881 16.6096 154.09 16.6649 154.268 16.7796C154.332 16.8178 154.386 16.8716 154.424 16.9359C154.462 17.0002 154.483 17.073 154.486 17.1477C154.473 17.3347 154.443 17.5201 154.395 17.7014L153.568 21.2252C154.944 19.7922 156.506 18.5503 158.21 17.5325C159.2 16.9383 160.015 16.6402 160.655 16.6384C160.859 16.6276 161.063 16.661 161.254 16.7365C161.444 16.8119 161.616 16.9277 161.758 17.0758C162.044 17.4314 162.186 17.8821 162.155 18.338C162.148 18.7508 162.094 19.1614 161.992 19.5615C161.809 20.3237 161.303 21.9753 160.475 24.5165C159.706 26.8971 159.321 28.4786 159.319 29.2611C159.308 29.4476 159.346 29.634 159.43 29.8008C159.459 29.856 159.504 29.9017 159.558 29.933C159.612 29.9643 159.674 29.9799 159.736 29.978C160.086 29.978 160.638 29.6514 161.391 28.9981C161.923 28.533 162.453 28.1012 162.986 27.7026L163.438 28.3337C162.422 29.4414 161.257 30.4028 159.979 31.1904C159.217 31.6555 158.588 31.888 158.092 31.888C157.889 31.8982 157.686 31.8599 157.5 31.7762C157.315 31.6925 157.151 31.5657 157.024 31.4064C156.77 31.0853 156.644 30.563 156.644 29.8396C156.644 28.8025 157.314 26.2189 158.655 22.0888C159.066 20.6125 159.272 19.7544 159.27 19.5145C159.27 19.1546 159.046 18.9609 158.599 18.9609C158.152 18.9609 157.496 19.2072 156.735 19.6972C155.642 20.3802 154.676 21.2484 153.879 22.2632C153.398 22.8944 152.993 23.8992 152.666 25.2777L151.198 31.3981H148.5C149.008 29.6431 149.449 27.9656 149.824 26.3656L151.435 19.7027C151.484 19.5142 151.515 19.3214 151.526 19.1269C151.526 18.8114 151.405 18.6536 151.165 18.6536C150.861 18.6999 150.575 18.8281 150.337 19.0245C149.564 19.523 148.856 20.1153 148.227 20.7878Z" fill="#00A8D6"/>
<path id="Vector_16" d="M174.71 27.0023L175.308 27.7746C172.349 30.4929 169.812 31.852 167.697 31.852C167.328 31.8767 166.957 31.8145 166.616 31.6703C166.274 31.5262 165.971 31.304 165.73 31.0216C165.278 30.468 165.052 29.5702 165.052 28.3282C165.052 25.8221 165.833 23.3308 167.397 20.8543C169.168 18.0437 171.283 16.6384 173.741 16.6384C174.598 16.6384 175.254 16.846 175.708 17.2612C175.938 17.4792 176.118 17.7445 176.235 18.0388C176.353 18.3332 176.406 18.6496 176.39 18.9664C176.366 19.7846 176.075 20.5723 175.562 21.2086C175.01 21.9467 174.038 22.7107 172.643 23.5006C171.943 23.8881 170.445 24.5829 168.15 25.585C168.044 26.1798 167.989 26.7828 167.987 27.387C167.987 28.2175 168.122 28.7933 168.395 29.1199C168.542 29.2875 168.726 29.4189 168.931 29.5038C169.137 29.5888 169.359 29.6251 169.581 29.6098C170.147 29.5939 170.703 29.457 171.212 29.2085C172.441 28.5795 173.612 27.8412 174.71 27.0023ZM168.365 24.4639C170.311 23.6242 171.773 22.72 172.751 21.7511C173.416 21.0757 173.741 20.4031 173.741 19.747C173.765 19.3095 173.619 18.8799 173.333 18.5484C173.201 18.4002 173.039 18.2821 172.858 18.2024C172.676 18.1226 172.48 18.083 172.282 18.0861C171.806 18.1 171.348 18.2745 170.983 18.5816C170.347 19.1032 169.854 19.7786 169.551 20.5442C169.002 21.7948 168.605 23.1071 168.368 24.4528L168.365 24.4639Z" fill="#00A8D6"/>
<path id="Vector_17" d="M181.485 31.3982H178.784L180.053 26.6923C180.669 24.3837 181.206 22.1904 181.664 20.1125C181.742 19.7959 181.797 19.4739 181.827 19.1492C181.827 18.8724 181.695 18.7284 181.43 18.7284C181.128 18.7775 180.844 18.9012 180.602 19.0883C179.878 19.6218 179.197 20.2124 178.566 20.8544L178.015 20.2426C179.014 19.1605 180.179 18.2456 181.466 17.5326C182.619 16.931 183.503 16.6302 184.119 16.6302C184.303 16.6211 184.485 16.6737 184.635 16.7797C184.695 16.8224 184.743 16.879 184.776 16.9445C184.809 17.0101 184.826 17.0827 184.826 17.1561C184.778 17.5667 184.699 17.973 184.588 18.3713L183.799 21.5187C184.948 19.739 186.341 18.1307 187.937 16.7409C188.673 16.1061 189.29 15.7896 189.788 15.7915C189.957 15.787 190.126 15.8162 190.283 15.8775C190.441 15.9388 190.585 16.031 190.707 16.1485C190.82 16.2491 190.91 16.3724 190.972 16.5106C191.034 16.6487 191.066 16.7985 191.066 16.9499C191.066 17.1014 191.034 17.2511 190.972 17.3892C190.91 17.5274 190.82 17.6508 190.707 17.7513C190.47 17.9727 189.881 18.2348 188.941 18.5374C188.164 18.7727 187.428 19.1275 186.759 19.5893C186.065 20.1305 185.443 20.7605 184.911 21.4633C184.35 22.132 183.878 22.8708 183.507 23.6612C183.249 24.2795 182.845 25.7263 182.293 28.0017L181.485 31.3982Z" fill="#00A8D6"/>
<path id="Vector_18" d="M192.172 28.7184C190.807 31.9638 188.88 34.9412 186.481 37.5127C184.224 39.9542 181.146 43.1404 173.808 46.3209C166.911 49.305 159.355 49.8586 150.69 48.1341C140.977 46.1964 135.501 43.2511 125.741 36.7847C122.569 34.681 119.648 33.5377 116.296 33.5405H116.266C116.577 32.3945 117.51 29.1696 118.254 25.7537L119.769 17.5795C120.414 14.5954 120.583 13.4411 121.041 11.8688C121.369 10.7477 121.923 9.83704 122.448 9.46611C122.773 9.2208 123.176 9.10184 123.581 9.13117C124.127 9.13556 124.672 9.18836 125.209 9.28895C125.721 9.40258 126.241 9.46929 126.765 9.48826C127.228 9.52157 127.686 9.37489 128.045 9.07857C128.195 8.94488 128.314 8.77946 128.392 8.59422C128.471 8.40898 128.508 8.20853 128.5 8.00731C128.501 7.8176 128.459 7.6301 128.379 7.45827C128.299 7.28645 128.182 7.13457 128.037 7.01355C127.691 6.72503 127.249 6.57863 126.801 6.60387C125.238 6.61122 123.711 7.07796 122.409 7.94641C120.997 8.86754 119.879 10.1774 119.19 11.7193C118.699 12.7878 118.094 14.8944 117.374 18.039L115.623 26.897C115.121 29.0949 114.555 31.6194 114.048 33.5017C112.831 33.7249 111.633 34.0357 110.461 34.4318C103.885 36.7487 104.117 41.0061 105.907 42.3653C107.609 43.6552 112.803 43.1459 115.813 34.9522C116.194 34.9522 116.583 34.9771 116.991 34.9965C123.568 35.2927 127.659 39.4089 135.501 44.2061C143.695 49.2192 150.657 51.0461 159.3 51.3479C167.943 51.6496 175.237 48.7597 181.06 44.2061C185.093 41.056 187.57 38.1605 189.54 34.5592C190.712 32.4315 191.702 30.2081 192.5 27.9129C192.5 27.9129 192.431 28.1039 192.172 28.7184ZM108.114 40.7653C106.257 40.7653 107.286 38.4428 108.346 37.5432C109.405 36.6436 111.121 35.6858 113.554 35.1681C113.477 35.3951 113.402 35.5972 113.33 35.7633C113.33 35.7633 113.33 35.7633 113.33 35.7799C111.846 39.1598 110.693 40.7653 108.114 40.7653Z" fill="#00A8D6"/>
</g>
</g>
</g>
</svg>
