<svg width="186" height="118" viewBox="0 0 186 118" fill="none" xmlns="http://www.w3.org/2000/svg">
<g id="Group 17937">
<path id="Vector" d="M97.7448 0.870117C128.664 0.870117 151 22.6664 151 54.7108C151 86.7553 128.664 117.87 97.7448 117.87C66.8261 117.87 34 93.4854 34 61.4409C34 29.3965 66.8261 0.870117 97.7448 0.870117Z" fill="white"/>
<g id="Group 18076">
<g id="Group">
<g id="Group_2">
<g id="Group_3">
<g id="Group_4">
<path id="Vector_2" d="M170.819 66.8617C170.819 66.8617 173.364 69.0759 175.603 74.4705C177.842 79.865 178.453 89.9417 177.333 89.3309C176.214 88.7202 169.598 83.5292 165.119 76.3025C160.641 69.0759 156.976 57.0138 170.819 66.8617Z" fill="white"/>
<path id="Vector_3" d="M177.427 90.4619C177.216 90.4619 177.002 90.409 176.805 90.3009C175.479 89.5781 168.698 84.1747 164.181 76.885C163.908 76.4444 157.535 66.0595 160.986 62.8207C162.768 61.1486 166.095 62.1475 171.459 65.9632L171.543 66.0299C171.655 66.1273 174.31 68.4783 176.622 74.0482C177.991 77.345 178.572 81.6709 178.758 83.3777C179.387 89.1347 178.582 89.8587 178.279 90.1312C178.036 90.3496 177.734 90.4619 177.427 90.4619ZM163.154 64.2576C162.716 64.2576 162.541 64.3897 162.497 64.4308C161.492 65.3739 162.828 70.5115 166.057 75.722C169.557 81.3684 174.49 85.8239 176.768 87.5919C176.8 86.6142 176.742 85.073 176.506 83.1209C176.118 79.9029 175.417 76.9045 174.583 74.8947C172.625 70.1775 170.42 68.0018 170.124 67.7235C166.001 64.7977 164.04 64.2576 163.154 64.2576Z" fill="#58595B"/>
</g>
</g>
<g id="Group_5">
<g id="Group_6">
<path id="Vector_4" d="M160.844 62.491C160.844 62.491 168.804 69.909 168.804 76.7189C168.804 83.5288 169.394 91.1625 168.173 91.1625C166.951 91.1625 155.755 83.0199 151.48 78.9485C147.205 74.8772 153.821 54.2779 160.844 62.491Z" fill="white"/>
<path id="Vector_5" d="M168.173 92.2678C167.788 92.2678 166.886 92.2678 160.321 87.4751C157.238 85.2248 153.097 82.0136 150.719 79.7491C148.419 77.5589 148.821 72.4086 149.864 68.6635C150.955 64.7442 153.287 60.2981 156.558 59.5734C157.794 59.2998 159.675 59.4537 161.643 61.7276C162.376 62.4204 169.908 69.7142 169.908 76.7199C169.908 78.4641 169.947 80.2535 169.984 81.984C170.126 88.5306 170.095 90.9042 169.188 91.8311C168.912 92.1127 168.552 92.2678 168.173 92.2678ZM157.463 61.6822C157.32 61.6822 157.177 61.6978 157.036 61.7291C155.156 62.1456 153.128 65.1703 151.991 69.2558C150.887 73.2199 150.992 76.9608 152.242 78.1502C156.119 81.8426 165.006 88.3116 167.694 89.7859C167.914 88.3274 167.839 84.885 167.777 82.032C167.739 80.2897 167.7 78.4882 167.7 76.72C167.7 70.4754 160.167 63.3703 160.091 63.2993L160.046 63.257L160.005 63.2095C159.137 62.1941 158.284 61.6822 157.463 61.6822Z" fill="#58595B"/>
</g>
</g>
<g id="Group_7">
<g id="Group_8">
<path id="Vector_6" d="M15.4658 66.8617C15.4658 66.8617 12.9212 69.0759 10.682 74.4705C8.44275 79.8649 7.83198 89.9415 8.95164 89.3308C10.0713 88.7201 16.6872 83.529 21.1657 76.3024C25.6441 69.0759 29.3084 57.0138 15.4658 66.8617Z" fill="white"/>
<path id="Vector_7" d="M8.85824 90.4621C8.55105 90.4621 8.24888 90.3498 8.00618 90.1315C7.70311 89.8589 6.89808 89.1349 7.52646 83.378C7.71275 81.6712 8.29384 77.3453 9.66237 74.0485C11.9744 68.4784 14.6292 66.1276 14.7411 66.0302L14.8258 65.9635C20.1892 62.1479 23.5168 61.1493 25.2984 62.821C28.7499 66.0599 22.377 76.4447 22.104 76.8853C17.5864 84.175 10.8054 89.5784 9.48019 90.3012C9.28234 90.4091 9.06907 90.4621 8.85824 90.4621ZM16.1605 67.7235C15.8644 68.002 13.6595 70.1779 11.7015 74.8948C10.8672 76.9047 10.1662 79.903 9.77825 83.121C9.54288 85.0729 9.48507 86.6142 9.51629 87.592C11.7949 85.8241 16.728 81.3685 20.2272 75.722C23.4562 70.5116 24.7926 65.3739 23.7875 64.4308C23.6556 64.307 22.3234 63.3503 16.1605 67.7235Z" fill="#58595B"/>
</g>
</g>
<g id="Group_9">
<g id="Group_10">
<path id="Vector_8" d="M25.4406 62.491C25.4406 62.491 17.4805 69.9091 17.4805 76.7189C17.4805 83.5288 16.8907 91.1626 18.1121 91.1626C19.3335 91.1626 30.5297 83.0199 34.8046 78.9485C39.0795 74.8771 32.4637 54.2779 25.4406 62.491Z" fill="white"/>
<path id="Vector_9" d="M18.1122 92.2677C17.733 92.2677 17.3725 92.1126 17.097 91.8311C16.19 90.9043 16.1587 88.5308 16.3005 81.9841C16.338 80.2535 16.3768 78.4642 16.3768 76.7199C16.3768 69.7142 23.9093 62.4203 24.642 61.7277C26.6099 59.4539 28.4911 59.2997 29.7264 59.5734C32.9985 60.2981 35.3303 64.7442 36.4213 68.6634C37.464 72.4085 37.8656 77.559 35.566 79.749C33.1882 82.0136 29.0469 85.2249 25.9643 87.4751C19.3984 92.2677 18.4971 92.2677 18.1122 92.2677ZM26.1936 63.2992C26.1175 63.3702 18.5845 70.4752 18.5845 76.7199C18.5845 78.4881 18.5454 80.2896 18.5078 82.0319C18.446 84.8849 18.3714 88.3273 18.5905 89.7858C21.2793 88.3114 30.1665 81.8425 34.0435 78.1501C35.2925 76.9605 35.3981 73.2198 34.2944 69.2556C33.157 65.1702 31.1294 62.1455 29.2489 61.729C28.2988 61.5188 27.2997 62.0165 26.2796 63.2094L26.239 63.2569L26.1936 63.2992Z" fill="#58595B"/>
</g>
</g>
<g id="Group_11">
<g id="Group_12">
<path id="Vector_10" d="M37.5452 59.975C35.8943 61.6173 31.6369 66.0638 31.6369 74.8325C31.6369 83.6012 31.6369 91.1173 35.2022 92.659C38.7676 94.2007 46.3763 89.6012 52.5433 74.6655C56.8761 64.1721 41.6906 55.8515 37.5452 59.975Z" fill="white"/>
<path id="Vector_11" d="M36.6567 94.0461C35.9767 94.0461 35.341 93.9217 34.7641 93.6723C30.533 91.8426 30.533 84.336 30.533 74.8324C30.533 65.3931 35.225 60.726 36.7667 59.1924C37.9299 58.0353 39.788 57.5746 41.9985 57.8949C43.9509 58.1778 46.0913 59.0466 48.0253 60.3408C50.4442 61.9598 52.3593 64.1279 53.418 66.4457C54.6939 69.2393 54.7443 72.2273 53.5637 75.0868C49.5844 84.7239 44.4213 91.4202 39.398 93.4589C38.4347 93.8498 37.5107 94.046 36.6567 94.0461ZM40.6558 59.9933C39.6633 59.9933 38.8433 60.241 38.3238 60.7576C36.9429 62.1311 32.7409 66.3111 32.7409 74.8324C32.7409 82.834 32.7409 90.3918 35.6404 91.6458C36.3753 91.9637 37.415 91.8809 38.5676 91.4131C40.2207 90.7421 46.0407 87.5212 51.5229 74.2441C53.647 69.0997 50.4745 64.6368 46.7973 62.1757C44.6817 60.7598 42.4019 59.9933 40.6558 59.9933Z" fill="#58595B"/>
</g>
</g>
<g id="Group_13">
<path id="Vector_12" d="M113.648 62.8595C113.648 57.108 93.1424 57.108 93.1424 62.8595C93.1424 72.8041 94.805 88.3487 103.395 88.3487C111.985 88.3487 113.648 72.8041 113.648 62.8595Z" fill="url(#paint0_linear_1_1445)"/>
<g id="Group_14">
<g id="Group_15">
<g id="Group_16">
<path id="Vector_13" d="M103.395 89.4529C101.038 89.4529 98.9959 88.4518 97.3263 86.4775C95.9582 84.8598 94.8348 82.5598 93.9874 79.6413C92.3767 74.0943 92.0385 67.4537 92.0385 62.8598C92.0385 61.5812 92.7188 59.8026 95.9597 58.5907C97.9398 57.85 100.58 57.4424 103.395 57.4424C106.21 57.4424 108.85 57.8502 110.83 58.5907C114.071 59.8027 114.752 61.5812 114.752 62.8598C114.752 67.4537 114.413 74.0943 112.803 79.6415C111.955 82.5598 110.832 84.8598 109.464 86.4775C107.794 88.4518 105.752 89.4529 103.395 89.4529ZM103.395 59.65C98.3504 59.65 94.2464 61.0899 94.2464 62.8597C94.2464 68.5802 94.9061 87.2449 103.395 87.2449C111.884 87.2449 112.544 68.5803 112.544 62.8597C112.544 61.7536 110.986 61.0057 110.057 60.6584C108.343 60.0176 105.915 59.65 103.395 59.65Z" fill="#58595B"/>
</g>
</g>
</g>
</g>
<g id="Group_17">
<path id="Vector_14" d="M134.266 64.5756C134.266 58.4729 113.648 58.4729 113.648 64.5756C113.648 75.1272 117.999 91.6209 125.949 91.6209C133.319 91.621 134.266 75.1273 134.266 64.5756Z" fill="url(#paint1_linear_1_1445)"/>
<g id="Group_18">
<g id="Group_19">
<g id="Group_20">
<path id="Vector_15" d="M125.949 92.7247C121.871 92.7247 118.357 89.1715 115.786 82.4492C113.786 77.2205 112.544 70.3715 112.544 64.5752C112.544 60.6509 118.276 58.8943 123.957 58.8943C129.638 58.8943 135.37 60.6509 135.37 64.5752C135.37 71.9016 134.893 77.8598 133.951 82.2846C132.477 89.2121 129.785 92.7247 125.949 92.7247ZM123.957 61.1023C118.795 61.1023 114.752 62.6278 114.752 64.5752C114.752 75.1524 119.114 90.5167 125.949 90.5167C130.6 90.5167 133.162 81.3038 133.162 64.5752C133.162 63.4097 131.79 62.6237 130.639 62.1693C128.92 61.4912 126.485 61.1023 123.957 61.1023Z" fill="#58595B"/>
</g>
</g>
</g>
</g>
</g>
<g id="Group_21">
<g id="Group_22">
<g id="Group_23">
<g id="Group_24">
<path id="Vector_16" d="M172.168 47.6643C172.168 47.6643 177.588 41.4218 181.193 38.6009C184.798 35.7799 185.189 39.5148 184.562 43.1326C183.936 46.7503 182.682 54.2729 181.036 60.9334C179.391 67.594 175.551 72.7632 170.379 67.867C165.208 62.9707 163.805 56.1895 172.168 47.6643Z" fill="white"/>
<path id="Vector_17" d="M174.348 70.9016C173.072 70.9017 171.446 70.397 169.62 68.6685C166.679 65.8838 165.156 62.7913 165.095 59.477C165.021 55.46 167.127 51.2338 171.357 46.9151C171.792 46.4153 176.946 40.5223 180.512 37.7317C182.088 36.4992 183.418 36.1926 184.467 36.8201C186.196 37.855 186.065 40.9266 185.65 43.321L185.491 44.2406C184.842 48.0083 183.634 55.0214 182.108 61.198C180.816 66.4249 178.476 69.8917 175.687 70.7097C175.301 70.8229 174.852 70.9016 174.348 70.9016ZM183.309 38.7136C183.206 38.7136 182.779 38.7613 181.873 39.4703C178.395 42.1926 173.055 48.3267 173.002 48.3882L172.956 48.4376C169.142 52.326 167.239 56.0264 167.303 59.4362C167.352 62.1362 168.643 64.703 171.138 67.0653C172.571 68.422 173.892 68.9352 175.065 68.5913C177.022 68.0175 178.899 64.9818 179.964 60.6687C181.471 54.5688 182.671 47.6063 183.315 43.8659L183.475 42.9442C183.967 40.1005 183.543 38.8489 183.333 38.7148H183.333C183.332 38.7148 183.324 38.7136 183.309 38.7136Z" fill="#58595B"/>
</g>
</g>
<g id="Group_25">
<g id="Group_26">
<path id="Vector_18" d="M150.86 44.6797C150.86 44.6797 157.932 34.4374 161.094 31.0489C164.257 27.6605 169.565 25.7405 171.485 29.5806C173.406 33.4207 172.615 52.396 170.13 58.947C167.645 65.4979 162.563 70.4945 157.028 66.3585C151.494 62.2225 143.562 56.0515 150.86 44.6797Z" fill="white"/>
<path id="Vector_19" d="M161.12 68.9681C159.512 68.9681 157.897 68.3863 156.367 67.2426C153.712 65.2583 150.076 62.5407 148.147 58.731C145.918 54.3289 146.518 49.4007 149.931 44.0833L149.951 44.0524C150.242 43.6315 157.106 33.7041 160.287 30.2956C162.382 28.051 165.839 25.9802 168.844 26.4152C170.461 26.649 171.716 27.5729 172.473 29.0869C174.579 33.3 173.747 52.5253 171.162 59.3384C169.27 64.3285 166.3 67.7389 163.014 68.6952C162.388 68.8775 161.754 68.9681 161.12 68.9681ZM151.779 45.2916C145.471 55.136 150.975 60.4562 157.689 65.4742C159.268 66.6542 160.852 67.0249 162.397 66.5753C164.972 65.8257 167.477 62.8276 169.098 58.5554C170.2 55.6508 171.065 49.7662 171.357 43.1983C171.635 36.9321 171.29 31.6579 170.498 30.0743C170.067 29.2119 169.422 28.7297 168.528 28.6003C166.64 28.3274 163.916 29.6441 161.901 31.8021C158.886 35.0332 152.09 44.8418 151.779 45.2916Z" fill="#58595B"/>
</g>
</g>
<g id="Group_27">
<g id="Group_28">
<path id="Vector_20" d="M13.7462 47.6643C13.7462 47.6643 8.32608 41.4218 4.72156 38.6009C1.11704 35.7799 0.725192 39.5148 1.35215 43.1326C1.97899 46.7503 3.23278 54.2729 4.8783 60.9334C6.52382 67.594 10.3635 72.7632 15.5352 67.867C20.7069 62.9707 22.1096 56.1895 13.7462 47.6643Z" fill="white"/>
<path id="Vector_21" d="M11.5663 70.9018C11.0624 70.9018 10.6132 70.8231 10.2277 70.7101C7.43821 69.8921 5.09789 66.4251 3.80658 61.1984C2.28029 55.0205 1.07184 48.0067 0.422654 44.2387L0.264372 43.3212C-0.150605 40.9267 -0.282036 37.8552 1.44751 36.8203C2.49664 36.1925 3.82726 36.4993 5.40186 37.7317C8.96797 40.5226 14.1232 46.4162 14.5577 46.9153C18.787 51.234 20.8936 55.4602 20.8194 59.477C20.7581 62.7913 19.2356 65.8839 16.294 68.6687C14.4685 70.3971 12.8425 70.9018 11.5663 70.9018ZM2.60726 38.7152C2.58683 38.7152 2.57694 38.717 2.57629 38.7173C2.37099 38.8491 1.94702 40.1007 2.43972 42.9444L2.59839 43.8638C3.24283 47.6046 4.44253 54.5676 5.94981 60.6689C7.01539 64.982 8.89255 68.0177 10.8489 68.5915C12.0217 68.9356 13.3431 68.422 14.7761 67.0656C17.2714 64.7032 18.5619 62.1364 18.6117 59.4364C18.6747 56.0266 16.7726 52.3259 12.958 48.4378L12.9126 48.3884C12.859 48.3269 7.51966 42.1928 4.04105 39.4705C3.14737 38.771 2.71967 38.7152 2.60726 38.7152Z" fill="#58595B"/>
</g>
</g>
<path id="Vector_22" d="M35.0546 44.68C35.0546 44.68 27.9825 34.4376 24.8201 31.0492C21.6577 27.6608 16.349 25.7407 14.429 29.5808C12.5089 33.421 13.2995 52.3962 15.7844 58.9472C18.2692 65.4982 23.3519 70.4947 28.8862 66.3587C34.4206 62.2227 42.3526 56.0517 35.0546 44.68Z" fill="url(#paint2_linear_1_1445)"/>
<g id="Group_29">
<g id="Group_30">
<path id="Vector_23" d="M24.7943 68.9683C24.1599 68.9683 23.527 68.8778 22.9004 68.6954C19.6148 67.7392 16.6449 64.3288 14.7521 59.3388C12.1679 52.5256 11.335 33.3002 13.4415 29.0871C14.1985 27.5733 15.4533 26.6493 17.0703 26.4154C20.0738 25.9816 23.5321 28.0513 25.6271 30.2958C28.8084 33.7044 35.6723 43.6317 35.9631 44.0526L35.9838 44.0836C39.3962 49.4009 39.9963 54.3291 37.7675 58.7312C35.8386 62.5409 32.2023 65.2587 29.5471 67.2429C28.017 68.3864 26.4019 68.9683 24.7943 68.9683ZM17.9012 28.565C17.7237 28.565 17.552 28.5766 17.3865 28.6005C16.492 28.7299 15.8476 29.2121 15.4164 30.0745C14.6246 31.6581 14.2796 36.9323 14.5577 43.1985C14.8494 49.7666 15.7148 55.651 16.8166 58.5557C18.437 62.8278 20.9421 65.8259 23.5176 66.5756C25.0619 67.0246 26.6461 66.6544 28.2255 65.4744C34.9399 60.4564 40.4438 55.1363 34.1359 45.2919C33.8247 44.8422 27.0287 35.0333 24.0132 31.8023C22.1754 29.8335 19.7461 28.565 17.9012 28.565Z" fill="#58595B"/>
</g>
</g>
<g id="Group_31">
<g id="Group_32">
<path id="Vector_24" d="M34.2952 57.5562C34.2952 65.4771 59.7258 65.4771 59.7258 57.5562C59.7258 43.8607 54.6552 26.7837 47.0104 26.7837C36.3571 26.7837 34.2952 43.8608 34.2952 57.5562Z" fill="white"/>
<path id="Vector_25" d="M47.0105 64.6006C43.5374 64.6006 40.2825 64.0432 37.8453 63.031C33.9988 61.4335 33.1913 59.1719 33.1913 57.556C33.1913 48.9044 34.0027 41.8901 35.603 36.7081C37.8631 29.3901 41.701 25.6794 47.0105 25.6794C49.1728 25.6794 51.2087 26.7793 53.0619 28.9486C54.6425 30.7989 56.0583 33.3898 57.2698 36.6491C59.499 42.6464 60.8299 50.4619 60.8299 57.5558C60.8299 59.1718 60.0224 61.4335 56.1759 63.0308C53.7384 64.0432 50.4835 64.6006 47.0105 64.6006ZM47.0105 27.8874C42.7224 27.8874 39.681 30.9858 37.7126 37.3597C36.1775 42.3304 35.3991 49.1255 35.3991 57.556C35.3991 60.6976 41.3816 62.3927 47.0105 62.3927C52.6394 62.3927 58.6219 60.6976 58.6219 57.556C58.6219 50.7108 57.3427 43.1827 55.2002 37.4185C52.9487 31.3614 49.9637 27.8874 47.0105 27.8874Z" fill="#58595B"/>
</g>
</g>
<path id="Vector_26" d="M151.619 57.5557C151.619 65.4767 126.189 65.4767 126.189 57.5557C126.189 43.8602 131.259 26.7832 138.904 26.7832C149.557 26.7832 151.619 43.8603 151.619 57.5557Z" fill="url(#paint3_linear_1_1445)"/>
<g id="Group_33">
<path id="Vector_27" d="M138.904 64.6004C135.431 64.6004 132.176 64.0431 129.739 63.0308C125.892 61.4334 125.084 59.1718 125.084 57.5558C125.084 50.4619 126.415 42.6464 128.644 36.6491C129.856 33.3898 131.272 30.7989 132.852 28.9486C134.706 26.7793 136.742 25.6794 138.904 25.6794C144.213 25.6794 148.051 29.3901 150.311 36.7081C151.912 41.8901 152.723 48.9044 152.723 57.556C152.723 59.1719 151.916 61.4336 148.069 63.031C145.632 64.0431 142.377 64.6004 138.904 64.6004ZM138.904 27.8873C135.951 27.8873 132.966 31.3612 130.714 37.4184C128.571 43.1826 127.292 50.7107 127.292 57.5558C127.292 60.6975 133.275 62.3926 138.904 62.3926C144.533 62.3926 150.515 60.6975 150.515 57.5558C150.515 49.1254 149.737 42.3303 148.202 37.3596C146.233 30.9858 143.192 27.8873 138.904 27.8873Z" fill="#58595B"/>
</g>
<g id="Group_34">
<g id="Group_35">
<g id="Group_36">
<path id="Vector_28" d="M126.188 60.3687C126.188 68.3553 92.9572 68.3553 92.9572 60.3687C92.9572 46.5596 95.6515 24.9741 109.573 24.9741C123.494 24.9741 126.188 46.5596 126.188 60.3687Z" fill="white"/>
<path id="Vector_29" d="M109.573 67.4626C105.109 67.4626 100.932 66.9121 97.8127 65.9125C92.8872 64.3341 91.8534 62.0267 91.8534 60.3688C91.8534 54.0062 92.3992 44.8109 94.9991 37.1388C96.3561 33.1346 98.1457 29.9884 100.318 27.7873C102.883 25.188 105.997 23.8701 109.573 23.8701C113.149 23.8701 116.263 25.188 118.828 27.7871C121 29.9881 122.79 33.1344 124.147 37.1386C126.747 44.8108 127.292 54.0059 127.292 60.3686C127.292 62.0264 126.258 64.3338 121.333 65.9123C118.214 66.9121 114.037 67.4626 109.573 67.4626ZM109.573 26.078C103.937 26.078 99.7367 30.0377 97.0902 37.8471C94.4546 45.6239 94.0613 55.2954 94.0613 60.3686C94.0613 63.1083 100.875 65.2545 109.573 65.2545C118.271 65.2545 125.085 63.1083 125.085 60.3686C125.085 55.2956 124.691 45.6239 122.056 37.8471C119.409 30.0379 115.209 26.078 109.573 26.078Z" fill="#58595B"/>
</g>
</g>
</g>
<g id="Group_37">
<path id="Vector_30" d="M92.9556 60.3687C92.9556 68.3553 59.7243 68.3553 59.7243 60.3687C59.7243 46.5596 62.4187 24.9741 76.34 24.9741C90.2612 24.9741 92.9556 46.5596 92.9556 60.3687Z" fill="url(#paint4_linear_1_1445)"/>
<g id="Group_38">
<g id="Group_39">
<g id="Group_40">
<path id="Vector_31" d="M76.3399 67.4633C71.8758 67.4633 67.6993 66.9128 64.5798 65.9133C59.6543 64.3348 58.6204 62.0274 58.6204 60.3695C58.6204 54.0068 59.1661 44.8116 61.7662 37.1396C63.1231 33.1354 64.9127 29.9891 67.0851 27.7881C69.6503 25.189 72.7642 23.8711 76.3399 23.8711C79.9157 23.8711 83.0295 25.189 85.5948 27.7881C87.7672 29.9891 89.5568 33.1354 90.9137 37.1396C93.5137 44.8118 94.0595 54.0068 94.0595 60.3695C94.0595 62.0274 93.0255 64.3348 88.1 65.9133C84.9806 66.9127 80.8041 67.4633 76.3399 67.4633ZM76.3399 26.0787C70.7036 26.0787 66.5037 30.0384 63.8572 37.8479C61.2218 45.6245 60.8283 55.2962 60.8283 60.3693C60.8283 63.109 67.6419 65.2552 76.3401 65.2552C85.0381 65.2552 91.8517 63.109 91.8517 60.3693C91.8517 55.2963 91.4582 45.6245 88.8228 37.8479C86.1761 30.0386 81.9763 26.0787 76.3399 26.0787Z" fill="#58595B"/>
</g>
</g>
</g>
</g>
</g>
</g>
</g>
<g id="Group_41">
<g id="Group_42">
<path id="Vector_32" d="M72.6372 62.8595C72.6372 57.108 93.1425 57.108 93.1425 62.8595C93.1425 72.8041 91.4799 88.3487 82.8898 88.3487C74.2998 88.3487 72.6372 72.8041 72.6372 62.8595Z" fill="white" stroke="#58595B" stroke-width="2" stroke-miterlimit="10"/>
</g>
</g>
<g id="Group_43">
<g id="Group_44">
<path id="Vector_33" d="M52.0189 64.5756C52.0189 58.4729 72.6371 58.4729 72.6371 64.5756C72.6371 75.1272 68.286 91.6209 60.3358 91.6209C52.9655 91.621 52.0189 75.1273 52.0189 64.5756Z" fill="white" stroke="#58595B" stroke-width="2" stroke-miterlimit="10"/>
</g>
</g>
<path id="Vector_34" d="M148.74 59.975C145.829 57.0799 137.478 60.3191 134.259 66.1372C134.233 68.8955 134.132 71.9554 133.871 74.9703C140.015 89.6597 147.542 94.19 151.082 92.6591C154.648 91.1173 154.648 83.6012 154.648 74.8325C154.648 66.0639 150.391 61.6172 148.74 59.975Z" fill="white" stroke="#58595B" stroke-width="2" stroke-miterlimit="10"/>
</g>
</g>
<defs>
<linearGradient id="paint0_linear_1_1445" x1="103.395" y1="88.3487" x2="103.395" y2="56.2284" gradientUnits="userSpaceOnUse">
<stop offset="0.0654" stop-color="white"/>
<stop offset="0.3102" stop-color="#FDFDFD"/>
<stop offset="0.4434" stop-color="#F5F5F5"/>
<stop offset="0.5498" stop-color="#E7E7E7"/>
<stop offset="0.6421" stop-color="#D4D4D4"/>
<stop offset="0.7253" stop-color="#BCBABB"/>
<stop offset="0.8018" stop-color="#9D9B9C"/>
<stop offset="0.8733" stop-color="#797677"/>
<stop offset="0.939" stop-color="#504D4E"/>
<stop offset="1" stop-color="#231F20"/>
</linearGradient>
<linearGradient id="paint1_linear_1_1445" x1="123.957" y1="91.621" x2="123.957" y2="53.0316" gradientUnits="userSpaceOnUse">
<stop offset="0.0654" stop-color="white"/>
<stop offset="0.3622" stop-color="#FDFDFD"/>
<stop offset="0.4948" stop-color="#F6F6F6"/>
<stop offset="0.5946" stop-color="#E9E9E9"/>
<stop offset="0.6781" stop-color="#D8D7D7"/>
<stop offset="0.7514" stop-color="#C1BFC0"/>
<stop offset="0.8175" stop-color="#A4A3A3"/>
<stop offset="0.8782" stop-color="#828081"/>
<stop offset="0.9348" stop-color="#5B5859"/>
<stop offset="0.986" stop-color="#302C2D"/>
<stop offset="1" stop-color="#231F20"/>
</linearGradient>
<linearGradient id="paint2_linear_1_1445" x1="25.675" y1="81.2418" x2="25.675" y2="34.3518" gradientUnits="userSpaceOnUse">
<stop stop-color="#231F20"/>
<stop offset="0.0624" stop-color="#514D4E"/>
<stop offset="0.1287" stop-color="#797777"/>
<stop offset="0.2009" stop-color="#9D9C9C"/>
<stop offset="0.2784" stop-color="#BCBBBB"/>
<stop offset="0.3625" stop-color="#D4D4D4"/>
<stop offset="0.456" stop-color="#E7E7E7"/>
<stop offset="0.5639" stop-color="#F5F5F5"/>
<stop offset="0.6994" stop-color="#FDFDFD"/>
<stop offset="0.9497" stop-color="white"/>
</linearGradient>
<linearGradient id="paint3_linear_1_1445" x1="138.904" y1="76.5777" x2="138.904" y2="39.8645" gradientUnits="userSpaceOnUse">
<stop stop-color="#231F20"/>
<stop offset="0.061" stop-color="#504D4E"/>
<stop offset="0.1267" stop-color="#797677"/>
<stop offset="0.1982" stop-color="#9D9B9C"/>
<stop offset="0.2747" stop-color="#BCBABB"/>
<stop offset="0.3579" stop-color="#D4D4D4"/>
<stop offset="0.4502" stop-color="#E7E7E7"/>
<stop offset="0.5566" stop-color="#F5F5F5"/>
<stop offset="0.6898" stop-color="#FDFDFD"/>
<stop offset="0.9346" stop-color="white"/>
</linearGradient>
<linearGradient id="paint4_linear_1_1445" x1="76.34" y1="79.3978" x2="76.34" y2="49.0291" gradientUnits="userSpaceOnUse">
<stop stop-color="#231F20"/>
<stop offset="0.1552" stop-color="#5C595A"/>
<stop offset="0.3103" stop-color="#8E8C8C"/>
<stop offset="0.4622" stop-color="#B7B5B6"/>
<stop offset="0.6095" stop-color="#D6D5D6"/>
<stop offset="0.7508" stop-color="#EDECEC"/>
<stop offset="0.8839" stop-color="#FAFAFA"/>
<stop offset="1" stop-color="white"/>
</linearGradient>
</defs>
</svg>
