<svg width="54" height="54" viewBox="0 0 54 54" fill="none" xmlns="http://www.w3.org/2000/svg">
<g id="Group 193">
<ellipse id="Ellipse 2" cx="26.4335" cy="52.2879" rx="5.48233" ry="1.7122" fill="#E8E8E8"/>
<path id="Vector" d="M39.9274 12.2224C47.3388 19.6293 47.3385 32.6466 39.9271 40.0535L28.178 51.7956C26.4315 53.5411 25.0918 52.0499 23.3453 50.3045L14.4397 40.0535C7.02828 32.6466 7.02828 20.6566 14.4397 13.2497C21.851 5.84282 32.516 4.81552 39.9274 12.2224Z" fill="#EB433C"/>
<path id="Vector_2" d="M37.8705 30.6641C37.502 30.6641 37.1708 30.4389 37.0354 30.0962L32.9021 19.6372C32.5938 18.8573 31.5203 18.7804 31.104 19.5084L28.6737 23.7581C28.2894 24.4302 27.3199 24.4294 26.9367 23.7566L24.519 19.5115C24.1038 18.7825 23.0297 18.858 22.7204 19.6378L18.5729 30.0968C18.4371 30.4393 18.1061 30.6641 17.7377 30.6641C17.2415 30.6641 16.8392 31.0664 16.8392 31.5626V31.6464C16.8392 32.1889 17.279 32.6287 17.8215 32.6287H23.6112C24.1537 32.6287 24.5934 32.1889 24.5934 31.6464V31.1452C24.5934 30.8795 24.378 30.6641 24.1123 30.6641C23.7813 30.6641 23.5492 30.3376 23.6579 30.0249L23.8834 29.3768C24.1525 28.6032 25.2005 28.4917 25.6263 29.1913L26.9497 31.3655C27.3393 32.0056 28.2685 32.0056 28.6581 31.3655L29.9815 29.1913C30.4073 28.4917 31.4553 28.6032 31.7244 29.3768L31.9499 30.0249C32.0586 30.3376 31.8265 30.6641 31.4955 30.6641C31.2298 30.6641 31.0144 30.8795 31.0144 31.1452V31.6464C31.0144 32.1889 31.4541 32.6287 31.9966 32.6287H37.7863C38.3288 32.6287 38.7686 32.1889 38.7686 31.6464V31.5621C38.7686 31.0662 38.3665 30.6641 37.8705 30.6641Z" fill="white"/>
</g>
</svg>
