<svg width="164" height="118" viewBox="0 0 164 118" fill="none" xmlns="http://www.w3.org/2000/svg">
<g id="Group 17965">
<path id="Vector" d="M76.3523 117.87C45.4336 117.87 23.0972 96.0739 23.0972 64.0294C23.0972 31.9849 45.4336 0.870117 76.3523 0.870117C107.271 0.870117 140.097 25.2549 140.097 57.2993C140.097 89.3438 107.271 117.87 76.3523 117.87Z" fill="white"/>
<g id="Group 18075">
<rect id="Rectangle 39" x="24.1632" y="47.5435" width="113.265" height="33.9795" fill="#ECECEC"/>
<g id="Group">
<g id="Group_2">
<path id="Vector_2" d="M150.358 67.8338C150.358 67.8338 152.598 69.7794 154.569 74.5199C156.54 79.2603 157.077 88.115 156.092 87.5783C155.106 87.0417 149.283 82.4801 145.341 76.1298C141.399 69.7794 138.173 59.18 150.358 67.8338Z" fill="white"/>
<path id="Vector_3" d="M156.174 88.571C155.988 88.571 155.801 88.5245 155.627 88.4297C154.46 87.7944 148.491 83.0463 144.515 76.6404C144.274 76.2533 138.665 67.1277 141.703 64.2817C143.271 62.8124 146.2 63.6901 150.921 67.043C150.947 67.0613 150.972 67.0809 150.996 67.1017C151.094 67.1873 153.431 69.2532 155.466 74.1477C156.671 77.0447 157.182 80.8461 157.346 82.3458C157.899 87.4048 157.191 88.0409 156.924 88.2804C156.71 88.4723 156.444 88.571 156.174 88.571ZM143.611 65.5443C143.225 65.5443 143.071 65.6605 143.033 65.6965C142.148 66.5253 143.324 71.0399 146.167 75.6185C149.247 80.5802 153.589 84.4954 155.595 86.049C155.622 85.1899 155.571 83.8356 155.364 82.1202C155.023 79.2924 154.406 76.6576 153.671 74.8916C151.948 70.7467 150.007 68.8347 149.746 68.5899C146.117 66.0189 144.391 65.5443 143.611 65.5443Z" fill="#58595B"/>
</g>
</g>
<g id="Group_3">
<g id="Group_4">
<path id="Vector_4" d="M141.578 64.2755C141.578 64.2755 148.585 70.794 148.585 76.7781C148.585 82.7622 149.104 89.4703 148.029 89.4703C146.954 89.4703 137.098 82.315 133.336 78.7373C129.573 75.1597 135.396 57.0583 141.578 64.2755Z" fill="white"/>
<path id="Vector_5" d="M148.029 90.441C147.69 90.441 146.896 90.441 141.117 86.2295C138.404 84.2521 134.758 81.4302 132.665 79.4403C130.641 77.5158 130.995 72.9899 131.913 69.6989C132.873 66.2549 134.926 62.348 137.806 61.7112C138.893 61.4712 140.549 61.6062 142.281 63.6042C142.926 64.2131 149.556 70.6223 149.556 76.7784C149.556 78.3111 149.59 79.8836 149.623 81.4043C149.748 87.157 149.721 89.2428 148.922 90.0572C148.68 90.3047 148.362 90.441 148.029 90.441ZM138.602 63.5643C138.476 63.5643 138.35 63.578 138.226 63.6055C136.571 63.9715 134.786 66.6294 133.785 70.2194C132.813 73.7029 132.906 76.9901 134.005 78.0353C137.418 81.28 145.241 86.9644 147.607 88.26C147.8 86.9784 147.734 83.9535 147.68 81.4464C147.647 79.9154 147.613 78.3324 147.613 76.7786C147.613 71.2912 140.982 65.0478 140.915 64.9853C140.888 64.9606 140.863 64.934 140.839 64.9064C140.075 64.0141 139.324 63.5643 138.602 63.5643Z" fill="#58595B"/>
</g>
</g>
<g id="Group_5">
<g id="Group_6">
<path id="Vector_6" d="M130.923 63.7575C132.376 65.2007 136.124 69.1079 136.124 76.8133C136.124 84.5187 136.124 91.1234 132.985 92.4781C129.847 93.8329 123.15 89.7911 117.722 76.6665C113.908 67.4456 127.274 60.134 130.923 63.7575Z" fill="white"/>
<path id="Vector_7" d="M131.705 93.6964C130.953 93.6964 130.14 93.524 129.292 93.1805C124.871 91.3889 120.326 85.5046 116.823 77.0362C115.784 74.5234 115.828 71.8978 116.951 69.443C117.883 67.4062 119.569 65.5011 121.698 64.0784C123.401 62.941 125.285 62.1776 127.003 61.9289C128.949 61.6477 130.584 62.0523 131.608 63.0692C132.965 64.4168 137.095 68.5179 137.095 76.8126C137.095 85.1638 137.095 91.76 133.371 93.368C132.863 93.5871 132.304 93.6964 131.705 93.6964ZM128.185 63.773C126.648 63.773 124.641 64.4464 122.779 65.6907C119.542 67.8534 116.75 71.7751 118.62 76.2957C123.445 87.9627 128.568 90.793 130.023 91.3827C131.038 91.7939 131.953 91.8666 132.6 91.5872C135.152 90.4853 135.152 83.8439 135.152 76.8126C135.152 69.3245 131.453 65.6517 130.238 64.4446C129.78 63.9908 129.059 63.773 128.185 63.773Z" fill="#58595B"/>
</g>
</g>
<g id="Group_7">
<g id="Group_8">
<path id="Vector_8" d="M13.6132 67.8338C13.6132 67.8338 11.3734 69.7794 9.40241 74.5199C7.43131 79.2601 6.89381 88.1148 7.87925 87.5781C8.8648 87.0415 14.6882 82.48 18.6303 76.1296C22.5724 69.7794 25.7976 59.18 13.6132 67.8338Z" fill="white"/>
<path id="Vector_9" d="M7.79703 88.5709C7.52664 88.5709 7.26066 88.4722 7.04704 88.2804C6.78027 88.041 6.07166 87.4047 6.62489 82.3459C6.78886 80.8461 7.30035 77.0448 8.50495 74.1477C10.5401 69.2531 12.8769 67.1873 12.9754 67.1017C12.9992 67.081 13.0241 67.0614 13.0499 67.043C17.7708 63.6902 20.7001 62.8123 22.2681 64.2817C25.3061 67.1278 19.6966 76.2533 19.4563 76.6405C15.4798 83.0462 9.51109 87.7944 8.3446 88.4296C8.17044 88.5244 7.98272 88.5709 7.79703 88.5709ZM14.2247 68.5897C13.9643 68.8342 12.0233 70.7463 10.2998 74.8914C9.56548 76.6575 8.94837 79.2923 8.60696 82.12C8.39978 83.8353 8.34889 85.1897 8.37637 86.0488C10.3821 84.4952 14.7243 80.5801 17.8043 75.6183C20.6465 71.0397 21.8228 66.5251 20.9382 65.6963C20.822 65.5879 19.6494 64.7468 14.2247 68.5897Z" fill="#58595B"/>
</g>
</g>
<g id="Group_9">
<g id="Group_10">
<path id="Vector_10" d="M22.3932 64.2755C22.3932 64.2755 15.3866 70.794 15.3866 76.7781C15.3866 82.7622 14.8674 89.4703 15.9425 89.4703C17.0176 89.4703 26.8727 82.315 30.6355 78.7373C34.3984 75.1596 28.5751 57.0584 22.3932 64.2755Z" fill="white"/>
<path id="Vector_11" d="M15.9426 90.4406C15.6088 90.4406 15.2915 90.3044 15.049 90.057C14.2506 89.2426 14.223 87.1569 14.3479 81.4041C14.3809 79.8833 14.4149 78.311 14.4149 76.7782C14.4149 70.6221 21.0452 64.2126 21.6903 63.6039C23.4224 61.606 25.0786 61.4704 26.1657 61.7108C29.0458 62.3477 31.0983 66.2547 32.0587 69.6987C32.9764 72.9897 33.3299 77.5154 31.3058 79.44C29.2128 81.4299 25.5677 84.2518 22.8541 86.2291C17.0748 90.4406 16.2814 90.4406 15.9426 90.4406ZM23.0557 64.9853C22.9704 65.065 16.3583 71.2986 16.3583 76.7782C16.3583 78.332 16.3239 79.9151 16.2907 81.4461C16.2363 83.9531 16.1706 86.9781 16.3634 88.2597C18.7302 86.964 26.5528 81.2796 29.9654 78.035C31.0648 76.9897 31.1577 73.7026 30.1864 70.2192C29.1852 66.6291 27.4005 63.9712 25.7453 63.6051C24.909 63.4207 24.0296 63.858 23.1318 64.906C23.1079 64.9339 23.0826 64.9605 23.0557 64.9853ZM22.3932 64.2756H22.3943H22.3932Z" fill="#58595B"/>
</g>
</g>
<g id="Group_11">
<g id="Group_12">
<path id="Vector_12" d="M33.0479 63.7575C31.5947 65.2007 27.8472 69.1079 27.8472 76.8133C27.8472 84.5187 27.8472 91.1234 30.9855 92.4781C34.1238 93.8329 40.8211 89.7911 46.2494 76.6665C50.0631 67.4456 36.6966 60.134 33.0479 63.7575Z" fill="white"/>
<path id="Vector_13" d="M32.2657 93.6973C31.6671 93.6973 31.1074 93.588 30.5998 93.3689C26.8755 91.761 26.8755 85.1647 26.8755 76.8135C26.8755 68.5189 31.0054 64.4177 32.3626 63.0701C33.3866 62.0534 35.0219 61.6487 36.9677 61.9298C38.6863 62.1786 40.5703 62.942 42.2726 64.0793C44.4017 65.5019 46.0875 67.4071 47.0194 69.4439C48.1425 71.8987 48.1868 74.5243 47.1475 77.0371C43.645 85.5054 39.1003 91.3898 34.6787 93.1813C33.8307 93.5248 33.0175 93.6973 32.2657 93.6973ZM35.7857 63.7739C34.912 63.7739 34.1904 63.9916 33.7332 64.4455C32.5177 65.6525 28.819 69.3256 28.819 76.8135C28.819 83.8448 28.819 90.4862 31.3711 91.5881C32.0179 91.8672 32.9329 91.7947 33.9478 91.3835C35.403 90.794 40.5257 87.9635 45.3512 76.2966C47.2209 71.776 44.4284 67.8544 41.1916 65.6917C39.3294 64.4474 37.3226 63.7739 35.7857 63.7739ZM33.0479 63.7578H33.049H33.0479Z" fill="#58595B"/>
</g>
</g>
<g id="Group_13">
<g id="Group_14">
<g id="Group_15">
<path id="Vector_14" d="M100.035 72.5012C100.035 67.4472 81.9855 67.4472 81.9855 72.5012C81.9855 81.2399 83.4489 94.8995 91.01 94.8995C98.5713 94.8995 100.035 81.2399 100.035 72.5012Z" fill="white"/>
<path id="Vector_15" d="M91.0101 95.87C88.9351 95.87 87.1379 94.9904 85.6682 93.2555C84.4641 91.8339 83.4753 89.8128 82.7293 87.2484C81.3116 82.3738 81.0139 76.5387 81.0139 72.5017C81.0139 71.3782 81.6127 69.8152 84.4654 68.7503C86.2083 68.0994 88.5327 67.7412 91.0102 67.7412C93.4877 67.7412 95.8121 68.0995 97.555 68.7503C100.408 69.8153 101.006 71.3782 101.006 72.5017C101.006 76.5387 100.709 82.3738 99.291 87.2484C98.5451 89.8128 97.5563 91.8339 96.3521 93.2555C94.8823 94.9904 93.085 95.87 91.0101 95.87ZM91.0101 69.6811C86.5698 69.6811 82.9573 70.9465 82.9573 72.5016C82.9573 77.5284 83.538 93.9298 91.0101 93.9298C98.4822 93.9298 99.0629 77.5285 99.0629 72.5016C99.0629 71.5297 97.6915 70.8725 96.8741 70.5672C95.3657 70.0041 93.2283 69.6811 91.0101 69.6811Z" fill="#58595B"/>
</g>
</g>
</g>
<g id="Group_16">
<g id="Group_17">
<g id="Group_18">
<path id="Vector_16" d="M118.183 70.905C118.183 65.5424 100.035 65.5424 100.035 70.905C100.035 80.1771 103.865 94.6707 110.862 94.6707C117.35 94.6708 118.183 80.1772 118.183 70.905Z" fill="white"/>
<path id="Vector_17" d="M110.862 95.6411C107.273 95.6411 104.18 92.5188 101.917 86.6116C100.157 82.017 99.063 75.9986 99.063 70.9051C99.063 67.4567 104.108 65.9131 109.109 65.9131C114.109 65.9131 119.155 67.4567 119.155 70.9051C119.155 77.3431 118.735 82.5789 117.906 86.467C116.609 92.5545 114.239 95.6411 110.862 95.6411ZM109.109 67.8533C104.565 67.8533 101.006 69.1939 101.006 70.9051C101.006 80.1997 104.846 93.7008 110.863 93.7008C114.957 93.7008 117.211 85.6052 117.211 70.9051C117.211 69.8809 116.004 69.1902 114.991 68.7912C113.478 68.1951 111.334 67.8533 109.109 67.8533Z" fill="#58595B"/>
</g>
</g>
</g>
<g id="Group_19">
<g id="Group_20">
<g id="Group_21">
<path id="Vector_18" d="M63.9365 72.5017C63.9365 67.4477 81.9856 67.4477 81.9856 72.5017C81.9856 81.2403 80.5221 94.9 72.961 94.9C65.3999 94.9 63.9365 81.2403 63.9365 72.5017Z" fill="white"/>
<path id="Vector_19" d="M72.9612 95.8702C70.8861 95.8702 69.0888 94.9905 67.6193 93.2556C66.4151 91.834 65.4263 89.8129 64.6803 87.2485C63.2625 82.374 62.9648 76.5387 62.9648 72.5018C62.9648 71.3783 63.5636 69.8153 66.4164 68.7503C68.1593 68.0995 70.4836 67.7412 72.9612 67.7412C75.4387 67.7412 77.763 68.0995 79.5059 68.7503C82.3587 69.8155 82.9575 71.3783 82.9575 72.5018C82.9575 76.5387 82.6598 82.374 81.242 87.2485C80.4961 89.8129 79.5073 91.834 78.303 93.2556C76.8334 94.9905 75.0361 95.8702 72.9612 95.8702ZM72.9612 69.6812C68.5208 69.6812 64.9083 70.9466 64.9083 72.5017C64.9083 77.5286 65.4891 93.9299 72.9612 93.9299C80.4332 93.9299 81.0141 77.5287 81.0141 72.5017C81.0141 71.5298 79.6427 70.8726 78.8252 70.5674C77.3167 70.0042 75.1793 69.6812 72.9612 69.6812Z" fill="#58595B"/>
</g>
</g>
</g>
<g id="Group_22">
<g id="Group_23">
<g id="Group_24">
<path id="Vector_20" d="M45.7881 70.905C45.7881 65.5424 63.9366 65.5424 63.9366 70.905C63.9366 80.1771 60.1067 94.6707 53.1088 94.6707C46.6212 94.6708 45.7881 80.1772 45.7881 70.905Z" fill="white"/>
<path id="Vector_21" d="M53.1086 95.6411C49.7323 95.6411 47.3624 92.5545 46.065 86.467C45.2363 82.5789 44.8162 77.3431 44.8162 70.9051C44.8162 67.4567 49.8618 65.9131 54.8621 65.9131C59.8626 65.9131 64.9082 67.4567 64.9082 70.9051C64.9082 75.9986 63.8146 82.017 62.0543 86.6116C59.7913 92.5187 56.6978 95.6411 53.1086 95.6411ZM54.8622 67.8533C50.3187 67.8533 46.7598 69.1939 46.7598 70.9051C46.7598 85.6052 49.0145 93.7008 53.1087 93.7008C59.1253 93.7008 62.9648 80.1997 62.9648 70.9051C62.9648 69.8809 61.7571 69.1902 60.7441 68.7912C59.2313 68.1951 57.0875 67.8533 54.8622 67.8533Z" fill="#58595B"/>
</g>
</g>
</g>
<g id="Group_25">
<g id="Group_26">
<g id="Group_27">
<g id="Group_28">
<path id="Vector_22" d="M151.545 49.2705C151.545 49.2705 156.316 43.785 159.489 41.3061C162.662 38.8273 163.007 42.1093 162.455 45.2883C161.903 48.4674 160.8 55.0777 159.351 60.9306C157.903 66.7835 154.523 71.3259 149.971 67.0234C145.418 62.7208 144.184 56.762 151.545 49.2705Z" fill="white"/>
</g>
<g id="Group_29">
<path id="Vector_23" d="M153.464 69.6901C152.341 69.6902 150.91 69.2468 149.303 67.728C146.713 65.2807 145.373 62.5633 145.319 59.6508C145.254 56.121 147.108 52.4074 150.831 48.6124C151.214 48.1732 155.751 42.9947 158.89 40.5425C160.276 39.4595 161.447 39.19 162.371 39.7415C163.893 40.6509 163.778 43.35 163.412 45.4541L163.272 46.2638C162.701 49.5743 161.637 55.7365 160.294 61.1634C159.158 65.7565 157.098 68.8029 154.642 69.5217C154.303 69.621 153.908 69.6901 153.464 69.6901ZM161.351 41.4054C161.261 41.4054 160.885 41.4473 160.088 42.0703C157.024 44.4641 152.326 49.8527 152.279 49.9068C152.266 49.9216 152.253 49.9362 152.239 49.9502C148.882 53.367 147.207 56.6186 147.262 59.615C147.306 61.9877 148.442 64.2431 150.639 66.319C151.9 67.5111 153.062 67.9622 154.095 67.66C155.817 67.1558 157.47 64.4882 158.408 60.6981C159.734 55.3386 160.79 49.2211 161.357 45.9345L161.497 45.123C161.931 42.6241 161.558 41.5243 161.373 41.4064C161.372 41.4064 161.365 41.4054 161.351 41.4054ZM151.545 49.2708H151.547H151.545Z" fill="#58595B"/>
</g>
</g>
<g id="Group_30">
<g id="Group_31">
<path id="Vector_24" d="M132.789 44.9546C132.789 44.9546 139.014 35.9542 141.798 32.9767C144.582 29.9992 149.254 28.3119 150.944 31.6864C152.635 35.0609 151.939 51.7351 149.751 57.4917C147.564 63.2483 143.09 67.639 138.219 64.0045C133.347 60.37 126.366 54.9474 132.789 44.9546Z" fill="white"/>
</g>
<g id="Group_32">
<path id="Vector_25" d="M141.821 66.2976C140.405 66.2976 138.984 65.7864 137.637 64.7814C135.3 63.0378 132.099 60.6497 130.402 57.302C128.44 53.4336 128.968 49.103 131.972 44.4305C131.978 44.4212 131.984 44.4122 131.99 44.4033C132.246 44.0334 138.287 35.3098 141.088 32.3147C142.932 30.3422 145.976 28.522 148.62 28.9048C150.043 29.1103 151.148 29.9222 151.814 31.2525C153.668 34.9549 152.935 51.8488 150.66 57.8357C148.994 62.2207 146.38 65.2175 143.488 66.0578C142.936 66.218 142.379 66.2976 141.821 66.2976ZM133.598 45.4923C128.046 54.1431 132.891 58.818 138.801 63.2274C140.191 64.2645 141.585 64.5897 142.945 64.195C145.212 63.5363 147.417 60.9017 148.843 57.1475C149.813 54.5952 150.575 49.4242 150.831 43.6527C151.076 38.1464 150.772 33.5118 150.075 32.1202C149.696 31.3624 149.129 30.9388 148.341 30.825C146.68 30.5863 144.281 31.742 142.508 33.6386C139.854 36.4778 133.872 45.0971 133.598 45.4923Z" fill="#58595B"/>
</g>
</g>
<g id="Group_33">
<g id="Group_34">
<path id="Vector_26" d="M133.458 54.5754C133.458 61.5358 111.073 61.5358 111.073 54.5754C111.073 42.5406 115.537 27.5344 122.266 27.5344C131.643 27.5344 133.458 42.5407 133.458 54.5754Z" fill="white"/>
</g>
<g id="Group_35">
<path id="Vector_27" d="M122.266 60.7662C119.209 60.7662 116.344 60.2764 114.198 59.3869C110.812 57.9831 110.102 55.9958 110.102 54.5758C110.102 48.3421 111.273 41.4743 113.235 36.2042C114.302 33.3402 115.548 31.0635 116.939 29.4375C118.57 27.5312 120.362 26.5647 122.266 26.5647C126.939 26.5647 130.317 29.8254 132.307 36.256C133.715 40.8096 134.43 46.9733 134.43 54.5758C134.43 55.9958 133.719 57.9832 130.333 59.3869C128.188 60.2764 125.323 60.7662 122.266 60.7662ZM122.266 28.505C119.666 28.505 117.039 31.5578 115.057 36.8804C113.171 41.9456 112.045 48.5608 112.045 54.5759C112.045 57.3365 117.311 58.8261 122.266 58.8261C127.22 58.8261 132.486 57.3365 132.486 54.5759C132.486 47.1677 131.801 41.1966 130.45 36.8287C128.717 31.2277 126.04 28.505 122.266 28.505Z" fill="#58595B"/>
</g>
</g>
<g id="Group_36">
<g id="Group_37">
<path id="Vector_28" d="M12.0995 49.2705C12.0995 49.2705 7.32862 43.785 4.15586 41.3061C0.982986 38.8273 0.638184 42.1093 1.18993 45.2883C1.74169 48.4674 2.8453 55.0777 4.29371 60.9306C5.74213 66.7835 9.12184 71.3259 13.6742 67.0234C18.2265 62.7208 19.4611 56.762 12.0995 49.2705Z" fill="white"/>
</g>
<g id="Group_38">
<path id="Vector_29" d="M10.1809 69.69C9.73734 69.69 9.34187 69.6209 9.0025 69.5216C6.54727 68.8028 4.48717 65.7563 3.35054 61.1633C2.00718 55.735 0.943484 49.572 0.372169 46.261L0.232733 45.454C-0.132537 43.3498 -0.248338 40.6508 1.27415 39.7414C2.1975 39.1901 3.36863 39.4594 4.75485 40.5424C7.89357 42.9948 12.431 48.1732 12.814 48.6123C16.5367 52.4073 18.391 56.1211 18.3257 59.6508C18.2718 62.5632 16.9317 65.2807 14.3425 67.7279C12.7354 69.2466 11.3042 69.69 10.1809 69.69ZM2.29487 41.4065C2.277 41.4065 2.26818 41.4082 2.26773 41.4083C2.08702 41.5242 1.71383 42.6241 2.14752 45.1229L2.28729 45.9315C2.85465 49.2186 3.91054 55.3372 5.23716 60.698C6.1751 64.4881 7.82741 67.1557 9.54939 67.6599C10.5819 67.9621 11.745 67.511 13.0062 66.3189C15.2026 64.2431 16.3386 61.9876 16.3824 59.615C16.4378 56.6186 14.7636 53.3668 11.4059 49.9501C11.3921 49.9361 11.3788 49.9215 11.3659 49.9067C11.3187 49.8527 6.61897 44.4625 3.55703 42.0702C2.77017 41.4556 2.39371 41.4065 2.29487 41.4065Z" fill="#58595B"/>
</g>
</g>
<g id="Group_39">
<g id="Group_40">
<path id="Vector_30" d="M30.8556 44.9546C30.8556 44.9546 24.6306 35.9542 21.8469 32.9767C19.0632 29.9992 14.3906 28.3119 12.7005 31.6864C11.0104 35.0609 11.7063 51.7351 13.8935 57.4917C16.0808 63.2483 20.5546 67.639 25.426 64.0045C30.2975 60.37 37.2793 54.9474 30.8556 44.9546Z" fill="white"/>
</g>
<g id="Group_41">
<path id="Vector_31" d="M21.8243 66.2976C21.2659 66.2976 20.7088 66.2182 20.1573 66.0578C17.2652 65.2175 14.651 62.2207 12.985 57.8357C10.7102 51.8488 9.97702 34.9549 11.8313 31.2525C12.4976 29.9222 13.6021 29.1103 15.0254 28.9048C17.6692 28.522 20.7134 30.3424 22.5573 32.3147C25.3575 35.3098 31.3993 44.0334 31.6552 44.4033C31.6614 44.4122 31.6674 44.4212 31.6734 44.4305C34.6771 49.103 35.2053 53.4336 33.2435 57.302C31.5456 60.6498 28.3449 63.0379 26.0078 64.7814C24.6609 65.7863 23.2393 66.2976 21.8243 66.2976ZM15.7568 30.7937C15.6006 30.7937 15.4494 30.8041 15.3037 30.825C14.5164 30.9387 13.9492 31.3624 13.5697 32.1202C12.8727 33.5118 12.569 38.1464 12.8138 43.6527C13.0704 49.4242 13.8323 54.5952 14.8021 57.1475C16.2285 60.9017 18.4334 63.5363 20.7005 64.195C22.06 64.5896 23.4543 64.2644 24.8444 63.2274C30.7546 58.8179 35.5992 54.143 30.0469 45.4923C29.7731 45.0971 23.791 36.4777 21.1368 33.6386C19.5191 31.9085 17.3808 30.7937 15.7568 30.7937Z" fill="#58595B"/>
</g>
</g>
<g id="Group_42">
<g id="Group_43">
<path id="Vector_32" d="M30.1871 54.5754C30.1871 61.5358 52.5716 61.5358 52.5716 54.5754C52.5716 42.5406 48.1084 27.5344 41.3793 27.5344C32.0022 27.5344 30.1871 42.5407 30.1871 54.5754Z" fill="white"/>
</g>
<g id="Group_44">
<path id="Vector_33" d="M41.3795 60.7662C38.3224 60.7662 35.4573 60.2764 33.3121 59.3869C29.9261 57.9831 29.2154 55.9958 29.2154 54.5758C29.2154 46.9733 29.9296 40.8096 31.3383 36.256C33.3276 29.8254 36.7059 26.5647 41.3793 26.5647C43.2826 26.5647 45.0747 27.5313 46.7058 29.4375C48.0973 31.0634 49.3434 33.3401 50.4098 36.2042C52.3719 41.4743 53.5434 48.3421 53.5434 54.5758C53.5434 55.9958 52.8327 57.9832 49.4467 59.3869C47.3016 60.2764 44.4365 60.7662 41.3795 60.7662ZM41.3795 28.505C37.605 28.505 34.928 31.2277 33.1953 36.8287C31.844 41.1966 31.1589 47.1677 31.1589 54.5759C31.1589 57.3365 36.4248 58.8261 41.3795 58.8261C46.3341 58.8261 51.6 57.3365 51.6 54.5759C51.6 48.5608 50.4741 41.9456 48.5882 36.8804C46.6064 31.5578 43.9789 28.505 41.3795 28.505Z" fill="#58595B"/>
</g>
</g>
<g id="Group_45">
<g id="Group_46">
<g id="Group_47">
<path id="Vector_34" d="M111.073 53.9426C111.073 60.9607 81.8226 60.9607 81.8226 53.9426C81.8226 41.8081 84.1942 22.8401 96.448 22.8401C108.702 22.8401 111.073 41.8081 111.073 53.9426Z" fill="white"/>
</g>
</g>
<g id="Group_48">
<g id="Group_49">
<path id="Vector_35" d="M96.4479 60.1765C92.5185 60.1765 88.8423 59.6927 86.0965 58.8144C81.761 57.4274 80.8509 55.3997 80.8509 53.9429C80.8509 48.3517 81.3313 40.2716 83.6199 33.5298C84.8142 30.0112 86.3895 27.2465 88.3016 25.3123C90.5595 23.0282 93.3005 21.8701 96.4479 21.8701C99.5955 21.8701 102.336 23.0282 104.594 25.3121C106.506 27.2462 108.082 30.011 109.276 33.5296C111.565 40.2715 112.045 48.3515 112.045 53.9427C112.045 55.3995 111.135 57.4272 106.799 58.8141C104.053 59.6927 100.377 60.1765 96.4479 60.1765ZM96.4479 23.8102C91.4867 23.8102 87.79 27.2898 85.4604 34.1522C83.1407 40.986 82.7943 49.4847 82.7943 53.9427C82.7943 56.3502 88.7917 58.2361 96.4479 58.2361C104.104 58.2361 110.102 56.3502 110.102 53.9427C110.102 49.4848 109.755 40.9859 107.435 34.1522C105.106 27.2899 101.409 23.8102 96.4479 23.8102Z" fill="#58595B"/>
</g>
</g>
</g>
<g id="Group_50">
<g id="Group_51">
<g id="Group_52">
<path id="Vector_36" d="M52.5717 53.9433C52.5717 60.9614 81.8225 60.9614 81.8225 53.9433C81.8225 41.8088 79.4509 22.8408 67.1971 22.8408C54.9434 22.8408 52.5717 41.8088 52.5717 53.9433Z" fill="white"/>
</g>
</g>
<g id="Group_53">
<g id="Group_54">
<path id="Vector_37" d="M67.1971 60.177C63.2677 60.177 59.5915 59.6932 56.8456 58.8149C52.5101 57.4279 51.6 55.4002 51.6 53.9434C51.6 48.3522 52.0804 40.2721 54.3689 33.5303C55.5633 30.0117 57.1385 27.247 59.0507 25.3128C61.3087 23.0289 64.0496 21.8708 67.197 21.8708C70.3446 21.8708 73.0853 23.0289 75.3433 25.3128C77.2555 27.247 78.8307 30.0117 80.0251 33.5303C82.3137 40.2722 82.7941 48.3522 82.7941 53.9434C82.7941 55.4002 81.8841 57.4279 77.5484 58.8149C74.8028 59.6931 71.1266 60.177 67.1971 60.177ZM67.1971 23.8107C62.2359 23.8107 58.5391 27.2903 56.2096 34.1527C53.8899 40.9864 53.5435 49.4853 53.5435 53.9432C53.5435 56.3507 59.5409 58.2366 67.1971 58.2366C74.8533 58.2366 80.8508 56.3507 80.8508 53.9432C80.8508 49.4853 80.5044 40.9864 78.1847 34.1527C75.8551 27.2904 72.1584 23.8107 67.1971 23.8107Z" fill="#58595B"/>
</g>
</g>
</g>
</g>
</g>
</g>
</g>
</svg>
