<svg width="187" height="118" viewBox="0 0 187 118" fill="none" xmlns="http://www.w3.org/2000/svg">
<g id="Group 17932">
<path id="Vector" d="M88.2552 117.87C57.3364 117.87 35 96.0739 35 64.0294C35 31.9849 57.3364 0.870117 88.2552 0.870117C119.174 0.870117 152 25.2549 152 57.2993C152 89.3438 119.174 117.87 88.2552 117.87Z" fill="white"/>
<g id="Group 18079">
<g id="Group">
<g id="Group_2">
<g id="Group_3">
<path id="Vector_2" d="M161.784 58.8132C161.784 58.8132 169.791 66.2748 169.791 73.1245C169.791 79.9742 170.384 87.6526 169.156 87.6526C167.927 87.6526 156.665 79.4622 152.365 75.3669C148.065 71.272 154.72 50.552 161.784 58.8132Z" fill="url(#paint0_linear_1_1622)"/>
</g>
<g id="Group_4">
<path id="Vector_3" d="M169.156 88.7635C168.769 88.7635 167.862 88.7635 161.258 83.9427C158.157 81.6793 153.991 78.4492 151.6 76.1716C149.024 73.7185 149.663 67.324 151.571 62.553C153.294 58.2461 155.782 55.7756 158.397 55.7756C159.875 55.7756 161.285 56.5387 162.588 58.0442C163.325 58.7411 170.902 66.0773 170.902 73.1244C170.902 74.8787 170.94 76.6785 170.978 78.4189C171.12 85.0043 171.089 87.3918 170.177 88.3241C169.9 88.6075 169.537 88.7635 169.156 88.7635ZM158.397 57.9967C156.787 57.9967 154.961 60.0589 153.634 63.3778C151.834 67.8771 151.599 73.1044 153.131 74.5634C157.031 78.2774 165.97 84.7843 168.674 86.2672C168.895 84.8001 168.82 81.3371 168.758 78.4673C168.72 76.715 168.68 74.9036 168.68 73.1251C168.68 66.844 161.104 59.6974 161.027 59.626C160.997 59.5975 160.968 59.5668 160.94 59.5355C160.067 58.5143 159.212 57.9967 158.397 57.9967Z" fill="#58595B"/>
</g>
</g>
<g id="Group_5">
<g id="Group_6">
<path id="Vector_4" d="M171.817 63.2092C171.817 63.2092 174.377 65.4365 176.629 70.8624C178.882 76.2884 179.496 86.424 178.37 85.8098C177.243 85.1957 170.589 79.9742 166.084 72.7052C161.58 65.4365 157.894 53.304 171.817 63.2092Z" fill="url(#paint1_linear_1_1622)"/>
</g>
<g id="Group_7">
<path id="Vector_5" d="M178.464 86.947C178.249 86.947 178.033 86.8908 177.838 86.7848C176.505 86.0576 169.684 80.6226 165.14 73.2903C162.941 69.7417 159.676 62.9149 161.389 59.838C161.918 58.8885 162.873 58.3655 164.079 58.3655C165.994 58.3655 168.735 59.6539 172.461 62.3043C172.49 62.3257 172.519 62.3479 172.546 62.3715C172.659 62.4694 175.329 64.834 177.655 70.4366C179.583 75.0833 180.721 84.5948 179.557 86.339C179.299 86.7257 178.901 86.947 178.464 86.947ZM164.08 60.5863C163.515 60.5863 163.394 60.8024 163.33 60.9184C162.498 62.4129 164.191 67.5429 167.028 72.1204C170.553 77.8087 175.526 82.2955 177.813 84.0682C177.895 81.41 177.195 75.1205 175.604 71.2879C173.634 66.5433 171.416 64.3548 171.119 64.0751C166.842 61.0411 164.874 60.5863 164.08 60.5863Z" fill="#58595B"/>
</g>
</g>
<g id="Group_8">
<path id="Vector_6" d="M149.609 55.9532C151.269 57.6051 155.552 62.0776 155.552 70.8977C155.552 79.7178 155.552 87.2779 151.966 88.8287C148.379 90.3794 140.726 85.7531 134.523 70.7297C130.165 60.1748 145.439 51.8057 149.609 55.9532Z" fill="url(#paint2_linear_1_1622)"/>
<g id="Group_9">
<path id="Vector_7" d="M150.501 90.5516C146.289 90.5516 139.309 85.5573 133.497 71.4821C131.647 67.0034 133.103 63.3066 134.65 60.9944C137.283 57.0571 142.37 54.0881 146.481 54.0881C148.114 54.0881 149.467 54.5747 150.391 55.4948C151.942 57.0371 156.662 61.7313 156.662 71.2263C156.662 80.7856 156.662 88.336 152.406 90.1759C151.83 90.4256 151.189 90.5516 150.501 90.5516ZM146.481 56.3089C143.519 56.3089 138.975 58.5232 136.496 62.2291C135.25 64.0916 134.074 67.0616 135.549 70.6347C140.57 82.7934 146.819 88.3308 150.501 88.3308C150.884 88.3308 151.229 88.2659 151.525 88.1379C154.441 86.8767 154.441 79.2746 154.441 71.2263C154.441 62.6546 150.214 58.4505 148.826 57.0691C148.194 56.4407 147.202 56.3089 146.481 56.3089Z" fill="#58595B"/>
</g>
</g>
<g id="Group_10">
<g id="Group_11">
<path id="Vector_8" d="M15.5556 63.2092C15.5556 63.2092 12.9963 65.4365 10.7438 70.8624C8.49141 76.2887 7.87725 86.424 9.00347 85.8098C10.1297 85.1957 16.7843 79.9742 21.2891 72.7052C25.7933 65.4365 29.4789 53.304 15.5556 63.2092Z" fill="white"/>
</g>
<g id="Group_12">
<path id="Vector_9" d="M8.90914 86.947C8.9085 86.947 8.90818 86.947 8.90785 86.947C8.47106 86.9467 8.07304 86.7248 7.81523 86.338C6.65186 84.5935 7.78971 75.082 9.71811 70.4366C12.0436 64.8343 14.714 62.4694 14.8265 62.3715C14.8536 62.3479 14.8824 62.3253 14.9118 62.3043C18.6374 59.6539 21.3793 58.3655 23.2934 58.3655C24.4995 58.3655 25.4548 58.8885 25.9836 59.838C27.6966 62.9149 24.4316 69.7414 22.2325 73.2903C17.6882 80.623 10.8679 86.0579 9.53493 86.7848C9.34044 86.8908 9.12399 86.947 8.90914 86.947ZM16.2535 64.0754C15.9669 64.3448 13.7432 66.5323 11.7693 71.2879C10.1785 75.1201 9.47839 81.41 9.56077 84.0682C11.8478 82.2958 16.8195 77.8094 20.3451 72.1204C23.182 67.5429 24.8758 62.4129 24.0436 60.9184C23.979 60.8024 23.8588 60.5863 23.2938 60.5863C22.4993 60.5863 20.5302 61.0411 16.2535 64.0754Z" fill="#58595B"/>
</g>
</g>
<g id="Group_13">
<g id="Group_14">
<path id="Vector_10" d="M25.5885 58.813C25.5885 58.813 17.5819 66.2746 17.5819 73.1243C17.5819 79.974 16.9887 87.6523 18.217 87.6523C19.4457 87.6523 30.7072 79.4619 35.0072 75.3667C39.3076 71.2718 32.6527 50.5518 25.5885 58.813Z" fill="url(#paint3_linear_1_1622)"/>
</g>
<g id="Group_15">
<path id="Vector_11" d="M18.2174 88.7634C17.8359 88.7634 17.4734 88.6074 17.1962 88.3244C16.2838 87.392 16.2525 85.0049 16.3953 78.4198C16.4331 76.6791 16.4719 74.8792 16.4719 73.1247C16.4719 66.0782 24.0485 58.7416 24.7854 58.0445C26.0883 56.539 27.4979 55.7759 28.9765 55.7759C31.5911 55.7759 34.0791 58.2461 35.802 62.5532C37.7107 67.3246 38.3494 73.7191 35.7739 76.1718C33.3819 78.4498 29.2166 81.6798 26.1158 83.9429C19.5113 88.7634 18.6044 88.7634 18.2174 88.7634ZM28.9762 57.9967C28.1614 57.9967 27.3056 58.5145 26.4327 59.5351C26.4056 59.5668 26.3765 59.5971 26.3461 59.6256C26.2696 59.697 18.6926 66.8436 18.6926 73.1247C18.6926 74.9032 18.6532 76.7152 18.6154 78.4679C18.5534 81.3377 18.4781 84.8 18.6984 86.2671C21.4028 84.7842 30.3422 78.2776 34.2419 74.5633C35.7742 73.104 35.5394 67.8771 33.7395 63.378C32.4117 60.0588 30.5867 57.9967 28.9762 57.9967Z" fill="#58595B"/>
</g>
</g>
<g id="Group_16">
<g id="Group_17">
<path id="Vector_12" d="M37.764 56.2821C36.1034 57.9339 31.8212 62.4065 31.8212 71.2266C31.8212 80.0467 31.8212 87.6068 35.4072 89.1575C38.9933 90.7083 46.6465 86.0819 52.8497 71.0586C57.2079 60.5036 41.9339 52.1345 37.764 56.2821Z" fill="url(#paint4_linear_1_1622)"/>
</g>
<g id="Group_18">
<path id="Vector_13" d="M36.8727 90.5518C36.8724 90.5518 36.8727 90.5518 36.8724 90.5518C36.1839 90.5518 35.5429 90.4254 34.9669 90.1763C30.7111 88.3365 30.7111 80.786 30.7111 71.2268C30.7111 61.7311 35.4305 57.0373 36.9812 55.4953C37.9062 54.5748 39.2585 54.0886 40.8923 54.0886C45.003 54.0886 50.0894 57.0576 52.7231 60.9949C54.2699 63.3071 55.726 67.0036 53.8764 71.4826C48.0648 85.5571 41.0842 90.5518 36.8727 90.5518ZM40.892 56.3091C40.1709 56.3091 39.1787 56.4409 38.5471 57.0696C37.1583 58.451 32.9316 62.6548 32.9316 71.2268C32.9316 79.275 32.9316 86.8769 35.8479 88.1384C36.1438 88.266 36.4886 88.3313 36.872 88.3313C40.5537 88.3316 46.8028 82.7939 51.8233 70.6352C53.2985 67.0621 52.1228 64.0921 50.8767 62.2296C48.3982 58.5237 43.8535 56.3091 40.892 56.3091Z" fill="#58595B"/>
</g>
</g>
<g id="Group_19">
<g id="Group_20">
<g id="Group_21">
<path id="Vector_14" d="M114.312 59.1846C114.312 53.3994 93.6865 53.3994 93.6865 59.1846C93.6865 69.1871 95.3587 84.823 103.999 84.823C112.639 84.8227 114.312 69.1871 114.312 59.1846Z" fill="url(#paint5_linear_1_1622)"/>
</g>
</g>
<g id="Group_22">
<g id="Group_23">
<path id="Vector_15" d="M103.999 85.9324C93.6891 85.9324 92.5761 67.2264 92.5761 59.1836C92.5761 55.4192 98.3132 53.7344 103.999 53.7344C109.685 53.7344 115.422 55.4192 115.422 59.1836C115.422 67.2264 114.309 85.9324 103.999 85.9324ZM103.999 55.9551C98.9251 55.9551 94.7972 57.4031 94.7972 59.1836C94.7972 64.9374 95.4608 83.7113 103.999 83.7113C112.538 83.7113 113.201 64.9377 113.201 59.1836C113.201 57.4035 109.073 55.9551 103.999 55.9551Z" fill="#58595B"/>
</g>
</g>
</g>
<g id="Group_24">
<g id="Group_25">
<g id="Group_26">
<path id="Vector_16" d="M135.051 60.5815C135.051 54.4432 114.312 54.4432 114.312 60.5815C114.312 71.195 118.689 87.7852 126.685 87.7852C134.098 87.7852 135.051 71.195 135.051 60.5815Z" fill="url(#paint6_linear_1_1622)"/>
</g>
</g>
<g id="Group_27">
<g id="Group_28">
<path id="Vector_17" d="M126.685 89.2242C122.584 89.2242 119.049 85.6504 116.463 78.8886C114.451 73.6294 113.201 66.7403 113.201 60.9105C113.201 56.9629 118.967 55.196 124.681 55.196C130.395 55.196 136.161 56.9629 136.161 60.9105C136.161 79.9625 133.061 89.2242 126.685 89.2242ZM124.681 57.4168C119.489 57.4168 115.422 58.9514 115.422 60.9105C115.422 71.5495 119.81 87.0034 126.685 87.0034C131.363 87.0034 133.94 77.7369 133.94 60.9105C133.94 58.9514 129.873 57.4168 124.681 57.4168Z" fill="#58595B"/>
</g>
</g>
</g>
<g id="Group_29">
<g id="Group_30">
<g id="Group_31">
<path id="Vector_18" d="M73.0612 59.1846C73.0612 53.3994 93.6865 53.3994 93.6865 59.1846C93.6865 69.1871 92.0143 84.823 83.3738 84.823C74.7337 84.8227 73.0612 69.1871 73.0612 59.1846Z" fill="url(#paint7_linear_1_1622)"/>
</g>
</g>
<g id="Group_32">
<g id="Group_33">
<path id="Vector_19" d="M83.3739 85.9324C73.0638 85.9324 71.9508 67.2264 71.9508 59.1836C71.9508 55.4192 77.6879 53.7344 83.3739 53.7344C89.0599 53.7344 94.7969 55.4192 94.7969 59.1836C94.7969 67.2264 93.6839 85.9324 83.3739 85.9324ZM83.3739 55.9551C78.2997 55.9551 74.1716 57.4031 74.1716 59.1836C74.1716 64.9374 74.8352 83.7113 83.3739 83.7113C91.9126 83.7113 92.5761 64.9377 92.5761 59.1836C92.5761 57.4035 88.448 55.9551 83.3739 55.9551Z" fill="#58595B"/>
</g>
</g>
</g>
<g id="Group_34">
<g id="Group_35">
<g id="Group_36">
<path id="Vector_20" d="M52.3224 60.9101C52.3224 54.7718 73.0611 54.7718 73.0611 60.9101C73.0611 71.5236 68.6845 88.1138 60.6879 88.1138C53.2745 88.1138 52.3224 71.5236 52.3224 60.9101Z" fill="url(#paint8_linear_1_1622)"/>
</g>
</g>
<g id="Group_37">
<g id="Group_38">
<path id="Vector_21" d="M60.688 89.224C54.3119 89.224 51.212 79.9623 51.212 60.91C51.212 56.9624 56.9778 55.1956 62.692 55.1956C68.4061 55.1956 74.1716 56.9624 74.1716 60.91C74.1716 66.7401 72.9219 73.6289 70.9105 78.8881C68.3243 85.6499 64.7896 89.224 60.688 89.224ZM62.692 57.4167C57.4999 57.4167 53.4328 58.9512 53.4328 60.9103C53.4328 77.7367 56.0093 87.0033 60.688 87.0033C67.5632 87.0033 71.9508 71.5493 71.9508 60.9103C71.9508 58.9512 67.8837 57.4167 62.692 57.4167Z" fill="#58595B"/>
</g>
</g>
</g>
</g>
<g id="Group_39">
<g id="Group_40">
<g id="Group_41">
<g id="Group_42">
<path id="Vector_22" d="M173.175 53.0594C173.175 53.0594 178.626 46.7806 182.252 43.9431C185.878 41.1056 186.272 44.8625 185.641 48.5013C185.011 52.14 183.75 59.7066 182.095 66.4064C180.439 73.1062 176.577 78.3053 171.375 73.3804C166.173 68.4556 164.762 61.6346 173.175 53.0594Z" fill="white"/>
</g>
<g id="Group_43">
<path id="Vector_23" d="M175.352 76.4357C173.783 76.4357 172.188 75.6787 170.611 74.1862C167.653 71.3848 166.121 68.2743 166.06 64.9406C165.985 60.9003 168.104 56.6494 172.358 52.3054C172.796 51.8027 177.981 45.8753 181.568 43.0682C182.627 42.2389 183.545 41.8357 184.373 41.8357C185.073 41.8357 185.681 42.119 186.132 42.6547C187.262 43.998 187.084 46.6785 186.735 48.6906L186.575 49.6187C185.922 53.4083 184.706 60.4612 183.172 66.6722C181.639 72.8771 178.789 76.4357 175.352 76.4357ZM184.373 44.0565C184.265 44.0565 183.838 44.1114 182.936 44.8173C179.435 47.5569 174.067 53.7249 174.013 53.787C173.998 53.8041 173.983 53.8206 173.967 53.8367C170.13 57.7478 168.217 61.4699 168.28 64.8996C168.33 67.6153 169.629 70.1969 172.138 72.5734C173.289 73.6625 174.37 74.2149 175.352 74.2149C177.615 74.2149 179.786 71.1206 181.016 66.1395C182.531 60.0057 183.738 53.0035 184.386 49.2414L184.547 48.311C185.042 45.4557 184.618 44.1964 184.406 44.0578C184.406 44.0578 184.395 44.0565 184.373 44.0565Z" fill="#58595B"/>
</g>
</g>
<g id="Group_44">
<g id="Group_45">
<path id="Vector_24" d="M151.741 50.0575C151.741 50.0575 158.855 39.7551 162.036 36.3471C165.217 32.9387 170.557 31.0074 172.488 34.8703C174.419 38.7329 173.624 57.8192 171.124 64.4085C168.625 70.9978 163.513 76.0235 157.946 71.8633C152.379 67.7028 144.401 61.4957 151.741 50.0575Z" fill="white"/>
</g>
<g id="Group_46">
<path id="Vector_25" d="M162.049 74.4904C160.429 74.4904 158.824 73.906 157.281 72.7523C154.61 70.7561 150.953 68.0226 149.013 64.191C146.771 59.763 147.375 54.8058 150.807 49.4578C150.814 49.4474 150.821 49.4368 150.828 49.4264C151.12 49.0029 158.024 39.0178 161.225 35.5894C163.47 33.1829 166.524 31.6279 169.003 31.6279C171.006 31.6279 172.596 32.603 173.481 34.3734C175.6 38.6107 174.762 57.9486 172.163 64.8019C169.862 70.8685 166.081 74.4904 162.049 74.4904ZM152.666 50.6728C146.321 60.5742 151.857 65.9259 158.611 70.9735C159.761 71.8335 160.918 72.2696 162.049 72.2696C165.666 72.2696 168.573 68.0051 170.086 64.0143C172.612 57.3548 173.207 38.7907 171.495 35.3665C170.984 34.3449 170.169 33.8487 169.003 33.8487C167.139 33.8487 164.665 35.1571 162.848 37.1043C159.814 40.3553 152.979 50.2208 152.666 50.6728Z" fill="#58595B"/>
</g>
</g>
<g id="Group_47">
<g id="Group_48">
<path id="Vector_26" d="M152.505 63.0087C152.505 70.9759 126.926 70.9759 126.926 63.0087C126.926 49.2331 132.026 32.0562 139.715 32.0562C150.431 32.0562 152.505 49.2331 152.505 63.0087Z" fill="white"/>
</g>
<g id="Group_49">
<path id="Vector_27" d="M139.716 70.0946C132.797 70.0946 125.816 67.9039 125.816 63.0087C125.816 55.8734 127.154 48.0119 129.397 41.9799C132.08 34.7612 135.648 30.9458 139.716 30.9458C145.056 30.9458 148.917 34.6782 151.19 42.039C152.8 47.2514 153.616 54.3066 153.616 63.0087C153.616 67.9035 146.635 70.0946 139.716 70.0946ZM139.716 33.1669C133.138 33.1669 128.037 49.2085 128.037 63.0087C128.037 66.1687 134.054 67.8738 139.716 67.8738C145.377 67.8738 151.395 66.169 151.395 63.0087C151.395 49.395 149.369 33.1669 139.716 33.1669Z" fill="#58595B"/>
</g>
</g>
<g id="Group_50">
<g id="Group_51">
<path id="Vector_28" d="M13.8259 53.059C13.8259 53.059 8.37413 46.7801 4.74833 43.9426C1.12286 41.1051 0.728715 44.8621 1.35902 48.5008C1.98965 52.1395 3.25059 59.7061 4.90599 66.4059C6.5614 73.1057 10.4234 78.3048 15.6251 73.38C20.8268 68.4551 22.2383 61.6342 13.8259 53.059Z" fill="white"/>
</g>
<g id="Group_52">
<path id="Vector_29" d="M11.6481 76.4358C8.21097 76.4358 5.36086 72.8768 3.82758 66.672C2.29236 60.4568 1.07697 53.4016 0.423727 49.6111L0.264777 48.6903C-0.0838137 46.6782 -0.262148 43.9981 0.868592 42.6544C1.31927 42.1188 1.92729 41.8354 2.62673 41.8354C3.45476 41.8354 4.37259 42.2386 5.43226 43.068C9.01929 45.8748 14.2039 51.8024 14.6417 52.3051C18.8955 56.6491 21.0145 60.9 20.9402 64.9403C20.8788 68.2741 19.3471 71.3846 16.3885 74.1859C14.8119 75.6791 13.2169 76.4358 11.6481 76.4358ZM2.62705 44.0565C2.60121 44.0565 2.59087 44.0598 2.59087 44.0598C2.38411 44.1922 1.95798 45.4512 2.45357 48.3114L2.61284 49.2337C3.26124 52.9968 4.4679 60.0016 5.98438 66.1396C7.21495 71.1206 9.38533 74.215 11.6487 74.215C12.6305 74.215 13.7119 73.6625 14.8623 72.5735C17.3722 70.197 18.6703 67.6154 18.7204 64.8996C18.7837 61.4699 16.8705 57.7475 13.0334 53.8368C13.0176 53.8206 13.0024 53.8038 12.9875 53.7874C12.9336 53.7253 7.56322 47.5554 4.06406 44.8174C3.16173 44.1115 2.73593 44.0565 2.62705 44.0565Z" fill="#58595B"/>
</g>
</g>
<g id="Group_53">
<g id="Group_54">
<path id="Vector_30" d="M35.2589 50.0574C35.2589 50.0574 28.1456 39.7551 24.9644 36.3471C21.7831 32.939 16.4437 31.0074 14.5124 34.87C12.5811 38.7326 13.3762 57.8188 15.8758 64.4082C18.3754 70.9975 23.4876 76.0231 29.0544 71.863C34.6212 67.7028 42.5994 61.4957 35.2589 50.0574Z" fill="white"/>
</g>
<g id="Group_55">
<path id="Vector_31" d="M24.9524 74.4904C24.9521 74.4904 24.9517 74.4904 24.9514 74.4904C20.9195 74.4898 17.1386 70.8678 14.8374 64.8019C12.2383 57.949 11.4003 38.6114 13.5193 34.3734C14.4045 32.603 15.9947 31.6279 17.997 31.6279C20.4766 31.6279 23.5302 33.1825 25.7762 35.5894C28.9762 39.0178 35.8802 49.0032 36.1726 49.4264C36.1797 49.4368 36.1864 49.4471 36.1932 49.4578C39.6255 54.8062 40.2293 59.763 37.9876 64.191C36.0475 68.0226 32.3897 70.7564 29.7189 72.7523C28.176 73.9053 26.5719 74.4904 24.9524 74.4904ZM17.997 33.8487C16.8311 33.8487 16.0163 34.3449 15.5055 35.3665C13.7933 38.791 14.388 57.3548 16.9138 64.0143C18.4274 68.0045 21.3337 72.269 24.9514 72.2696C24.9514 72.2696 24.9517 72.2696 24.9521 72.2696C26.0822 72.2696 27.2387 71.8335 28.3895 70.9735C35.1433 65.9259 40.6794 60.5749 34.3346 50.6731C34.0225 50.2221 27.1861 40.3547 24.1525 37.1043C22.3352 35.1571 19.8615 33.8487 17.997 33.8487Z" fill="#58595B"/>
</g>
</g>
<g id="Group_56">
<g id="Group_57">
<path id="Vector_32" d="M34.4949 63.0087C34.4949 70.9759 60.0741 70.9759 60.0741 63.0087C60.0741 49.2331 54.9739 32.0562 47.2845 32.0562C36.569 32.0562 34.4949 49.2331 34.4949 63.0087Z" fill="white"/>
</g>
<g id="Group_58">
<path id="Vector_33" d="M47.2848 70.0946C40.366 70.0946 33.3848 67.9039 33.3848 63.0087C33.3848 54.3066 34.2008 47.2514 35.8107 42.039C38.0838 34.6782 41.9445 30.9458 47.2848 30.9458C51.3525 30.9458 54.9208 34.7616 57.6039 41.9799C59.8463 48.0119 61.1848 55.8734 61.1848 63.0087C61.1848 67.9035 54.2036 70.0946 47.2848 70.0946ZM47.2848 33.1669C37.6318 33.1669 35.6055 49.395 35.6055 63.0087C35.6055 66.1687 41.623 67.8738 47.2848 67.8738C52.9466 67.8738 58.964 66.169 58.964 63.0087C58.964 49.2085 53.8621 33.1669 47.2848 33.1669Z" fill="#58595B"/>
</g>
</g>
<g id="Group_59">
<g id="Group_60">
<g id="Group_61">
<path id="Vector_34" d="M126.926 65.8381C126.926 73.8715 93.5001 73.8715 93.5001 65.8381C93.5001 51.9484 96.2103 30.2366 110.213 30.2366C124.216 30.2366 126.926 51.9484 126.926 65.8381Z" fill="white"/>
</g>
</g>
<g id="Group_62">
<g id="Group_63">
<path id="Vector_35" d="M110.213 72.9735C101.991 72.9735 92.3897 71.1049 92.3897 65.8382C92.3897 54.7999 94.1265 29.126 110.213 29.126C126.3 29.126 128.036 54.7999 128.036 65.8382C128.036 71.1049 118.435 72.9735 110.213 72.9735ZM110.213 31.3471C104.544 31.3471 100.319 35.3299 97.6573 43.1849C95.0066 51.0074 94.6105 60.7353 94.6105 65.8382C94.6105 68.594 101.464 70.7527 110.213 70.7527C118.962 70.7527 125.815 68.594 125.815 65.8382C125.815 60.7356 125.42 51.0074 122.768 43.1849C120.107 35.3299 115.882 31.3471 110.213 31.3471Z" fill="#58595B"/>
</g>
</g>
</g>
<g id="Group_64">
<g id="Group_65">
<g id="Group_66">
<path id="Vector_36" d="M60.0745 65.8381C60.0745 73.8715 93.5001 73.8715 93.5001 65.8381C93.5001 51.9484 90.7899 30.2366 76.7871 30.2366C62.7844 30.2366 60.0745 51.9484 60.0745 65.8381Z" fill="white"/>
</g>
</g>
<g id="Group_67">
<g id="Group_68">
<path id="Vector_37" d="M76.7874 72.9735C68.5653 72.9735 58.9641 71.1049 58.9641 65.8382C58.9641 54.7999 60.7005 29.126 76.7871 29.126C92.8736 29.126 94.6105 54.7999 94.6105 65.8382C94.6105 71.1049 85.0092 72.9735 76.7874 72.9735ZM76.7871 31.3471C71.1179 31.3471 66.8934 35.3299 64.2314 43.1849C61.5803 51.0074 61.1845 60.7353 61.1845 65.8382C61.1845 68.594 68.0378 70.7527 76.7871 70.7527C85.5361 70.7527 92.3894 68.594 92.3894 65.8382C92.3894 60.7353 91.9936 51.0074 89.3425 43.1849C86.6811 35.3299 82.4566 31.3471 76.7871 31.3471Z" fill="#58595B"/>
</g>
</g>
</g>
</g>
</g>
</g>
</g>
<defs>
<linearGradient id="paint0_linear_1_1622" x1="158.106" y1="69.6187" x2="156.827" y2="79.9027" gradientUnits="userSpaceOnUse">
<stop stop-color="#DBDBDB"/>
<stop offset="1" stop-color="white"/>
</linearGradient>
<linearGradient id="paint1_linear_1_1622" x1="168.359" y1="70.3853" x2="167.305" y2="79.2071" gradientUnits="userSpaceOnUse">
<stop stop-color="#DBDBDB"/>
<stop offset="1" stop-color="white"/>
</linearGradient>
<linearGradient id="paint2_linear_1_1622" x1="141.928" y1="69.0413" x2="140.55" y2="80.4988" gradientUnits="userSpaceOnUse">
<stop stop-color="#DBDBDB"/>
<stop offset="1" stop-color="white"/>
</linearGradient>
<linearGradient id="paint3_linear_1_1622" x1="24" y1="75.3701" x2="23.0931" y2="79.8888" gradientUnits="userSpaceOnUse">
<stop stop-color="#DBDBDB"/>
<stop offset="1" stop-color="white"/>
</linearGradient>
<linearGradient id="paint4_linear_1_1622" x1="40" y1="69.3701" x2="38.6224" y2="80.8277" gradientUnits="userSpaceOnUse">
<stop stop-color="#DBDBDB"/>
<stop offset="1" stop-color="white"/>
</linearGradient>
<linearGradient id="paint5_linear_1_1622" x1="101.424" y1="67.2518" x2="100.305" y2="77.3026" gradientUnits="userSpaceOnUse">
<stop stop-color="#DBDBDB"/>
<stop offset="1" stop-color="white"/>
</linearGradient>
<linearGradient id="paint6_linear_1_1622" x1="122.092" y1="69.1412" x2="120.841" y2="79.7909" gradientUnits="userSpaceOnUse">
<stop stop-color="#DBDBDB"/>
<stop offset="1" stop-color="white"/>
</linearGradient>
<linearGradient id="paint7_linear_1_1622" x1="80.7983" y1="67.2518" x2="79.68" y2="77.3026" gradientUnits="userSpaceOnUse">
<stop stop-color="#DBDBDB"/>
<stop offset="1" stop-color="white"/>
</linearGradient>
<linearGradient id="paint8_linear_1_1622" x1="60.102" y1="69.4698" x2="58.8516" y2="80.1195" gradientUnits="userSpaceOnUse">
<stop stop-color="#DBDBDB"/>
<stop offset="1" stop-color="white"/>
</linearGradient>
</defs>
</svg>
