<svg width="380" height="380" viewBox="0 0 380 380" fill="none" xmlns="http://www.w3.org/2000/svg">
<g id="Group 17783">
<g id="Rectangle 43" filter="url(#filter0_f_1_1031)">
<rect x="80" y="80" width="220" height="220" rx="110" fill="#FA2587"/>
</g>
<path id="Star 6" opacity="0.2" d="M205.237 100.868C211.422 98.4903 218.434 100.369 222.601 105.521C225.562 109.182 230.047 111.273 234.755 111.188C241.38 111.069 247.327 115.233 249.481 121.499C251.011 125.953 254.51 129.451 258.964 130.982C265.23 133.136 269.394 139.083 269.274 145.707C269.19 150.416 271.281 154.9 274.942 157.862C280.094 162.029 281.973 169.041 279.595 175.226C277.905 179.621 278.336 184.55 280.764 188.586C284.179 194.263 283.546 201.495 279.197 206.493C276.106 210.046 274.825 214.825 275.726 219.448C276.994 225.951 273.926 232.53 268.129 235.74C264.009 238.021 261.171 242.074 260.436 246.725C259.403 253.27 254.27 258.403 247.725 259.436C243.074 260.171 239.021 263.009 236.74 267.129C233.53 272.926 226.951 275.994 220.448 274.726C215.826 273.825 211.046 275.105 207.493 278.197C202.495 282.546 195.263 283.179 189.586 279.764C185.551 277.336 180.621 276.905 176.226 278.595C170.041 280.973 163.029 279.094 158.862 273.942C155.9 270.281 151.416 268.19 146.707 268.274C140.083 268.394 134.136 264.23 131.982 257.964C130.451 253.51 126.953 250.011 122.499 248.481C116.233 246.327 112.069 240.38 112.188 233.755C112.273 229.047 110.182 224.562 106.521 221.601C101.369 217.434 99.4903 210.422 101.868 204.237C103.558 199.842 103.127 194.912 100.699 190.877C97.2836 185.199 97.9163 177.968 102.266 172.969C105.357 169.417 106.638 164.637 105.737 160.015C104.469 153.512 107.537 146.932 113.334 143.723C117.454 141.442 120.292 137.389 121.026 132.737C122.059 126.193 127.193 121.059 133.737 120.026C138.389 119.292 142.442 116.454 144.723 112.334C147.932 106.537 154.512 103.469 161.015 104.737C165.637 105.638 170.417 104.357 173.969 101.266C178.968 96.9163 186.199 96.2836 191.877 99.6991C195.912 102.127 200.842 102.558 205.237 100.868Z" fill="#FF276C"/>
<path id="Star 5" d="M181.584 100.529C186.935 96.6366 194.185 96.6366 199.536 100.529C203.339 103.295 208.206 104.153 212.726 102.855C219.086 101.027 225.898 103.507 229.596 108.995C232.223 112.895 236.503 115.366 241.195 115.691C247.796 116.149 253.35 120.81 254.947 127.231C256.082 131.795 259.259 135.58 263.556 137.491C269.602 140.179 273.227 146.458 272.532 153.038C272.038 157.715 273.728 162.359 277.113 165.624C281.875 170.218 283.134 177.357 280.23 183.303C278.167 187.529 278.167 192.471 280.23 196.697C283.134 202.643 281.875 209.782 277.113 214.376C273.728 217.641 272.038 222.285 272.532 226.962C273.227 233.542 269.602 239.821 263.556 242.509C259.259 244.42 256.082 248.205 254.947 252.769C253.35 259.19 247.796 263.851 241.195 264.309C236.503 264.634 232.223 267.105 229.596 271.005C225.898 276.493 219.086 278.973 212.726 277.145C208.206 275.847 203.339 276.705 199.536 279.471C194.185 283.363 186.935 283.363 181.584 279.471C177.78 276.705 172.914 275.847 168.394 277.145C162.034 278.973 155.221 276.493 151.524 271.005C148.896 267.105 144.617 264.634 139.925 264.309C133.324 263.851 127.77 259.19 126.173 252.769C125.037 248.205 121.861 244.42 117.564 242.509C111.517 239.821 107.892 233.542 108.587 226.962C109.082 222.285 107.391 217.641 104.007 214.376C99.2443 209.782 97.9854 202.643 100.889 196.697C102.953 192.471 102.953 187.529 100.889 183.303C97.9854 177.357 99.2443 170.218 104.007 165.624C107.391 162.359 109.082 157.715 108.587 153.038C107.892 146.458 111.517 140.179 117.564 137.491C121.861 135.58 125.037 131.795 126.173 127.231C127.77 120.81 133.324 116.149 139.925 115.691C144.617 115.366 148.896 112.895 151.524 108.995C155.221 103.507 162.034 101.027 168.394 102.855C172.914 104.153 177.78 103.295 181.584 100.529Z" fill="url(#paint0_linear_1_1031)"/>
</g>
<defs>
<filter id="filter0_f_1_1031" x="0" y="0" width="380" height="380" filterUnits="userSpaceOnUse" color-interpolation-filters="sRGB">
<feFlood flood-opacity="0" result="BackgroundImageFix"/>
<feBlend mode="normal" in="SourceGraphic" in2="BackgroundImageFix" result="shape"/>
<feGaussianBlur stdDeviation="40" result="effect1_foregroundBlur_1_1031"/>
</filter>
<linearGradient id="paint0_linear_1_1031" x1="131.077" y1="118.282" x2="234.419" y2="213.341" gradientUnits="userSpaceOnUse">
<stop stop-color="#FF276C" stop-opacity="0.23"/>
<stop offset="1" stop-color="#9904F4" stop-opacity="0.31"/>
</linearGradient>
</defs>
</svg>
