<svg width="52" height="6" viewBox="0 0 52 6" fill="none" xmlns="http://www.w3.org/2000/svg">
<g id="Group 18070">
<path id="Vector" d="M6.4 5.87012C9.714 5.87012 12 4.80152 12 3.4321C12 2.06268 8.414 0.870117 5.1 0.870117C1.786 0.870117 0 2.06268 0 3.4321C0 4.80152 3.086 5.87012 6.4 5.87012Z" fill="white" fill-opacity="0.2"/>
<path id="Vector_2" d="M25.6 0.870117C22.286 0.870117 20 1.93871 20 3.30813C20 4.67756 23.586 5.87012 26.9 5.87012C30.214 5.87012 32 4.67756 32 3.30813C32 1.93871 28.914 0.870117 25.6 0.870117Z" fill="white"/>
<path id="Vector_3" d="M46.4 0.870117C49.714 0.870117 52 1.93871 52 3.30813C52 4.67756 48.414 5.87012 45.1 5.87012C41.786 5.87012 40 4.67756 40 3.30813C40 1.93871 43.086 0.870117 46.4 0.870117Z" fill="white" fill-opacity="0.2"/>
</g>
</svg>
