<svg width="180" height="118" viewBox="0 0 180 118" fill="none" xmlns="http://www.w3.org/2000/svg">
<g id="Group 17932">
<path id="Vector" d="M84.2552 117.87C53.3364 117.87 31 96.0739 31 64.0294C31 31.9849 53.3364 0.870117 84.2552 0.870117C115.174 0.870117 148 25.2549 148 57.2993C148 89.3438 115.174 117.87 84.2552 117.87Z" fill="white"/>
<g id="Group 18078">
<g id="Group">
<path id="Vector_2" d="M171.293 70.3941C171.293 70.3941 173.959 72.7137 176.305 78.3647C178.65 84.016 179.29 94.5717 178.117 93.9321C176.944 93.2925 170.014 87.8544 165.322 80.2839C160.631 72.7134 156.792 60.0776 171.293 70.3941Z" fill="white"/>
</g>
<g id="Group_2">
<path id="Vector_3" d="M178.215 95.116C177.992 95.116 177.766 95.0575 177.563 94.9471C176.175 94.1897 169.071 88.5293 164.339 80.8928C162.048 77.197 158.648 70.0871 160.432 66.8826C160.983 65.8937 161.978 65.3486 163.234 65.3486C165.228 65.3486 168.083 66.6905 171.963 69.4509C171.994 69.4727 172.024 69.4963 172.052 69.5208C172.169 69.6228 174.951 72.0854 177.372 77.9205C179.381 82.7599 180.566 92.6659 179.354 94.4825C179.085 94.8855 178.67 95.116 178.215 95.116ZM163.234 67.6622C162.646 67.6622 162.521 67.8873 162.453 68.0081C161.587 69.5646 163.351 74.9074 166.305 79.6748C169.977 85.5987 175.155 90.2719 177.537 92.1178C177.623 89.3493 176.893 82.7989 175.237 78.8074C173.185 73.866 170.875 71.5868 170.565 71.2954C166.112 68.1356 164.061 67.6622 163.234 67.6622Z" fill="#58595B"/>
</g>
<g id="Group_3">
<path id="Vector_4" d="M160.844 65.8158C160.844 65.8158 169.183 73.5868 169.183 80.7206C169.183 87.8545 169.801 95.8513 168.521 95.8513C167.241 95.8513 155.513 87.3212 151.034 83.0564C146.556 78.7917 153.487 57.2119 160.844 65.8158Z" fill="white"/>
</g>
<g id="Group_4">
<path id="Vector_5" d="M168.521 97.007C168.118 97.007 167.173 97.007 160.296 91.9862C157.066 89.6289 152.728 86.2649 150.237 83.8928C147.554 81.338 148.22 74.6783 150.207 69.7093C152.002 65.2239 154.592 62.6509 157.316 62.6509C158.855 62.6509 160.323 63.4456 161.68 65.0136C162.448 65.7393 170.339 73.3799 170.339 80.7192C170.339 82.5463 170.38 84.4207 170.419 86.2333C170.567 93.0919 170.535 95.5787 169.584 96.5494C169.296 96.8445 168.918 97.007 168.521 97.007ZM157.316 64.9641C155.639 64.9641 153.738 67.1118 152.355 70.5683C150.48 75.2543 150.236 80.6981 151.832 82.2179C155.893 86.0859 165.203 92.8627 168.02 94.4071C168.249 92.8792 168.171 89.2726 168.106 86.2838C168.067 84.4588 168.026 82.5722 168.026 80.7199C168.026 74.1783 160.135 66.7353 160.055 66.6609C160.023 66.6313 159.993 66.5993 159.965 66.5667C159.056 65.5035 158.164 64.9641 157.316 64.9641Z" fill="#58595B"/>
</g>
<g id="Group_5">
<path id="Vector_6" d="M148.164 63.1791C149.893 64.8994 154.353 69.5575 154.353 78.7434C154.353 87.9294 154.353 95.8027 150.618 97.4181C146.883 99.0332 138.913 94.215 132.452 78.5685C127.913 67.5757 143.821 58.8595 148.164 63.1791Z" fill="white"/>
</g>
<g id="Group_6">
<path id="Vector_7" d="M149.093 98.8704C144.706 98.8704 137.436 93.6689 131.383 79.01C129.457 74.3455 130.973 70.4953 132.584 68.0872C135.327 63.9867 140.625 60.8945 144.906 60.8945C146.607 60.8945 148.015 61.4013 148.979 62.3595C150.594 63.9658 155.509 68.8547 155.509 78.7435C155.509 88.6993 155.509 96.5629 151.077 98.4791C150.477 98.7388 149.809 98.8704 149.093 98.8704ZM144.906 63.2071C141.821 63.2071 137.088 65.5136 134.507 69.3729C133.209 71.3126 131.984 74.4058 133.521 78.1271C138.749 90.7901 145.258 96.5572 149.092 96.5572C149.492 96.5572 149.851 96.4896 150.159 96.3563C153.196 95.0427 153.196 87.1256 153.196 78.7432C153.196 69.816 148.794 65.4375 147.348 63.9988C146.69 63.3447 145.657 63.2071 144.906 63.2071Z" fill="#58595B"/>
</g>
<g id="Group_7">
<path id="Vector_8" d="M8.54992 70.3931C8.54992 70.3931 5.88441 72.7127 3.53855 78.3637C1.19269 84.015 0.553064 94.5707 1.72599 93.9311C2.89892 93.2915 9.82951 87.8535 14.5212 80.2829C19.2123 72.7124 23.051 60.0766 8.54992 70.3931Z" fill="white"/>
</g>
<g id="Group_8">
<path id="Vector_9" d="M1.62806 95.1157C1.62772 95.1157 1.62705 95.1157 1.62671 95.1157C1.1718 95.1153 0.757274 94.8839 0.488772 94.4814C-0.723189 92.6645 0.462191 82.7585 2.47057 77.9205C4.89247 72.0857 7.67373 69.6228 7.79082 69.5208C7.81908 69.4963 7.84903 69.4727 7.87964 69.4509C11.7598 66.6905 14.6154 65.3486 16.609 65.3486C17.865 65.3486 18.86 65.8934 19.4108 66.8826C21.1947 70.0868 17.7944 77.1967 15.504 80.8928C10.7713 88.5296 3.66807 94.1901 2.27979 94.9471C2.0769 95.0575 1.85147 95.1157 1.62806 95.1157ZM9.277 71.2954C8.97855 71.576 6.66264 73.8542 4.60681 78.807C2.95004 82.7982 2.22091 89.3489 2.30671 92.1174C4.68857 90.2715 9.86649 85.599 13.5384 79.6745C16.4929 74.907 18.257 69.5642 17.3903 68.0077C17.323 67.887 17.1978 67.6619 16.6093 67.6619C15.7816 67.6619 13.7308 68.1353 9.277 71.2954Z" fill="#58595B"/>
</g>
<g id="Group_9">
<path id="Vector_10" d="M18.9993 65.8158C18.9993 65.8158 10.6606 73.5869 10.6606 80.7207C10.6606 87.8545 10.0428 95.8514 11.3221 95.8514C12.6017 95.8514 24.3303 87.3212 28.8087 83.0565C33.2871 78.791 26.3562 57.212 18.9993 65.8158Z" fill="white"/>
</g>
<g id="Group_10">
<path id="Vector_11" d="M11.322 97.0072C10.9247 97.0072 10.5472 96.8447 10.2585 96.5499C9.30828 95.5789 9.27564 93.0927 9.42436 86.2345C9.46372 84.4216 9.5041 82.5471 9.5041 80.7197C9.5041 73.381 17.395 65.7402 18.1625 65.0141C19.5194 63.4461 20.9874 62.6514 22.5275 62.6514C25.2505 62.6514 27.8413 65.224 29.6357 69.7098C31.6236 74.6788 32.2888 81.3385 29.6064 83.8933C27.1152 86.2658 22.7771 89.6298 19.5477 91.9867C12.6696 97.0072 11.7251 97.0072 11.322 97.0072ZM22.5271 64.9643C21.6786 64.9643 20.7872 65.5033 19.8778 66.5665C19.8498 66.5995 19.8192 66.6311 19.7876 66.6607C19.7079 66.7351 11.8167 74.1781 11.8167 80.7197C11.8167 82.572 11.7756 84.4593 11.7362 86.2846C11.6716 89.2734 11.5932 92.8794 11.8227 94.4073C14.6393 92.8629 23.9494 86.0864 28.0109 82.218C29.6068 80.6982 29.3622 75.2545 27.4877 70.5688C26.1055 67.1119 24.2044 64.9643 22.5271 64.9643Z" fill="#58595B"/>
</g>
<g id="Group_11">
<path id="Vector_12" d="M31.6797 63.1781C29.9502 64.8985 25.4904 69.5565 25.4904 78.7425C25.4904 87.9284 25.4904 95.8018 29.2252 97.4172C32.96 99.0322 40.9309 94.214 47.3911 78.5675C51.9301 67.5747 36.0222 58.8585 31.6797 63.1781Z" fill="white"/>
</g>
<g id="Group_12">
<path id="Vector_13" d="M30.7511 98.8701C30.7508 98.8701 30.7508 98.8701 30.7508 98.8701C30.0338 98.8701 29.3662 98.7385 28.7663 98.4791C24.334 96.5629 24.334 88.6993 24.334 78.7435C24.334 68.854 29.2491 63.9655 30.8642 62.3595C31.8275 61.4009 33.2359 60.8945 34.9375 60.8945C39.2187 60.8945 44.5161 63.9867 47.2589 68.0872C48.87 70.4953 50.3861 74.3452 48.4601 79.01C42.4074 93.6683 35.1373 98.8701 30.7511 98.8701ZM34.9375 63.2067C34.1865 63.2067 33.1532 63.344 32.4954 63.9988C31.0489 65.4375 26.6469 69.8157 26.6469 78.7432C26.6469 87.1253 26.6469 95.0424 29.6842 96.3563C29.9924 96.4896 30.3514 96.5572 30.7508 96.5572C34.5852 96.5575 41.0935 90.7901 46.3222 78.1271C47.8585 74.4058 46.6341 71.3126 45.3364 69.3729C42.7546 65.5132 38.0215 63.2067 34.9375 63.2067Z" fill="#58595B"/>
</g>
<g id="Group_13">
<g id="Group_14">
<path id="Vector_14" d="M111.402 66.2005C111.402 60.1754 89.9215 60.1754 89.9215 66.2005C89.9215 76.6182 91.6631 92.9023 100.662 92.9023C109.66 92.9023 111.402 76.6179 111.402 66.2005Z" fill="white"/>
</g>
</g>
<g id="Group_15">
<g id="Group_16">
<path id="Vector_15" d="M100.662 94.0589C89.9241 94.0589 88.765 74.577 88.765 66.2006C88.765 62.2801 94.74 60.5254 100.662 60.5254C106.584 60.5254 112.559 62.2801 112.559 66.2006C112.559 74.5767 111.4 94.0589 100.662 94.0589ZM100.662 62.8383C95.3773 62.8383 91.0782 64.3463 91.0782 66.2006C91.0782 72.1935 91.7693 91.7457 100.662 91.7457C109.555 91.7457 110.246 72.1935 110.246 66.2006C110.246 64.3463 105.946 62.8383 100.662 62.8383Z" fill="#58595B"/>
</g>
</g>
<g id="Group_17">
<g id="Group_18">
<path id="Vector_16" d="M133.001 67.9978C133.001 61.6049 111.402 61.6049 111.402 67.9978C111.402 79.0515 115.96 96.3298 124.289 96.3298C132.01 96.3298 133.001 79.0515 133.001 67.9978Z" fill="white"/>
</g>
</g>
<g id="Group_19">
<g id="Group_20">
<path id="Vector_17" d="M124.289 97.4865C120.017 97.4865 116.336 93.7644 113.642 86.7221C111.547 81.2448 110.246 74.0699 110.246 67.9983C110.246 63.887 116.251 62.0469 122.202 62.0469C128.152 62.0469 134.157 63.887 134.157 67.9983C134.158 87.8406 130.929 97.4865 124.289 97.4865ZM122.202 64.3598C116.795 64.3598 112.559 65.958 112.559 67.998C112.559 79.0782 117.128 95.1732 124.289 95.1732C129.161 95.1732 131.845 85.5223 131.845 67.998C131.845 65.958 127.609 64.3598 122.202 64.3598Z" fill="#58595B"/>
</g>
</g>
<g id="Group_21">
<g id="Group_22">
<path id="Vector_18" d="M68.4409 66.2005C68.4409 60.1754 89.9218 60.1754 89.9218 66.2005C89.9218 76.6182 88.1802 92.9023 79.1813 92.9023C70.1825 92.9023 68.4409 76.6179 68.4409 66.2005Z" fill="white"/>
</g>
</g>
<g id="Group_23">
<g id="Group_24">
<path id="Vector_19" d="M79.181 94.0589C68.4433 94.0589 67.2842 74.577 67.2842 66.2006C67.2842 62.2801 73.2592 60.5254 79.181 60.5254C85.1029 60.5254 91.0779 62.2801 91.0779 66.2006C91.0782 74.5767 89.9188 94.0589 79.181 94.0589ZM79.181 62.8383C73.8965 62.8383 69.5971 64.3463 69.5971 66.2006C69.5971 72.1935 70.2882 91.7457 79.181 91.7457C88.0739 91.7457 88.765 72.1935 88.765 66.2006C88.765 64.3463 84.4656 62.8383 79.181 62.8383Z" fill="#58595B"/>
</g>
</g>
<g id="Group_25">
<g id="Group_26">
<path id="Vector_20" d="M46.8418 67.9978C46.8418 61.6049 68.4407 61.6049 68.4407 67.9978C68.4407 79.0515 63.8826 96.3298 55.5543 96.3298C47.8337 96.3298 46.8418 79.0515 46.8418 67.9978Z" fill="url(#paint0_linear_1_1838)"/>
</g>
</g>
<g id="Group_27">
<g id="Group_28">
<path id="Vector_21" d="M55.5543 97.4868C48.9137 97.4868 45.6853 87.8409 45.6853 67.9983C45.6853 63.887 51.6903 62.0469 57.6414 62.0469C63.5922 62.0469 69.5971 63.887 69.5971 67.9983C69.5971 74.0703 68.2957 81.2448 66.2008 86.7221C63.5074 93.7648 59.8261 97.4868 55.5543 97.4868ZM57.6414 64.3601C52.234 64.3601 47.9982 65.9583 47.9982 67.9983C47.9982 85.5226 50.6815 95.1736 55.5543 95.1736C62.7147 95.1736 67.2842 79.0786 67.2842 67.9983C67.2842 65.9583 63.0488 64.3601 57.6414 64.3601Z" fill="#58595B"/>
</g>
</g>
<g id="Group_29">
<path id="Vector_22" d="M148.465 50.774C148.465 50.774 149.887 38.1928 151.108 33.6081C152.329 29.023 156.232 24.6187 159.873 26.9871C163.514 29.3555 172.12 46.3391 173.072 53.3386C174.024 60.3382 171.841 67.3145 164.754 66.5443C157.668 65.7742 147.393 64.4582 148.465 50.774Z" fill="url(#paint1_linear_1_1838)"/>
</g>
<g id="Group_30">
<path id="Vector_23" d="M164.586 67.6565C161.187 67.2871 156.53 66.781 152.897 64.4439C148.698 61.7431 146.823 57.1294 147.324 50.7308C147.325 50.7184 147.326 50.7056 147.328 50.6931C147.386 50.176 148.772 37.9773 150.001 33.365C150.863 30.1278 152.875 27.2177 155.125 25.9512C156.943 24.9284 158.863 24.963 160.531 26.0488C164.526 28.6474 173.217 45.8709 174.207 53.1507C175.083 59.5947 173.422 64.6714 169.763 66.7312C169.762 66.7312 169.762 66.7316 169.762 66.7316C168.292 67.5586 166.55 67.8699 164.586 67.6565ZM152.215 33.8515C151.05 38.2239 149.668 50.286 149.605 50.8371C148.686 62.6775 156.326 64.4978 164.923 65.4325C166.388 65.5916 167.651 65.3797 168.676 64.8026L168.677 64.8023C171.96 62.954 172.514 57.766 171.937 53.5269C170.975 46.4526 162.442 30.0255 159.214 27.9256C158.251 27.2991 157.269 27.2843 156.21 27.8799C154.519 28.8321 152.913 31.2318 152.215 33.8515Z" fill="#58595B"/>
</g>
<g id="Group_31">
<path id="Vector_24" d="M151.18 58.6256C151.18 66.9232 124.539 66.9232 124.539 58.6256C124.539 44.2785 129.851 26.3892 137.86 26.3892C149.02 26.3892 151.18 44.2785 151.18 58.6256Z" fill="url(#paint2_linear_1_1838)"/>
</g>
<g id="Group_32">
<path id="Vector_25" d="M137.86 66.0055C130.654 66.0055 123.383 63.7239 123.383 58.6258C123.383 51.1945 124.778 43.0069 127.113 36.7247C129.907 29.2066 133.623 25.2329 137.86 25.2329C143.422 25.2329 147.443 29.1201 149.81 36.7862C151.487 42.2148 152.337 49.5626 152.337 58.6258C152.336 63.7239 145.066 66.0055 137.86 66.0055ZM137.86 27.5461C131.01 27.5461 125.697 44.2532 125.697 58.6258C125.697 61.9168 131.963 63.6926 137.86 63.6926C143.756 63.6926 150.023 61.9171 150.023 58.6258C150.023 44.4473 147.913 27.5461 137.86 27.5461Z" fill="#58595B"/>
</g>
<g id="Group_33">
<path id="Vector_26" d="M32.4136 50.7743C32.4136 50.7743 30.9923 38.1931 29.7709 33.6084C28.5496 29.0236 24.6472 24.6186 21.0063 26.987C17.3653 29.3554 8.7588 46.339 7.8066 53.3386C6.85439 60.3381 9.03841 67.3145 16.1244 66.5443C23.2105 65.7744 33.4856 64.4585 32.4136 50.7743Z" fill="url(#paint3_linear_1_1838)"/>
</g>
<g id="Group_34">
<path id="Vector_27" d="M11.1171 66.7314C11.1167 66.7314 11.1164 66.7311 11.1161 66.7311C7.45664 64.6712 5.7955 59.5943 6.67166 53.1506C7.66189 45.8711 16.3529 28.6472 20.3474 26.0487C22.0163 24.9629 23.9359 24.9286 25.7535 25.9511C28.0041 27.2176 30.0159 30.1277 30.8779 33.3649C32.1067 37.9772 33.4929 50.1758 33.5511 50.693C33.5525 50.7058 33.5538 50.7182 33.5548 50.7307C34.0562 57.129 32.1814 61.7426 27.9822 64.4438C24.3484 66.7809 19.6927 67.287 16.293 67.6564C14.329 67.8697 12.5871 67.5585 11.1171 66.7314ZM24.668 27.8797C23.6098 27.2842 22.6277 27.299 21.6647 27.9255C18.437 30.0254 9.90344 46.4525 8.94114 53.5267C8.36477 57.7656 8.91826 62.9539 12.2015 64.8021C12.2015 64.8021 12.2019 64.8025 12.2022 64.8025C13.2278 65.3795 14.4905 65.5915 15.9555 65.4323C24.5526 64.4976 32.1925 62.6777 31.2732 50.837C31.2103 50.2855 29.8281 38.2235 28.6636 33.8514C27.9661 31.2316 26.3601 28.8319 24.668 27.8797Z" fill="#58595B"/>
</g>
<g id="Group_35">
<path id="Vector_28" d="M28.275 58.6256C28.275 66.9232 54.9153 66.9232 54.9153 58.6256C54.9153 44.2785 49.6034 26.3892 41.5951 26.3892C30.4348 26.3892 28.275 44.2785 28.275 58.6256Z" fill="url(#paint4_linear_1_1838)"/>
</g>
<g id="Group_36">
<path id="Vector_29" d="M41.5952 66.0055C34.3894 66.0055 27.1187 63.7239 27.1187 58.6258C27.1187 49.563 27.9686 42.2148 29.6452 36.7862C32.0126 29.1201 36.0334 25.2329 41.5952 25.2329C45.8317 25.2329 49.548 29.2066 52.3424 36.7247C54.6775 43.0069 56.0718 51.1945 56.0718 58.6258C56.0718 63.7239 48.801 66.0055 41.5952 66.0055ZM41.5952 27.5461C31.5419 27.5461 29.4315 44.4473 29.4315 58.6258C29.4315 61.9168 35.6986 63.6926 41.5952 63.6926C47.4918 63.6926 53.7589 61.9171 53.7589 58.6258C53.7589 44.2532 48.4454 27.5461 41.5952 27.5461Z" fill="#58595B"/>
</g>
<g id="Group_37">
<g id="Group_38">
<path id="Vector_30" d="M124.54 61.5733C124.54 69.9399 89.7277 69.9399 89.7277 61.5733C89.7277 47.1075 92.5503 24.4951 107.134 24.4951C121.717 24.4951 124.54 47.1072 124.54 61.5733Z" fill="white"/>
</g>
</g>
<g id="Group_39">
<g id="Group_40">
<path id="Vector_31" d="M107.134 69.0041C98.5704 69.0041 88.5709 67.058 88.5709 61.5729C88.5709 50.0767 90.3798 23.3379 107.134 23.3379C123.887 23.3379 125.696 50.0767 125.696 61.5729C125.696 67.058 115.697 69.0041 107.134 69.0041ZM107.134 25.6511C101.229 25.6511 96.8295 29.7991 94.057 37.98C91.2963 46.1269 90.8838 56.2583 90.8838 61.5729C90.8838 64.4429 98.0217 66.6912 107.134 66.6912C116.245 66.6912 123.383 64.4429 123.383 61.5729C123.383 56.2587 122.971 46.1269 120.21 37.98C117.438 29.7991 113.038 25.6511 107.134 25.6511Z" fill="#58595B"/>
</g>
</g>
<g id="Group_41">
<g id="Group_42">
<path id="Vector_32" d="M54.9153 61.5733C54.9153 69.9399 89.7274 69.9399 89.7274 61.5733C89.7274 47.1075 86.9047 24.4951 72.3212 24.4951C57.7376 24.4951 54.9153 47.1072 54.9153 61.5733Z" fill="white"/>
</g>
</g>
<g id="Group_43">
<g id="Group_44">
<path id="Vector_33" d="M72.3214 69.0041C63.7583 69.0041 53.7588 67.058 53.7588 61.5729C53.7588 50.0767 55.5676 23.3379 72.3214 23.3379C89.0752 23.3379 90.8841 50.0767 90.8841 61.5729C90.8841 67.058 80.8842 69.0041 72.3214 69.0041ZM72.3214 25.6511C66.4171 25.6511 62.0174 29.7991 59.2449 37.98C56.4838 46.1269 56.0717 56.2583 56.0717 61.5729C56.0717 64.4429 63.2092 66.6912 72.3214 66.6912C81.4333 66.6912 88.5709 64.4429 88.5709 61.5729C88.5709 56.2583 88.1587 46.1269 85.3976 37.98C82.6255 29.7991 78.2258 25.6511 72.3214 25.6511Z" fill="#58595B"/>
</g>
</g>
<path id="Vector_34" d="M35.9957 20.1901C30.4153 22.8963 20.867 28.2492 20.5841 36.3086C20.3014 44.3677 21.4323 48.8922 26.0984 50.1648C30.7646 51.4373 42.217 37.5812 42.217 29.3804C42.217 21.1797 38.5569 18.9482 35.9957 20.1901Z" fill="url(#paint5_linear_1_1838)" stroke="#59585B" stroke-width="2.5" stroke-miterlimit="10" stroke-linejoin="round"/>
<path id="Vector_35" d="M142.629 20.1901C148.21 22.8963 157.758 28.2492 158.041 36.3086C158.324 44.3677 157.193 48.8922 152.527 50.1648C147.861 51.4373 136.408 37.5812 136.408 29.3804C136.408 21.1797 140.068 18.9482 142.629 20.1901Z" fill="url(#paint6_linear_1_1838)" stroke="#59585B" stroke-width="2.5" stroke-miterlimit="10" stroke-linejoin="round"/>
</g>
</g>
<defs>
<linearGradient id="paint0_linear_1_1838" x1="54.9441" y1="76.9126" x2="53.6419" y2="88.0039" gradientUnits="userSpaceOnUse">
<stop stop-color="#FAFAFA"/>
<stop offset="1" stop-color="white"/>
</linearGradient>
<linearGradient id="paint1_linear_1_1838" x1="156.5" y1="50.3696" x2="159.71" y2="58.2846" gradientUnits="userSpaceOnUse">
<stop stop-color="#E0E0E0"/>
<stop offset="1" stop-color="white"/>
</linearGradient>
<linearGradient id="paint2_linear_1_1838" x1="142.094" y1="50.3037" x2="134.918" y2="56.5348" gradientUnits="userSpaceOnUse">
<stop stop-color="#EEEEEE"/>
<stop offset="1" stop-color="white"/>
</linearGradient>
<linearGradient id="paint3_linear_1_1838" x1="24" y1="51.3701" x2="16.6509" y2="57.0649" gradientUnits="userSpaceOnUse">
<stop stop-color="#E0E0E0"/>
<stop offset="1" stop-color="white"/>
</linearGradient>
<linearGradient id="paint4_linear_1_1838" x1="38.5" y1="47.8701" x2="44" y2="56.8701" gradientUnits="userSpaceOnUse">
<stop stop-color="#EEEEEE"/>
<stop offset="1" stop-color="white"/>
</linearGradient>
<linearGradient id="paint5_linear_1_1838" x1="31" y1="45.8701" x2="25.5861" y2="31.2649" gradientUnits="userSpaceOnUse">
<stop stop-color="#F1F1F1"/>
<stop offset="1" stop-color="white"/>
</linearGradient>
<linearGradient id="paint6_linear_1_1838" x1="146.864" y1="45.8701" x2="141.451" y2="31.2649" gradientUnits="userSpaceOnUse">
<stop stop-color="#F1F1F1"/>
<stop offset="1" stop-color="white"/>
</linearGradient>
</defs>
</svg>
