<svg width="71" height="70" viewBox="0 0 71 70" fill="none" xmlns="http://www.w3.org/2000/svg">
<g id="Group 103">
<g id="Mask group">
<ellipse id="Ellipse" cx="35.5899" cy="35.0223" rx="31.4461" ry="31.4271" fill="#26325E"/>
</g>
<ellipse id="Ellipse_2" cx="35.6107" cy="35" rx="35.0211" ry="35" fill="url(#paint0_radial_12_44)"/>
<g id="Group">
<g id="Group_2">
<path id="Vector" d="M25.9415 42.6147C25.6201 41.7726 25.4939 40.9646 25.5377 40.1368C25.6229 38.5296 26.0072 37.0044 26.8902 35.6402C27.8688 34.1279 29.2566 33.177 31.0124 32.7858C31.5097 32.675 32.028 32.5982 32.5351 32.6065C33.2219 32.618 33.8261 32.8742 34.1958 33.5104C34.4709 33.9841 34.5464 34.5027 34.4968 35.0372C34.3413 36.7137 33.3244 37.8337 32.043 38.7707C31.4108 39.233 30.7084 39.5707 29.9636 39.8089C29.7577 39.8747 29.6493 39.9676 29.6835 40.1764C29.7353 40.4924 29.7673 40.8194 29.8773 41.1159C29.9895 41.4182 30.2305 41.5818 30.594 41.5928C31.3086 41.6141 31.9516 41.3979 32.5801 41.0987C33.5662 40.6297 34.2636 39.8417 34.9048 38.9932C35.1313 38.6934 35.1014 38.3237 35.1382 37.9807C35.2664 36.7865 35.3722 35.59 35.4855 34.3943C35.5506 33.7086 35.627 33.0238 35.6703 32.3367C35.6858 32.0913 35.7576 31.9598 36.0046 31.9101C37.1542 31.6791 38.3018 31.4386 39.4508 31.2045C39.5193 31.1906 39.5931 31.2027 39.7195 31.2027C39.696 31.5092 39.6787 31.7942 39.6515 32.0784C39.5999 32.6178 39.5431 33.1567 39.4876 33.6957C39.3409 35.1235 39.1899 36.5508 39.0494 37.9791C39.0122 38.3583 38.9943 38.7405 38.9905 39.1215C38.9863 39.5283 39.1855 39.6549 39.5933 39.5521C40.3489 39.3615 40.821 38.8315 41.2055 38.2065C41.7014 37.4003 42.0454 36.5284 42.2172 35.5976C42.3472 34.8927 42.4447 34.1814 42.5455 33.4715C42.5697 33.3014 42.5492 33.1249 42.5492 32.9124C42.3939 32.9286 42.2756 32.9168 42.1763 32.955C41.3613 33.2682 40.4937 32.268 40.7423 31.4001C40.8824 30.9112 41.2199 30.6022 41.6729 30.4125C42.1092 30.2299 42.5608 30.1074 43.0402 30.2097C43.8047 30.3729 44.1624 30.923 44.315 31.6238C44.6399 33.1143 44.5137 34.5949 44.1841 36.0713C43.8869 37.4029 43.3981 38.6448 42.5867 39.7521C41.51 41.2212 40.0783 42.0932 38.278 42.3926C37.6641 42.4945 37.0771 42.4544 36.4979 42.2664C35.958 42.0912 35.5707 41.7218 35.3077 41.2214C35.261 41.1322 35.2151 41.0428 35.1471 40.912C34.9908 41.0824 34.8487 41.2226 34.7233 41.3765C34.0159 42.2458 33.1094 42.8486 32.149 43.4085C30.7046 44.2506 29.108 44.5908 27.5104 44.9391C26.6376 45.1293 25.7565 45.2888 24.873 45.4198C24.1635 45.5249 23.4456 45.6018 22.7292 45.623C22.2424 45.6374 21.9312 45.7899 21.6449 46.2044C21.0046 47.1323 20.3169 48.0306 19.6046 48.9052C18.7565 49.9467 17.6993 50.7263 16.445 51.2303C12.0155 53.0753 7.0383 51.6302 7.76679 47.1184C8.39342 44.5133 10.0416 42.8376 12.53 41.9621C14.0913 41.4128 15.7126 41.3105 17.3538 41.4635C17.4708 41.4745 17.5884 41.4792 17.7058 41.483C18.218 41.5003 18.2478 41.4786 18.2834 40.959C18.2994 40.725 18.2936 40.489 18.2858 40.2543C18.265 39.6386 18.2375 39.0233 18.213 38.4078C18.1511 36.8541 18.0967 35.2998 18.024 33.7466C17.9981 33.1909 17.9368 32.6362 17.8761 32.0828C17.836 31.7164 17.8238 31.7148 17.4369 31.7121C16.8344 31.7077 16.2286 31.7463 15.6298 31.6983C14.2599 31.5889 13.1172 31.0608 12.5217 29.736C12.1118 28.8244 12.2161 27.9045 12.6488 27.0165C12.6806 26.9512 12.7272 26.8923 12.7722 26.8344C13.0892 26.4264 13.4636 26.3426 13.8794 26.6395C14.2604 26.9115 14.6041 27.2355 14.9702 27.5293C15.4862 27.9434 16.0465 28.237 16.7404 28.1856C17.2681 28.1465 17.4162 28.0397 17.4904 27.5239C17.6241 26.5959 17.7169 25.6615 17.8706 24.7371C18.1742 22.9108 18.6658 21.1521 19.9227 19.7136C20.8273 18.6782 21.9547 18.0096 23.3321 17.893C24.4956 17.7947 25.4749 18.2734 26.1555 19.2146C27.4414 20.9932 27.5495 22.8957 26.6055 24.8643C26.176 25.7598 25.5064 26.4894 24.9057 27.2652C24.358 27.9726 23.7817 28.6581 23.2455 29.3738C22.9291 29.796 22.6475 30.26 22.6069 30.8007C22.5775 31.1909 22.6185 31.5889 22.655 31.981C22.7584 33.0893 22.8615 34.198 22.9917 35.3033C23.0965 36.1931 23.1944 37.0813 23.1454 37.9784C23.1014 38.7832 23.0548 39.5879 22.9957 40.3917C22.9495 41.0197 22.8829 41.6463 22.8241 42.2732C22.8099 42.4254 22.8518 42.531 23.0221 42.5553C23.109 42.5677 23.1937 42.6118 23.2796 42.6123C24.1438 42.6163 25.0081 42.6147 25.9415 42.6147ZM17.6714 45.1576C16.6997 44.9544 15.7395 44.8451 14.7758 44.9698C14.3192 45.0289 13.8753 45.2054 13.4339 45.3539C13.1574 45.447 12.8984 45.5905 12.6286 45.705C11.9756 45.9823 11.5257 46.4779 11.2118 47.089C10.7847 47.9201 11.2632 48.8177 12.1789 48.9966C13.1184 49.18 13.9973 48.9879 14.8078 48.5394C16.1082 47.82 17.0006 46.7126 17.6265 45.3805C17.6555 45.3192 17.6548 45.2443 17.6714 45.1576ZM22.0771 25.5161C22.3112 25.2081 22.52 24.9472 22.7139 24.6758C23.2451 23.9328 23.7181 23.1563 23.9641 22.2672C24.1083 21.7457 24.1066 21.2242 23.8539 20.726C23.6868 20.3968 23.4445 20.3247 23.136 20.538C23.0072 20.6271 22.8838 20.7489 22.8071 20.8837C22.6632 21.1374 22.5095 21.4002 22.441 21.679C22.2773 22.3456 22.128 23.0192 22.0353 23.6985C21.957 24.2736 21.8514 24.8622 22.0771 25.5161ZM29.7159 38.2206C29.7508 38.2364 29.7642 38.2484 29.7753 38.2464C29.8179 38.2391 29.8629 38.2345 29.9013 38.2166C30.7551 37.816 31.3816 37.1774 31.7998 36.3425C32.0762 35.7906 32.1466 35.1958 32.0079 34.5907C31.9371 34.2824 31.8181 34.2339 31.5321 34.3567C31.2257 34.4884 31.0065 34.7205 30.8238 34.9925C30.1654 35.9727 29.9045 37.0858 29.7159 38.2206Z" fill="white"/>
<path id="Vector_2" d="M55.9827 27.8168C55.9827 28.0117 55.9827 28.1406 55.9827 28.3189C56.0888 28.2508 56.1708 28.2082 56.2414 28.1512C57.0375 27.5083 57.9751 27.1801 58.9694 27.1596C60.4376 27.1296 61.3679 27.8064 61.5225 29.4103C61.6186 30.4089 61.4632 31.4003 61.3168 32.3882C61.233 32.9535 61.1162 33.5227 61.1194 34.0896C61.1239 34.909 61.285 35.1314 62.1192 34.8913C62.4182 34.8053 62.6864 34.6119 62.9641 34.4698C63.2277 35.7062 62.5167 36.9886 61.3163 37.5186C60.7465 37.7701 60.1524 37.9009 59.5199 37.8792C58.223 37.8346 57.4773 36.8605 57.3891 35.8156C57.3177 34.9688 57.3679 34.1184 57.5004 33.2705C57.6177 32.5195 57.6627 31.7564 57.7175 30.9971C57.7317 30.7983 57.6832 30.588 57.629 30.3925C57.5018 29.9332 57.2459 29.8222 56.7987 30.0109C56.3963 30.1806 56.1566 30.5034 55.9619 30.8779C55.6412 31.4946 55.5996 32.169 55.5315 32.8392C55.3879 34.2527 55.2416 35.6659 55.1023 37.0798C55.0592 37.5174 55.0408 37.9572 55.0012 38.3952C54.9659 38.7843 54.9061 38.8421 54.5365 38.9193C53.4331 39.1496 52.33 39.3821 51.2261 39.6105C51.1578 39.6246 51.0841 39.6124 50.9577 39.6124C50.9748 39.4024 50.9906 39.2087 51.0109 38.958C50.8645 39.0544 50.7536 39.1149 50.657 39.1929C49.7882 39.8952 48.7895 40.3123 47.6878 40.415C46.4323 40.5319 45.3257 39.9875 45.0166 38.4952C44.8807 37.8389 44.899 37.1882 45.0038 36.5293C45.1463 35.6331 45.2624 34.7327 45.3857 33.8335C45.4142 33.6254 45.4837 33.4913 45.7225 33.4447C46.5134 33.2907 47.2991 33.1107 48.0877 32.945C48.5148 32.8551 48.9436 32.7737 49.4204 32.6788C49.4204 32.8782 49.4389 33.0367 49.4175 33.1896C49.2838 34.1469 49.1368 35.1024 49.0041 36.0597C48.9581 36.3922 48.916 36.7285 48.9162 37.0633C48.9165 37.4578 49.0439 37.5585 49.4364 37.5217C50.0318 37.466 50.474 37.1441 50.8272 36.6837C51.1588 36.2517 51.318 35.7507 51.3742 35.218C51.4941 34.0818 51.6083 32.9448 51.7131 31.8071C51.7896 30.9757 51.8458 30.1424 51.9144 29.3103C51.9264 29.1647 51.9669 29.0212 51.9753 28.8758C51.9878 28.6521 52.131 28.5833 52.3187 28.5452C53.3963 28.3269 54.4731 28.1055 55.5504 27.8868C55.6773 27.8613 55.8063 27.8453 55.9827 27.8168Z" fill="white"/>
<path id="Vector_3" d="M44.6699 23.852C44.5414 23.7591 44.3638 23.6823 44.37 23.6255C44.3895 23.4495 44.431 23.2193 44.5529 23.1257C44.7043 23.0095 44.7554 22.9042 44.763 22.7336C44.7695 22.588 44.8239 22.443 44.8199 22.2986C44.8103 21.9632 44.9732 21.8063 45.2878 21.7238C45.7093 21.6133 46.1201 21.4613 46.6005 21.3062C46.5517 21.7924 46.5091 22.2187 46.4639 22.6683C46.6615 22.6407 46.8159 22.619 46.9681 22.5978C47.071 23.0288 47.0293 23.1474 46.6747 23.2723C46.4696 23.3446 46.4062 23.4867 46.3867 23.6689C46.3415 24.0914 46.3041 24.5147 46.2649 24.9379C46.2377 25.2296 46.2028 25.5211 46.1896 25.8136C46.1746 26.1447 46.3276 26.2373 46.6242 26.0881C46.8891 25.9547 46.9961 25.7421 46.9779 25.4415C46.9301 24.6577 47.1202 23.9258 47.5277 23.2572C48.0326 22.4289 48.8108 22.0221 49.7498 21.939C50.2169 21.8977 50.6085 22.1034 50.8253 22.5552C50.888 22.6858 50.9473 22.818 51.006 22.9449C51.5428 22.8632 51.5979 22.8036 51.6455 22.3374C51.6693 22.1044 51.6765 21.8576 51.7623 21.646C51.871 21.3783 52.1806 21.5046 52.3923 21.4259C52.6504 21.33 52.9318 21.2879 53.207 21.2527C53.2902 21.2419 53.3864 21.3307 53.5065 21.3882C53.7116 21.2843 53.9645 21.1391 54.2308 21.0256C54.569 20.8814 54.8684 20.9918 55.1131 21.2403C55.2901 21.4198 55.3139 21.7867 55.1913 22.0285C55.0667 22.2745 54.6003 22.5851 54.3599 22.5137C54.168 22.4567 54.0093 22.2884 53.8054 22.1485C53.4223 22.262 53.3507 22.3532 53.3123 22.783C53.2313 23.6878 53.1434 24.592 53.0617 25.4969C53.0479 25.6491 53.0372 25.8075 52.8595 25.8473C52.3643 25.9578 51.8663 26.0549 51.3101 26.1696C51.3885 25.2664 51.4611 24.4282 51.5339 23.5871C51.0674 23.6425 51.0525 23.6602 51.0326 24.1201C50.9899 25.1129 50.5816 25.917 49.7191 26.4241C48.9706 26.8639 48.1776 26.9655 47.3 26.4347C47.2574 26.5012 47.2091 26.611 47.1308 26.6918C46.8414 26.9906 46.5091 27.2206 46.1027 27.3455C45.3714 27.5701 45.0332 27.4824 44.5287 26.8816C44.4055 27.0053 44.2855 27.1281 44.1628 27.248C43.4877 27.9073 42.685 28.2353 41.7349 28.1861C41.1906 28.1579 40.7474 27.807 40.6337 27.2746C40.5544 26.9032 40.4694 26.5264 40.5908 26.1435C40.6068 26.0931 40.593 26.0334 40.593 25.9761C40.2515 25.9441 40.2711 26.1664 40.2671 26.3742C40.2555 26.9933 40.075 27.5602 39.706 28.057C39.0907 28.8856 38.2579 29.2112 37.2421 29.0743C36.5663 28.9831 36.2866 28.5254 36.2304 28.0125C36.1016 26.837 36.361 25.7568 37.2951 24.94C37.8487 24.4559 38.5033 24.2264 39.2473 24.3C39.6716 24.3421 39.9395 24.5877 40.0949 24.972C40.1381 25.0792 40.1818 25.1862 40.2244 25.2911C40.613 25.2287 40.8717 25.0481 41.0592 24.7037C41.471 23.9481 42.1413 23.5145 42.98 23.3743C43.2572 23.3279 43.5652 23.3642 43.8406 23.4349C44.1289 23.5091 44.3271 23.8961 44.3114 24.2093C44.2955 24.5297 44.0914 24.7863 43.7726 24.8867C43.4065 25.002 43.2445 24.871 43.2482 24.4922C43.2492 24.3772 43.1773 24.2615 43.1388 24.1461C43.018 24.2121 42.8444 24.2484 42.7867 24.3502C42.6436 24.6026 42.5178 24.8766 42.4496 25.1575C42.3255 25.6687 42.2174 26.1902 42.3747 26.7189C42.4575 26.997 42.5329 27.0564 42.8138 27.0269C43.5459 26.9501 44.0453 26.522 44.4328 25.9338C44.4637 25.8869 44.4818 25.8256 44.4877 25.7692C44.5504 25.1719 44.6101 24.5743 44.669 23.9766C44.6747 23.9196 44.6699 23.8619 44.6699 23.852ZM48.7238 24.7915C48.7366 24.927 48.7344 25.0906 48.7705 25.2454C48.8672 25.659 49.1654 25.7481 49.4597 25.433C49.6036 25.2788 49.6946 25.0665 49.778 24.8672C49.8449 24.7074 49.855 24.5248 49.9075 24.3577C49.9695 24.1604 49.9675 23.9997 49.7955 23.8445C49.5852 23.6548 49.5762 23.4111 49.6939 23.1601C49.7248 23.0941 49.7731 23.0286 49.7776 22.9603C49.782 22.8969 49.7535 22.8165 49.7105 22.7706C49.6852 22.7435 49.5826 22.746 49.5508 22.7748C49.4015 22.9101 49.2193 23.0364 49.1319 23.208C48.8847 23.6932 48.757 24.2187 48.7238 24.7915ZM37.9784 27.1132C37.9784 27.2452 37.9499 27.3858 37.9859 27.5072C38.0283 27.6498 38.099 27.8479 38.2082 27.8897C38.326 27.9351 38.5124 27.8472 38.65 27.7796C38.7321 27.7393 38.8067 27.6347 38.8357 27.5437C38.9504 27.1823 39.0502 26.8162 39.144 26.4487C39.159 26.3904 39.1373 26.2903 39.0947 26.255C38.7719 25.988 38.7874 25.6873 38.9713 25.3524C38.9989 25.302 38.9972 25.1954 38.9629 25.1617C38.9219 25.1214 38.8039 25.097 38.7669 25.1262C38.6217 25.2405 38.4548 25.3564 38.3693 25.5119C38.0973 26.0065 37.9575 26.5431 37.9784 27.1132Z" fill="white"/>
<path id="Vector_4" d="M31.4551 24.8498C30.6489 25.4944 30.5093 26.1544 30.9137 27.2391C30.5074 27.3285 30.0939 27.4241 29.7442 27.1734C29.4064 26.9314 29.3593 26.5315 29.4463 26.1349C29.5396 25.7086 29.7518 25.3362 30.0576 25.0325C31.1728 23.9247 32.5123 23.3174 34.0951 23.438C35.1612 23.5191 35.7642 24.0757 36.0209 25.1915C36.3317 26.5416 36.052 27.8217 35.3105 28.9764C34.8751 29.6543 34.2538 30.1209 33.3901 30.1171C33.1878 30.1162 32.9858 30.0611 32.7729 30.0295C32.2726 30.4726 31.6022 30.3858 30.9555 30.5821C30.8612 29.9044 31.0802 29.2969 31.1 28.6781C31.12 28.0505 31.2104 27.4253 31.27 26.7989C31.3291 26.1747 31.3884 25.5509 31.4551 24.8498ZM33.1448 24.236C33.1723 24.318 33.2005 24.3597 33.197 24.3986C33.1322 25.1279 33.0645 25.857 32.9957 26.5859C32.9255 27.3298 32.8464 28.0727 32.7852 28.8173C32.7567 29.1654 32.8723 29.2467 33.2031 29.135C33.59 29.0042 33.8273 28.7131 34.0028 28.3606C34.2085 27.9477 34.269 27.4974 34.364 27.0527C34.5161 26.3413 34.4214 25.6489 34.2547 24.9623C34.1316 24.4551 33.7299 24.129 33.2363 24.1486C32.7265 24.1688 32.2491 24.3376 31.8255 24.6505C32.2636 24.5131 32.7014 24.3753 33.1448 24.236Z" fill="white"/>
<path id="Vector_5" d="M49.7968 30.6395C49.8195 31.1943 49.5856 31.655 49.1844 31.9974C48.4578 32.6174 47.6414 32.9062 46.6633 32.611C45.7794 32.3444 45.1022 31.3561 45.5675 30.3094C46.151 28.9968 48.0829 28.3862 49.2458 29.4024C49.6083 29.7195 49.8004 30.1284 49.7968 30.6395Z" fill="white"/>
</g>
</g>
<g id="Mask group_2">
<path id="kids" d="M48.6545 52.8498C47.292 52.9655 46.1082 53.4743 45.1525 54.3842L45.1546 53.6816C45.1569 52.94 44.577 52.3574 43.8788 52.3107C44.332 51.7856 44.5522 51.1488 44.5522 50.4569C44.5522 49.7451 44.314 49.0945 43.8331 48.5633C43.351 48.0307 42.7182 47.7239 41.9839 47.7239C41.2497 47.7239 40.6169 48.0307 40.1348 48.5632C39.6539 49.0945 39.4157 49.7451 39.4157 50.4569C39.4157 51.1717 39.6507 51.8277 40.1348 52.3624C40.3373 52.5861 40.5663 52.7699 40.8183 52.9079L40.7919 52.9135C40.2239 53.0341 39.8078 53.4938 39.723 54.0436C39.1963 53.608 38.3644 53.5903 37.8327 54.1719L38.4421 54.729L37.8327 54.1719L37.2232 54.8386L37.5544 47.4745C37.5858 46.7746 37.0839 46.1638 36.3911 46.0591L33.249 45.5842C32.387 45.4539 31.6243 46.1516 31.6776 47.0218L32.6379 62.6923C32.6857 63.4736 33.3777 64.0558 34.1557 63.9694L35.6653 63.8018C36.2118 63.7411 36.656 63.3633 36.8178 62.8606L37.4702 63.4433C37.9744 63.8937 38.7319 63.9086 39.2535 63.4785L40.3999 62.533C40.5552 62.405 40.6738 62.2518 40.7563 62.0853C41.076 62.5247 41.6455 62.755 42.2145 62.6048L44.1132 62.1035C44.5827 61.9796 44.9411 61.6207 45.0754 61.173C45.2263 61.3159 45.3884 61.4522 45.5613 61.5818C46.6918 62.4292 48.0077 62.787 49.4513 62.6739L49.4546 62.6736C49.557 62.6653 49.6593 62.6542 49.7613 62.6404C49.9053 62.8072 50.0933 62.9382 50.3129 63.0144L52.631 63.8181C53.4749 64.1108 54.3686 63.53 54.4439 62.6399L54.578 61.056L54.5855 61.066C55.3692 62.1103 56.7404 62.5897 58.3218 62.7653C59.9381 62.9448 61.3801 62.7653 62.5144 62.0584C63.173 61.6484 63.666 61.0753 63.9021 60.3346C64.1396 59.6065 64.0966 58.8482 63.8566 58.1043C63.6508 57.4415 63.1725 56.8935 62.608 56.4381C62.4715 56.3269 62.3057 56.2034 62.1127 56.0683C62.2863 55.9608 62.4377 55.8132 62.5518 55.6307L62.5827 55.5813L63.6786 53.8822C64.07 53.2754 63.9229 52.4691 63.3426 52.0395L63.2751 51.9895C63.2742 51.9889 63.2734 51.9882 63.2725 51.9876C62.4872 51.4003 61.3517 51.1444 60.0657 51.062L60.0657 51.0619L60.0589 51.0616C58.9122 50.9956 57.9086 51.0562 57.1154 51.3098C56.4026 51.5346 55.7858 51.8744 55.3155 52.3402L55.6541 48.3397C55.7254 47.4967 55.0227 46.7913 54.1793 46.8595L51.6389 47.0648C50.942 47.1212 50.3995 47.6935 50.3805 48.3924L50.2568 52.9396C49.6829 52.8485 49.1502 52.8139 48.6676 52.8488L48.6676 52.8487L48.6545 52.8498ZM39.8675 57.3237C39.9249 57.279 39.9781 57.2302 40.0268 57.178L40.3896 60.4118C40.3689 60.3951 40.3476 60.3789 40.3256 60.3632L38.0539 58.7374L39.8675 57.3238L39.2273 56.5024L39.8675 57.3237ZM55.3807 60.3906L54.5836 60.9888V60.9888L55.3807 60.3906ZM54.883 58.1912L54.7999 58.4331L54.9536 56.6171C54.972 56.6452 54.9907 56.6732 55.0098 56.701C55.1822 56.952 55.379 57.1827 55.5977 57.3939C55.2809 57.5397 55.0145 57.8086 54.883 58.1912ZM59.0561 55.2354L59.1915 55.1341L59.0561 55.2354ZM49.2351 57.7379L49.2351 57.7379L49.2362 57.7316C49.3314 57.1798 49.4996 56.9294 49.6246 56.818L49.6322 56.8113L49.6396 56.8044C49.7063 56.7427 49.7468 56.7272 49.7598 56.7231C49.7699 56.7199 49.7906 56.7144 49.8379 56.7225C49.8542 56.7255 49.8657 56.7286 49.8735 56.7311C49.8768 56.7376 49.8811 56.747 49.8859 56.76C49.9358 56.8933 49.9811 57.2215 49.8717 57.8563C49.7703 58.4032 49.6035 58.671 49.4707 58.7982C49.4095 58.852 49.3714 58.8665 49.3569 58.8709C49.3442 58.8748 49.3197 58.8804 49.268 58.8715C49.2487 58.8679 49.2353 58.8643 49.2266 58.8614C49.2235 58.8552 49.2195 58.8463 49.2149 58.8341C49.1661 58.7033 49.1209 58.376 49.2351 57.7379ZM49.887 56.7364C49.8869 56.7364 49.8862 56.7361 49.885 56.7354C49.8864 56.736 49.887 56.7364 49.887 56.7364ZM49.8675 56.7205C49.8667 56.7195 49.8663 56.7189 49.8663 56.7189C49.8663 56.7188 49.8667 56.7193 49.8675 56.7205ZM49.2135 58.856C49.2136 58.856 49.2143 58.8564 49.2155 58.8571C49.2141 58.8564 49.2134 58.856 49.2135 58.856ZM49.2323 58.8716C49.2332 58.8726 49.2336 58.8732 49.2335 58.8732C49.2335 58.8732 49.2331 58.8727 49.2323 58.8716Z" fill="#3C6CB8" stroke="url(#paint1_linear_12_44)" stroke-width="2.08275"/>
<mask id="mask0_12_44" style="mask-type:alpha" maskUnits="userSpaceOnUse" x="32" y="46" width="32" height="17">
<g id="kids_2">
<path d="M39.7374 61.7296C39.9035 61.5926 39.8947 61.3354 39.7196 61.21L36.6712 59.0284C36.493 58.9009 36.4876 58.6379 36.6604 58.5032L39.2273 56.5024C39.3214 56.429 39.3683 56.3102 39.3495 56.1923L39.1671 55.0443C39.124 54.7731 38.7866 54.6719 38.6013 54.8746L36.664 56.9936C36.4572 57.2198 36.0807 57.0638 36.0945 56.7576L36.514 47.4277C36.5216 47.2601 36.4014 47.1138 36.2355 47.0888L33.0933 46.6138C32.8869 46.5826 32.7043 46.7497 32.7171 46.9581L33.6773 62.6286C33.6888 62.8157 33.8545 62.9551 34.0408 62.9344L35.5504 62.7668C35.7108 62.7489 35.8344 62.6171 35.8417 62.4559L35.8921 61.3547C35.9047 61.0788 36.2321 60.9412 36.4381 61.1252L38.1639 62.6666C38.2846 62.7745 38.466 62.7781 38.5909 62.6751L39.7374 61.7296Z" fill="white"/>
<path d="M41.0083 53.9321C40.8433 53.9672 40.7318 54.1218 40.7506 54.2894L41.5391 61.3174C41.5615 61.5163 41.7552 61.649 41.9487 61.5979L43.8474 61.0967C43.991 61.0588 44.0912 60.9291 44.0916 60.7806L44.1133 53.6784C44.1139 53.4695 43.9216 53.3133 43.7173 53.3567L41.0083 53.9321ZM43.5108 50.4569C43.5108 50.9301 43.3609 51.3323 43.0611 51.6635C42.7612 51.9947 42.4022 52.1604 41.9839 52.1604C41.5657 52.1604 41.2067 51.9947 40.9068 51.6635C40.607 51.3323 40.457 50.9301 40.457 50.4569C40.457 49.9916 40.607 49.5934 40.9068 49.2622C41.2067 48.9309 41.5657 48.7653 41.9839 48.7653C42.4022 48.7653 42.7612 48.9309 43.0611 49.2622C43.3609 49.5934 43.5108 49.9916 43.5108 50.4569Z" fill="white"/>
<path d="M49.0859 59.8968C48.2494 59.7469 47.9574 58.9662 48.21 57.5546C48.3283 56.8685 48.569 56.3637 48.932 56.0404C49.2555 55.7407 49.6185 55.6264 50.0209 55.6973C50.8495 55.8472 51.1415 56.6279 50.8968 58.0396C50.7706 58.7257 50.5299 59.2343 50.1748 59.5656C49.8513 59.8573 49.4883 59.9678 49.0859 59.8968ZM51.7228 48.1028C51.556 48.1163 51.426 48.2534 51.4215 48.4207L51.275 53.8059C51.2693 54.017 51.0685 54.1673 50.8628 54.1197C50.0168 53.9239 49.3101 53.8464 48.7426 53.8874C47.5353 53.99 46.5331 54.4513 45.7361 55.2715C44.947 56.0995 44.5959 57.0498 44.6827 58.1224C44.7695 59.187 45.2705 60.0624 46.1859 60.7485C47.1013 61.4346 48.1626 61.7303 49.3699 61.6357C49.6359 61.614 49.9019 61.5699 50.1678 61.5034C50.3397 61.4605 50.5092 61.5978 50.4908 61.774C50.4791 61.887 50.5467 61.9932 50.654 62.0305L52.9721 62.8342C53.1742 62.9043 53.3882 62.7652 53.4062 62.5521L54.6164 48.2519C54.6335 48.0501 54.4652 47.8811 54.2633 47.8975L51.7228 48.1028Z" fill="white"/>
<path d="M62.8636 58.4181C62.7452 58.0317 62.4414 57.6413 61.9522 57.247C61.6523 57.0025 61.1473 56.6595 60.4371 56.2178C59.6386 55.7262 59.1783 55.3987 59.0561 55.2354C59.0345 55.2065 59.0274 55.1703 59.0274 55.1342C59.0273 54.975 59.0593 54.867 59.1232 54.8101C59.3047 54.6445 59.6953 54.6564 60.295 54.8456L61.0289 55.1177L61.2742 55.2111C61.4206 55.2668 61.5859 55.2113 61.6689 55.0785L61.7036 55.0231L62.8035 53.3177C62.8972 53.1724 62.862 52.9793 62.723 52.8765L62.6505 52.8228C62.1139 52.4206 61.2301 52.1801 59.9991 52.1012C58.9023 52.0381 58.0461 52.1051 57.4306 52.3023C56.2785 52.6651 55.6117 53.3157 55.4302 54.2542C55.4223 54.3251 55.4145 54.3961 55.4066 54.4671C55.3513 55.0349 55.5052 55.583 55.8682 56.1114C56.2312 56.6397 56.752 57.0735 57.4306 57.4126L57.8094 57.6019C59.2136 58.2725 60.0115 58.7673 60.2029 59.0864C60.2416 59.1509 60.2146 59.2504 60.153 59.2935C60.0425 59.3723 59.8926 59.4433 59.7032 59.5064C59.2219 59.6878 58.63 59.676 57.9277 59.4709C57.2333 59.2659 56.7678 58.9701 56.531 58.5837L56.4571 58.4638C56.3117 58.2282 55.9578 58.2677 55.8679 58.5295L55.3328 60.0873C55.2975 60.1901 55.3154 60.3037 55.3807 60.3906L55.4184 60.4409C55.9392 61.1349 56.9453 61.5647 58.4367 61.7303C59.9281 61.8959 61.1039 61.7106 61.964 61.1743C62.4454 60.8747 62.761 60.4882 62.9109 60.0151C63.0687 59.534 63.053 59.0017 62.8636 58.4181Z" fill="white"/>
</g>
</mask>
<g mask="url(#mask0_12_44)">
<g id="kids_3">
<path d="M40.0664 61.4583L36.3142 58.773L39.3799 56.3834L39.0603 54.3724L36.0538 57.661L36.5273 47.1329L32.6923 46.5532L33.6984 62.9724L35.8289 62.7358L35.9236 60.6657L38.3738 62.8541L40.0664 61.4583Z" fill="#FF53AA"/>
<path d="M40.7174 53.9939L41.5815 61.6948L44.0908 61.0324L44.1145 53.2723L40.7174 53.9939ZM43.5108 50.4569C43.5108 50.9301 43.3609 51.3323 43.0611 51.6635C42.7612 51.9947 42.4022 52.1604 41.9839 52.1604C41.5657 52.1604 41.2067 51.9947 40.9068 51.6635C40.607 51.3323 40.457 50.9301 40.457 50.4569C40.457 49.9916 40.607 49.5934 40.9068 49.2622C41.2067 48.9309 41.5657 48.7653 41.9839 48.7653C42.4022 48.7653 42.7612 48.9309 43.0611 49.2622C43.3609 49.5934 43.5108 49.9916 43.5108 50.4569Z" fill="#FF53AA"/>
<path d="M49.0859 59.8968C48.2494 59.7469 47.9574 58.9662 48.21 57.5546C48.3283 56.8685 48.569 56.3637 48.932 56.0404C49.2555 55.7407 49.6185 55.6264 50.0209 55.6973C50.8495 55.8472 51.1415 56.6279 50.8968 58.0396C50.7706 58.7257 50.5299 59.2343 50.1748 59.5656C49.8513 59.8573 49.4883 59.9678 49.0859 59.8968ZM51.4295 48.1265L51.2638 54.2187C50.2379 53.9505 49.3975 53.8401 48.7426 53.8874C47.5353 53.99 46.5331 54.4513 45.7361 55.2715C44.947 56.0995 44.5959 57.0498 44.6827 58.1224C44.7695 59.187 45.2705 60.0624 46.1859 60.7485C47.1013 61.4346 48.1626 61.7303 49.3699 61.6357C49.7566 61.6041 50.1432 61.5253 50.5299 61.3991L50.4707 61.9669L53.3707 62.9724L54.649 47.8663L51.4295 48.1265Z" fill="#FF53AA"/>
<path d="M62.8636 58.4181C62.7452 58.0317 62.4414 57.6413 61.9522 57.247C61.6523 57.0025 61.1473 56.6595 60.4371 56.2178C59.5533 55.6737 59.0838 55.3306 59.0285 55.1887C59.0206 54.9994 59.0522 54.8732 59.1232 54.8101C59.3047 54.6445 59.6953 54.6564 60.295 54.8456L61.0289 55.1177L61.526 55.307L61.7036 55.0231L62.9701 53.0594L62.6505 52.8228C62.1139 52.4206 61.2301 52.1801 59.9991 52.1012C58.9023 52.0381 58.0461 52.1051 57.4306 52.3023C56.2785 52.6651 55.6117 53.3157 55.4302 54.2542C55.4223 54.3251 55.4145 54.3961 55.4066 54.4671C55.3513 55.0349 55.5052 55.583 55.8682 56.1114C56.2312 56.6397 56.752 57.0735 57.4306 57.4126L57.8094 57.6019C59.4113 58.3668 60.224 58.9031 60.2477 59.2107C60.2635 59.2107 60.2319 59.2383 60.153 59.2935C60.0425 59.3723 59.8926 59.4433 59.7032 59.5064C59.2219 59.6878 58.63 59.676 57.9277 59.4709C57.2333 59.2659 56.7678 58.9701 56.531 58.5837L56.0931 57.8739L55.2764 60.2517L55.4184 60.4409C55.9392 61.1349 56.9453 61.5647 58.4367 61.7303C59.9281 61.8959 61.1039 61.7106 61.964 61.1743C62.4454 60.8747 62.761 60.4882 62.9109 60.0151C63.0687 59.534 63.053 59.0017 62.8636 58.4181Z" fill="#FF53AA"/>
</g>
<rect id="Rectangle 15" x="30.5973" y="44.4287" width="9.2775" height="21.5347" fill="#FBB41E"/>
<rect id="Rectangle 16" x="54.8384" y="51.0088" width="10.7739" height="12.861" fill="#37D9D4"/>
<path id="Vector 2" d="M45.1117 55.0462L49.9001 47.4193L51.0972 46.6716L55.1374 45.3257C55.2871 46.7215 55.4367 49.842 54.8381 51.158C54.09 52.803 54.8381 60.1308 54.8381 60.4299C54.8381 60.6692 55.6362 62.6233 56.0352 63.5704C54.888 64.368 52.4439 65.9931 51.8454 66.1127C51.0972 66.2622 45.411 63.8695 45.1117 63.5704C44.8723 63.3311 44.6129 59.2834 44.5132 57.2894L45.1117 55.0462Z" fill="#FF5A21"/>
</g>
</g>
</g>
<defs>
<radialGradient id="paint0_radial_12_44" cx="0" cy="0" r="1" gradientUnits="userSpaceOnUse" gradientTransform="translate(35.6107 35) rotate(90) scale(35 35.0211)">
<stop stop-color="#4782CD"/>
<stop offset="1" stop-color="#203785"/>
</radialGradient>
<linearGradient id="paint1_linear_12_44" x1="31.5386" y1="46.3952" x2="58.8132" y2="63.503" gradientUnits="userSpaceOnUse">
<stop stop-color="#3A68B4"/>
<stop offset="0.425225" stop-color="#3158A5"/>
<stop offset="1" stop-color="#203785"/>
</linearGradient>
</defs>
</svg>
