<svg width="28" height="28" viewBox="0 0 28 28" fill="none" xmlns="http://www.w3.org/2000/svg">
<path d="M0.112991 13.9838C0.112125 16.3541 0.731467 18.6682 1.90873 20.7077L0 27.6764L7.13202 25.8064C9.09718 26.878 11.3095 27.4427 13.5611 27.4437H13.5668C20.9811 27.4437 27.0174 21.4094 27.0204 13.9944C27.0217 10.4004 25.6233 7.02126 23.0835 4.47922C20.5433 1.93718 17.1656 0.536429 13.5668 0.534912C6.15084 0.534912 0.115916 6.56789 0.112774 13.9835L0.112991 13.9838ZM4.35998 20.3562L4.0937 19.9334C2.97429 18.1535 2.38333 16.0965 2.3842 13.9845C2.38669 7.82109 7.40274 2.80645 13.5707 2.80645C16.5577 2.80764 19.3649 3.97211 21.4764 6.08483C23.5878 8.19765 24.7496 11.0064 24.7487 13.9933C24.746 20.157 19.7299 25.1721 13.5665 25.1721H13.5621C11.5553 25.1709 9.58718 24.6321 7.87074 23.6137L7.46222 23.3715L3.22974 24.4811L4.35998 20.3562ZM13.5668 27.4437H13.5669H13.5668C13.5667 27.4437 13.5665 27.4437 13.5668 27.4437Z" fill="white"/>
<path fill-rule="evenodd" clip-rule="evenodd" d="M10.2045 8.36066C9.95267 7.8009 9.68769 7.78964 9.44816 7.77978C9.25208 7.77144 9.02783 7.77198 8.8039 7.77198C8.57965 7.77198 8.21544 7.85616 7.90755 8.19253C7.59934 8.52901 6.73083 9.34216 6.73083 10.996C6.73083 12.65 7.93561 14.2483 8.10342 14.4727C8.27155 14.6968 10.429 18.1994 13.8456 19.5467C16.6854 20.6665 17.2632 20.4438 17.8795 20.3877C18.4959 20.3317 19.8685 19.5748 20.1485 18.7898C20.4287 18.0049 20.4287 17.3321 20.3447 17.1916C20.2607 17.0515 20.0364 16.9673 19.7003 16.7994C19.364 16.6313 17.7114 15.8179 17.4033 15.7058C17.0951 15.5936 16.8709 15.5377 16.6468 15.8742C16.4227 16.2104 15.7788 16.9674 15.5826 17.1916C15.3867 17.4162 15.1905 17.4443 14.8543 17.2762C14.5181 17.1075 13.4354 16.7528 12.151 15.6077C11.1516 14.7168 10.477 13.6165 10.2808 13.2799C10.0847 12.9437 10.2599 12.7616 10.4284 12.594C10.5795 12.4434 10.7647 12.2015 10.9329 12.0053C11.1006 11.809 11.1565 11.6689 11.2686 11.4447C11.3807 11.2203 11.3246 11.024 11.2406 10.8558C11.1565 10.6877 10.5032 9.02529 10.2043 8.36066" fill="white"/>
</svg>
