<svg width="18" height="18" viewBox="0 0 18 18" fill="none" xmlns="http://www.w3.org/2000/svg">
<g id="Frame 12865" clip-path="url(#clip0_112_290)">
<path id="Vector" d="M4.40006 4.00637C5.00194 3.36527 5.73061 2.85637 6.53974 2.51207C7.34887 2.16777 8.22078 1.99557 9.10006 2.00637C10.0657 2.00257 11.0208 2.20717 11.9001 2.60637C12.7497 3.00577 13.4754 3.62777 14.0001 4.40637L3.00006 11.8064C2.60043 10.892 2.39608 9.90427 2.40006 8.90637C2.39979 7.07417 3.11784 5.31497 4.40006 4.00637ZM15.6001 9.10637C15.5574 10.9298 14.8456 12.6739 13.6001 14.0064C13.0206 14.6424 12.3078 15.1425 11.5126 15.4709C10.7174 15.7994 9.85942 15.9481 9.00006 15.9064C8.12078 15.9172 7.24887 15.7449 6.43974 15.4006C5.6306 15.0563 4.90194 14.5475 4.30006 13.9064C4.0093 13.5931 3.74192 13.2588 3.50006 12.9064L15.8001 4.70637C15.1032 3.47677 14.1053 2.44447 12.9001 1.70637C11.7144 1.02657 10.3666 0.681074 9.00006 0.706374C7.92143 0.694674 6.85158 0.901273 5.85485 1.31377C4.85811 1.72617 3.95509 2.33597 3.20006 3.10637C1.78022 4.74397 0.999041 6.83897 1.00006 9.00637C0.99595 10.1014 1.19955 11.1872 1.60006 12.2064C2.00931 13.2199 2.62191 14.1388 3.40006 14.9064C4.14432 15.6412 5.02843 16.2193 6.00006 16.6064C6.95215 16.9975 7.97077 17.2012 9.00006 17.2064C10.0391 17.2117 11.0689 17.0111 12.0301 16.6164C12.9912 16.2216 13.8647 15.6404 14.6001 14.9064C16.1224 13.349 17.0131 11.2825 17.1001 9.10637H15.6001Z" fill="#006495"/>
</g>
<defs>
<clipPath id="clip0_112_290">
<rect width="18" height="17" fill="white" transform="translate(0 0.705078)"/>
</clipPath>
</defs>
</svg>
