<svg width="66" height="36" viewBox="0 0 66 36" fill="none" xmlns="http://www.w3.org/2000/svg">
<g id="kids">
<path d="M16.0486 32.7206L7.88262 26.9965L14.5545 21.9029L13.859 17.6161L7.3159 24.6262L8.34631 2.18383L0 0.948242L2.18962 35.9482L6.82646 35.4439L7.03254 31.0311L12.3649 35.6961L16.0486 32.7206Z" fill="#DE358A"/>
<path d="M17.4654 16.8092L19.3459 33.2249L24.8071 31.8128L24.8586 15.271L17.4654 16.8092ZM23.5448 9.26957C23.5448 10.2782 23.2185 11.1356 22.5659 11.8416C21.9134 12.5477 21.132 12.9007 20.2218 12.9007C19.3116 12.9007 18.5302 12.5477 17.8776 11.8416C17.225 11.1356 16.8987 10.2782 16.8987 9.26957C16.8987 8.27773 17.225 7.42879 17.8776 6.72274C18.5302 6.01669 19.3116 5.66366 20.2218 5.66366C21.132 5.66366 21.9134 6.01669 22.5659 6.72274C23.2185 7.42879 23.5448 8.27773 23.5448 9.26957Z" fill="#DE358A"/>
<path d="M35.6779 29.392C33.8575 29.0726 33.2221 27.4084 33.7716 24.3992C34.0292 22.9367 34.553 21.8608 35.343 21.1716C36.0471 20.5328 36.8371 20.289 37.7129 20.4403C39.5162 20.7597 40.1516 22.424 39.6192 25.4331C39.3444 26.8956 38.8206 27.9799 38.0478 28.686C37.3437 29.308 36.5537 29.5433 35.6779 29.392ZM40.7784 4.30199L40.4178 17.2883C38.1852 16.7167 36.3562 16.4814 34.9308 16.5822C32.3033 16.8008 30.1223 17.7842 28.3878 19.5325C26.6704 21.2977 25.9062 23.3234 26.0951 25.6096C26.284 27.8791 27.3745 29.7451 29.3666 31.2076C31.3588 32.6701 33.6686 33.3005 36.2961 33.0988C37.1376 33.0316 37.9791 32.8635 38.8206 32.5945L38.6918 33.8049L45.0031 35.9482L47.7852 3.74723L40.7784 4.30199Z" fill="#DE358A"/>
<path d="M65.6628 26.24C65.4052 25.4163 64.744 24.5842 63.6792 23.7436C63.0266 23.2225 61.9275 22.4912 60.3819 21.5498C58.4585 20.3899 57.4367 19.6586 57.3165 19.356C57.2993 18.9526 57.368 18.6836 57.5225 18.5491C57.9175 18.1961 58.7676 18.2213 60.0728 18.6248L61.6699 19.2047L62.7519 19.6082L63.1383 19.003L65.8946 14.8171L65.1991 14.3128C64.0313 13.4554 62.1079 12.9427 59.4288 12.7746C57.0417 12.6401 55.1784 12.783 53.8388 13.2033C51.3315 13.9766 49.8804 15.3635 49.4854 17.3639C49.4682 17.5152 49.451 17.6665 49.4338 17.8178C49.3136 19.0282 49.6485 20.1966 50.4385 21.3229C51.2285 22.4492 52.3619 23.3738 53.8388 24.0967L54.6632 24.5001C58.1494 26.1308 59.9182 27.2739 59.9698 27.9295C60.0041 27.9295 59.9354 27.9883 59.7637 28.106C59.5233 28.2741 59.197 28.4254 58.7848 28.5599C57.7372 28.9466 56.4492 28.9213 54.9208 28.4843C53.4095 28.0472 52.3963 27.4168 51.8811 26.5931L50.9279 25.0801L49.1505 30.1485L49.4596 30.552C50.5931 32.0313 52.7827 32.9475 56.0285 33.3005C59.2742 33.6536 61.8331 33.2585 63.705 32.1154C64.7526 31.4766 65.4395 30.6528 65.7658 29.6442C66.1093 28.6187 66.0749 27.484 65.6628 26.24Z" fill="#DE358A"/>
</g>
</svg>
