<svg width="67" height="7" viewBox="0 0 67 7" fill="none" xmlns="http://www.w3.org/2000/svg">
<path id="&#226;&#128;&#148;" d="M47.5312 6.87012C45.7767 6.87012 44.0335 6.85872 42.3018 6.83594C40.889 6.81315 39.3395 6.80176 37.6533 6.80176L36.0811 6.87012H22.3408C20.9281 6.80176 19.8799 6.76758 19.1963 6.76758C18.2393 6.76758 17.2367 6.75619 16.1885 6.7334C15.1631 6.68783 14.2402 6.66504 13.4199 6.66504C6.85742 6.66504 2.90397 6.58529 1.55957 6.42578L0.5 4.44336C0.659505 3.96484 0.739258 3.5319 0.739258 3.14453C0.739258 2.98503 0.727865 2.82552 0.705078 2.66602C0.659505 2.48372 0.636719 2.30143 0.636719 2.11914C0.636719 1.45833 0.875977 0.854492 1.35449 0.307617C2.31152 0.193685 3.39388 0.136719 4.60156 0.136719L7.43848 0.170898C8.25879 0.170898 9.05632 0.148112 9.83105 0.102539C12.4059 0.0341797 15.4251 0 18.8887 0C22.694 0 28.6527 0.0797526 36.7646 0.239258C37.7217 0.170898 39.237 0.136719 41.3105 0.136719H42.9854C45.9476 0.159505 49.1149 0.205078 52.4873 0.273438C55.8825 0.31901 58.8333 0.398763 61.3398 0.512695C63.8691 0.603841 65.3047 0.683594 65.6465 0.751953C66.4668 1.36719 66.877 2.19889 66.877 3.24707C66.877 3.33822 66.8428 3.7028 66.7744 4.34082C66.7061 4.97884 66.2617 5.66244 65.4414 6.3916C59.4258 6.71061 53.4557 6.87012 47.5312 6.87012Z" fill="#4782CD"/>
</svg>
