<svg width="177" height="56" viewBox="0 0 177 56" fill="none" xmlns="http://www.w3.org/2000/svg">
<g id="logo (1) 1">
<g id="Clip path group">
<mask id="mask0_89_99" style="mask-type:luminance" maskUnits="userSpaceOnUse" x="0" y="0" width="177" height="56">
<g id="clip0">
<path id="Vector" d="M176.5 0.370117H0.5V55.3701H176.5V0.370117Z" fill="white"/>
</g>
</mask>
<g mask="url(#mask0_89_99)">
<g id="Group">
<path id="Vector_2" d="M76.4996 2.6702L77.9996 2.0702C81.2996 0.370195 83.2996 0.470195 83.9996 0.570196C84.6996 0.670196 85.6996 1.37019 84.1996 3.6702C84.2996 3.6702 84.8996 3.3702 84.9996 3.3702C89.1996 1.37019 90.6996 0.670196 91.1996 0.470195C91.6431 0.38839 92.1012 0.45887 92.4996 0.670196C92.7701 0.777484 93.0104 0.949106 93.1996 1.1702C93.9996 1.9702 94.1996 2.3702 92.4996 4.4702C92.5996 4.7702 91.2996 6.2702 91.2996 6.6702C93.7996 5.1702 93.8996 6.0702 94.0996 6.5702C94.3207 6.75942 94.4923 6.99969 94.5996 7.2702C94.8996 8.3702 94.7996 8.9702 93.0996 11.0702C93.0996 11.3702 91.8996 12.7702 91.8996 13.0702C93.7996 12.4702 93.7996 12.9702 94.0996 13.3702C94.295 13.5444 94.4635 13.7466 94.5996 13.9702C94.8996 14.7702 94.8996 14.9702 93.1996 17.0702C93.8996 16.7702 94.3996 17.9702 93.7996 18.4702C93.6996 18.5702 92.9996 19.0702 92.9996 19.1702C93.7996 18.7702 93.9996 19.7702 93.4996 19.9702C91.2971 21.0808 89.0258 22.0495 86.6996 22.8702C85.1996 23.0702 83.8996 21.6702 85.5996 19.9702C85.6996 19.8702 84.6996 20.3702 84.4996 20.3702C79.6996 22.5702 77.9996 22.9702 77.1996 22.9702H76.9996C76.8431 22.978 76.6872 22.9453 76.5471 22.8753C76.4069 22.8052 76.2872 22.7001 76.1996 22.5702C75.5996 21.9702 75.4996 21.8702 76.9996 20.2702C76.7996 20.1702 77.7996 18.9702 77.5996 18.8702C73.7996 20.4702 73.3996 19.8702 72.9996 19.1702C72.8042 18.996 72.6357 18.7938 72.4996 18.5702C72.1996 17.9702 72.1996 16.9702 74.1996 14.8702L75.5996 12.8702C73.3996 13.7702 73.2996 13.1702 72.9996 12.4702C72.8002 12.2621 72.6318 12.0263 72.4996 11.7702C72.1996 10.5702 72.1996 9.8702 74.2996 7.2702C73.2996 7.6702 73.1996 7.4702 72.9996 7.4702C72.7869 7.35703 72.6128 7.18293 72.4996 6.9702C72.2996 6.3702 72.3996 5.9702 73.0996 3.9702C73.1996 3.8702 73.4996 2.6702 73.5996 2.5702C73.652 2.21506 73.8333 1.89167 74.1091 1.6618C74.3848 1.43193 74.7355 1.31169 75.0943 1.32406C75.4531 1.33643 75.7947 1.48054 76.0539 1.72886C76.3131 1.97718 76.4718 2.3123 76.4996 2.6702Z" fill="#1D8DCC"/>
<path id="Vector_3" d="M99.6993 4.67022C99.6953 4.10443 99.8038 3.54348 100.018 3.01998C100.233 2.49648 100.55 2.02086 100.95 1.62077C101.35 1.22068 101.826 0.904098 102.349 0.689415C102.873 0.474733 103.434 0.366234 103.999 0.370223H116.999C117.565 0.366234 118.126 0.474733 118.65 0.689415C119.173 0.904098 119.649 1.22068 120.049 1.62077C120.449 2.02086 120.765 2.49648 120.98 3.01998C121.195 3.54348 121.303 4.10443 121.299 4.67022V17.6702C121.303 18.236 121.195 18.7969 120.98 19.3204C120.765 19.8439 120.449 20.3195 120.049 20.7196C119.649 21.1197 119.173 21.4363 118.65 21.651C118.126 21.8657 117.565 21.9742 116.999 21.9702H103.999C103.434 21.9742 102.873 21.8657 102.349 21.651C101.826 21.4363 101.35 21.1197 100.95 20.7196C100.55 20.3195 100.233 19.8439 100.018 19.3204C99.8038 18.7969 99.6953 18.236 99.6993 17.6702V4.67022Z" fill="#38BFC4"/>
<path id="Vector_4" d="M159.5 48.8702C158.593 49.3015 157.605 49.5398 156.6 49.5702C155.721 49.581 154.849 49.4087 154.04 49.0644C153.231 48.7201 152.502 48.2113 151.9 47.5702C150.656 46.205 149.976 44.4176 150 42.5702C149.947 41.65 150.089 40.729 150.417 39.8674C150.744 39.0058 151.25 38.223 151.9 37.5702C152.502 36.9291 153.231 36.4202 154.04 36.0759C154.849 35.7316 155.721 35.5594 156.6 35.5702C157.507 35.5344 158.41 35.7048 159.242 36.0686C160.073 36.4323 160.811 36.9799 161.4 37.6702C162.69 39.3181 163.33 41.3817 163.2 43.4702C163.143 44.6243 162.767 45.74 162.114 46.6933C161.461 47.6466 160.556 48.4001 159.5 48.8702ZM99.9004 48.8702C98.9925 49.3015 98.0051 49.5398 97.0004 49.5702C96.1211 49.581 95.2492 49.4087 94.4401 49.0644C93.6309 48.7201 92.9023 48.2113 92.3004 47.5702C91.0555 46.205 90.3763 44.4176 90.4004 42.5702C90.3475 41.65 90.4893 40.729 90.8167 39.8674C91.1442 39.0058 91.6497 38.223 92.3004 37.5702C92.9023 36.9291 93.6309 36.4202 94.4401 36.0759C95.2492 35.7316 96.1211 35.5594 97.0004 35.5702C97.9072 35.5344 98.8103 35.7048 99.6417 36.0686C100.473 36.4323 101.211 36.9799 101.8 37.6702C103.09 39.3181 103.73 41.3817 103.6 43.4702C103.543 44.6243 103.167 45.74 102.514 46.6933C101.861 47.6466 100.956 48.4001 99.9004 48.8702ZM104.6 40.4702C104.44 39.7026 104.17 38.9618 103.8 38.2702C103.062 37.0649 102.03 36.067 100.8 35.3702C99.61 34.7022 98.2654 34.3574 96.9004 34.3702C95.8432 34.341 94.7914 34.5302 93.8106 34.9259C92.8298 35.3217 91.9413 35.9155 91.2004 36.6702C89.7095 38.2716 88.8867 40.3822 88.9004 42.5702C88.8964 43.6327 89.1002 44.6858 89.5004 45.6702C89.8726 46.6789 90.4517 47.5986 91.2004 48.3702C91.9126 49.1673 92.8036 49.7842 93.8004 50.1702C94.8195 50.5707 95.9054 50.7743 97.0004 50.7702C97.9875 50.7586 98.9664 50.5899 99.9004 50.2702C101.363 49.6841 102.616 48.6742 103.5 47.3702V50.4702H104.9V43.4702C104.9 42.4627 104.799 41.4578 104.6 40.4702ZM72.9004 50.4702V26.9702H74.3004V41.1702H75.9004C76.7698 41.1736 77.6272 40.9678 78.4004 40.5702C79.2804 39.9586 80.0285 39.1765 80.6004 38.2702L83.2004 34.5702H84.8004L82.2004 38.5702C81.8004 39.1702 81.4004 39.6702 81.0004 40.1702C80.6256 40.5326 80.2245 40.8668 79.8004 41.1702C80.4322 41.192 81.0534 41.3391 81.6278 41.6031C82.2022 41.867 82.7185 42.2425 83.1465 42.7078C83.5745 43.173 83.9058 43.7187 84.121 44.3131C84.3363 44.9075 84.4312 45.5388 84.4004 46.1702V50.3702H83.0004V46.6702C83.0689 45.4864 82.7145 44.3168 82.0004 43.3702C81.6114 42.9783 81.1411 42.6767 80.6227 42.4866C80.1043 42.2965 79.5505 42.2227 79.0004 42.2702H74.6004V50.3702L72.9004 50.4702ZM130.9 43.3702C130.787 41.3144 131.427 39.2878 132.7 37.6702C133.282 36.9705 134.018 36.4163 134.852 36.0517C135.685 35.6871 136.592 35.5222 137.5 35.5702C138.38 35.5594 139.252 35.7316 140.061 36.0759C140.87 36.4202 141.599 36.9291 142.2 37.5702C143.46 38.926 144.142 40.7197 144.1 42.5702C144.136 43.4885 143.986 44.4045 143.659 45.2636C143.333 46.1227 142.837 46.9071 142.2 47.5702C141.599 48.2113 140.87 48.7201 140.061 49.0644C139.252 49.4087 138.38 49.581 137.5 49.5702C136.49 49.5882 135.491 49.3472 134.6 48.8702C133.5 48.4353 132.557 47.6768 131.896 46.6948C131.236 45.7128 130.888 44.5536 130.9 43.3702ZM129.5 43.4702V55.3702H130.9V47.3702C131.808 48.6523 133.054 49.6565 134.5 50.2702C135.422 50.6375 136.409 50.8079 137.4 50.7702C138.495 50.7743 139.581 50.5707 140.6 50.1702C141.597 49.7838 142.488 49.167 143.2 48.3702C143.916 47.5727 144.49 46.6598 144.9 45.6702C145.301 44.651 145.505 43.5652 145.5 42.4702C145.553 41.3803 145.376 40.2915 144.98 39.2749C144.583 38.2583 143.977 37.3366 143.2 36.5702C142.473 35.797 141.587 35.191 140.603 34.7939C139.619 34.3968 138.56 34.2181 137.5 34.2702C136.134 34.2449 134.786 34.5904 133.6 35.2702C132.371 35.967 131.339 36.9649 130.6 38.1702C130.188 38.842 129.916 39.5904 129.8 40.3702C129.503 41.3748 129.401 42.4272 129.5 43.4702ZM111 43.3702C110.872 41.3126 111.513 39.2807 112.8 37.6702C113.382 36.9705 114.118 36.4163 114.952 36.0517C115.785 35.6871 116.692 35.5222 117.6 35.5702C118.48 35.5594 119.352 35.7316 120.161 36.0759C120.97 36.4202 121.699 36.9291 122.3 37.5702C123.56 38.926 124.242 40.7197 124.2 42.5702C124.236 43.4885 124.086 44.4045 123.759 45.2636C123.433 46.1227 122.937 46.9071 122.3 47.5702C121.699 48.2113 120.97 48.7201 120.161 49.0644C119.352 49.4087 118.48 49.581 117.6 49.5702C116.59 49.5882 115.591 49.3472 114.7 48.8702C113.6 48.4353 112.657 47.6768 111.996 46.6948C111.336 45.7128 110.988 44.5536 111 43.3702ZM109.7 43.4702V55.3702H111.1V47.3702C111.984 48.6518 113.241 49.6297 114.7 50.1702C115.622 50.5375 116.609 50.7079 117.6 50.6702C118.695 50.6743 119.781 50.4707 120.8 50.0702C121.797 49.6838 122.688 49.067 123.4 48.2702C124.116 47.4727 124.69 46.5598 125.1 45.5702C125.501 44.551 125.704 43.4652 125.7 42.3702C125.753 41.2803 125.576 40.1915 125.18 39.1749C124.783 38.1583 124.177 37.2366 123.4 36.4702C122.673 35.697 121.787 35.091 120.803 34.6939C119.819 34.2967 118.76 34.1181 117.7 34.1702C116.334 34.1449 114.986 34.4904 113.8 35.1702C112.571 35.867 111.539 36.8649 110.8 38.0702C110.388 38.742 110.116 39.4904 110 40.2702C109.703 41.309 109.601 42.3941 109.7 43.4702ZM164.2 40.3702C164.04 39.6026 163.77 38.8618 163.4 38.1702C162.693 37.0019 161.695 36.0373 160.503 35.3712C159.311 34.705 157.966 34.3601 156.6 34.3702C155.542 34.3317 154.487 34.5167 153.505 34.913C152.523 35.3093 151.636 35.908 150.9 36.6702C150.151 37.4359 149.562 38.3431 149.167 39.3389C148.772 40.3347 148.58 41.3991 148.6 42.4702C148.606 43.5643 148.809 44.6485 149.2 45.6702C149.61 46.6598 150.185 47.5727 150.9 48.3702C151.613 49.167 152.504 49.7838 153.5 50.1702C154.52 50.5707 155.605 50.7743 156.7 50.7702C157.991 50.7634 159.261 50.4518 160.408 49.861C161.555 49.2701 162.546 48.4167 163.3 47.3702V50.4702H164.7V43.4702C164.5 42.4702 164.4 41.4702 164.2 40.3702Z" fill="#38BFC4"/>
<path id="Vector_5" d="M49.1003 23.67C49.046 23.6765 48.991 23.6709 48.9391 23.6536C48.8872 23.6363 48.8398 23.6078 48.8003 23.57C48.3967 23.458 48.0437 23.2109 47.8003 22.87C47.1003 21.67 47.3003 21.57 50.8003 18.47L53.3003 16.37C46.8003 20.27 46.7003 20.17 46.0003 19.97C45.6245 19.8551 45.3042 19.6059 45.1003 19.27C44.4003 18.07 44.6003 17.97 48.4003 14.67L51.2003 12.37C46.7003 14.97 46.6003 14.97 46.0003 14.77C45.5967 14.658 45.2437 14.4109 45.0003 14.07C44.5003 13.17 44.4003 12.97 48.6003 8.56994C46.6003 9.66994 46.5003 9.66994 46.0003 9.56994C45.7928 9.53297 45.5958 9.45119 45.4231 9.33029C45.2503 9.2094 45.1061 9.05229 45.0003 8.86994C44.5003 8.36994 44.5003 8.36994 45.5003 4.76994C45.7138 4.11586 45.8809 3.44754 46.0003 2.76994C45.7003 2.86994 45.0003 1.76994 46.2003 1.36994C47.1003 0.96994 48.2003 0.16994 49.0003 1.46994C49.3003 2.06994 49.4003 2.06994 48.6003 5.06994L50.5003 3.86994C56.3003 0.46994 56.3003 0.46994 57.0003 0.66994C57.4039 0.781949 57.7569 1.02904 58.0003 1.36994C58.6003 2.36994 58.6003 2.36994 54.4003 6.96994L55.4003 6.36994C65.5003 0.36994 65.5003 0.36994 66.3003 0.66994C66.6761 0.784838 66.9964 1.03401 67.2003 1.36994C67.9003 2.56994 67.7003 2.66994 63.8003 5.96994L61.0003 8.26994C66.0003 5.36994 66.1003 5.36994 66.7003 5.56994C67.0761 5.68483 67.3964 5.934 67.6003 6.26994C68.3003 7.46994 68.1003 7.56994 64.6003 10.57L62.2003 12.67C66.0003 10.47 66.1003 10.57 66.7003 10.67C67.0761 10.7849 67.3964 11.034 67.6003 11.37C68.1003 12.27 68.2003 12.37 64.8003 16.47C66.1003 15.77 66.2003 15.87 66.7003 15.87C67.0914 15.9866 67.4231 16.2484 67.6276 16.6015C67.8321 16.9547 67.8939 17.3727 67.8003 17.77C67.7558 18.0029 67.6484 18.2192 67.4897 18.3955C67.3311 18.5717 67.1273 18.7012 66.9003 18.77C66.6003 18.87 64.5003 20.17 63.0003 21.07C58.5003 23.77 58.5003 23.77 57.8003 23.57C57.3967 23.458 57.0437 23.2109 56.8003 22.87C56.3003 21.97 56.2003 21.87 59.7003 17.77L58.5003 18.47C50.9003 22.97 49.7003 23.67 49.1003 23.67Z" fill="#006495"/>
<path id="Vector_6" d="M41.0001 50.4703V34.5703H42.3001V37.6703C42.8874 36.6827 43.7124 35.8576 44.7001 35.2703C45.6907 34.7603 46.786 34.4865 47.9001 34.4703H48.3001C48.5052 34.4545 48.7111 34.4888 48.9001 34.5703V35.8703H48.8001C48.4649 35.8587 48.1309 35.8253 47.8001 35.7703C47.0803 35.7545 46.366 35.8988 45.7088 36.1928C45.0517 36.4868 44.468 36.9231 44.0001 37.4703C42.9622 38.734 42.428 40.3366 42.5001 41.9703V50.3703L41.0001 50.4703ZM33.3001 34.5703H34.7001V43.5703C34.8118 45.5038 34.1661 47.4047 32.9001 48.8703C32.3067 49.5158 31.577 50.0212 30.7641 50.3498C29.9512 50.6784 29.0754 50.8221 28.2001 50.7703C27.3248 50.8221 26.4489 50.6784 25.636 50.3498C24.8231 50.0212 24.0935 49.5158 23.5001 48.8703C22.2616 47.3891 21.6198 45.4994 21.7001 43.5703V34.5703H23.1001V43.9703C23.0475 44.6973 23.1446 45.4274 23.3854 46.1154C23.6262 46.8034 24.0056 47.4347 24.5001 47.9703C24.9658 48.4805 25.5398 48.88 26.1801 49.1396C26.8203 49.3991 27.5105 49.5121 28.2001 49.4703C28.8857 49.4797 29.5662 49.3518 30.2017 49.0942C30.8371 48.8366 31.4146 48.4545 31.9001 47.9703C32.3945 47.4347 32.7739 46.8034 33.0147 46.1154C33.2555 45.4274 33.3526 44.6973 33.3001 43.9703V34.5703ZM3.90006 37.5703C4.50194 36.9292 5.23061 36.4203 6.03974 36.076C6.84887 35.7317 7.72078 35.5595 8.60006 35.5703C9.56569 35.5665 10.5208 35.7711 11.4001 36.1703C12.2497 36.5697 12.9754 37.1917 13.5001 37.9703L2.50006 45.3703C2.10043 44.4559 1.89608 43.4682 1.90006 42.4703C1.89979 40.6381 2.61784 38.8789 3.90006 37.5703ZM15.1001 42.6703C15.0574 44.4937 14.3456 46.2378 13.1001 47.5703C12.5206 48.2063 11.8078 48.7064 11.0126 49.0348C10.2174 49.3633 9.35942 49.512 8.50006 49.4703C7.62078 49.4811 6.74887 49.3088 5.93974 48.9645C5.1306 48.6202 4.40194 48.1114 3.80006 47.4703C3.5093 47.157 3.24192 46.8227 3.00006 46.4703L15.3001 38.2703C14.6032 37.0407 13.6053 36.0084 12.4001 35.2703C11.2144 34.5905 9.86655 34.245 8.50006 34.2703C7.42143 34.2586 6.35158 34.4652 5.35485 34.8777C4.35811 35.2901 3.45509 35.8999 2.70006 36.6703C1.28022 38.3079 0.499041 40.4029 0.500061 42.5703C0.49595 43.6653 0.699548 44.7511 1.10006 45.7703C1.50931 46.7838 2.12191 47.7027 2.90006 48.4703C3.64432 49.2051 4.52843 49.7832 5.50006 50.1703C6.45215 50.5614 7.47077 50.7651 8.50006 50.7703C9.53911 50.7756 10.5689 50.575 11.5301 50.1803C12.4912 49.7855 13.3647 49.2043 14.1001 48.4703C15.6224 46.9129 16.5131 44.8464 16.6001 42.6703H15.1001ZM52.8001 42.4703C52.7471 43.3905 52.889 44.3115 53.2164 45.1731C53.5438 46.0347 54.0494 46.8175 54.7001 47.4703C55.2694 48.0842 55.9546 48.5792 56.7162 48.9268C57.4778 49.2745 58.3008 49.4678 59.1375 49.4957C59.9743 49.5236 60.8083 49.3855 61.5914 49.0893C62.3745 48.7932 63.0912 48.3449 63.7001 47.7703L64.0001 47.4703C65.2085 46.1045 65.8756 44.3439 65.8756 42.5203C65.8756 40.6967 65.2085 38.936 64.0001 37.5703C62.8301 36.329 61.2167 35.6008 59.5119 35.5446C57.8071 35.4884 56.1492 36.1087 54.9001 37.2703L54.6001 37.5703C53.9911 38.2276 53.5185 38.999 53.2096 39.8401C52.9006 40.6812 52.7614 41.5751 52.8001 42.4703ZM51.3001 42.5703C51.2959 41.4753 51.4995 40.3894 51.9001 39.3703C52.3093 38.3568 52.9219 37.4379 53.7001 36.6703C54.4125 35.8734 55.3035 35.2566 56.3001 34.8703C58.2547 34.0701 60.4455 34.0701 62.4001 34.8703C63.3967 35.2566 64.2876 35.8734 65.0001 36.6703C65.7459 37.464 66.3543 38.3765 66.8001 39.3703C67.6004 41.4286 67.6004 43.712 66.8001 45.7703C66.4141 46.7671 65.7972 47.6581 65.0001 48.3703C64.2876 49.1671 63.3967 49.7839 62.4001 50.1703C60.4108 50.9701 58.1893 50.9701 56.2001 50.1703C55.2035 49.7839 54.3125 49.1671 53.6001 48.3703C52.8219 47.6027 52.2093 46.6838 51.8001 45.6703C51.6001 44.6703 51.4001 43.5703 51.3001 42.5703Z" fill="white"/>
<path id="Vector_7" d="M171.49 27.9156C171.52 28.4992 171.426 29.0825 171.215 29.629C171.003 30.1755 170.679 30.6734 170.262 31.0914C169.844 31.5095 169.343 31.8388 168.79 32.0585C168.237 32.2783 167.643 32.3839 167.046 32.3687C165.826 32.3547 164.662 31.8673 163.809 31.0136C162.957 30.16 162.486 29.0101 162.5 27.8168C162.515 26.6236 163.013 25.4848 163.885 24.6509C164.758 23.817 165.934 23.3564 167.153 23.3704C167.749 23.3709 168.339 23.4911 168.885 23.7236C169.432 23.9562 169.923 24.2961 170.33 24.7223C170.737 25.1484 171.049 25.6518 171.249 26.2011C171.448 26.7505 171.53 27.334 171.49 27.9156ZM170.843 27.9156C170.857 27.1797 170.646 26.4565 170.237 25.8385C169.828 25.2205 169.24 24.7358 168.548 24.4463C167.857 24.1567 167.092 24.0755 166.353 24.2129C165.614 24.3504 164.933 24.7003 164.398 25.218C163.863 25.7357 163.498 26.3976 163.35 27.1192C163.201 27.8408 163.276 28.5894 163.564 29.2692C163.853 29.9491 164.342 30.5294 164.969 30.9359C165.597 31.3425 166.334 31.557 167.086 31.5518C168.072 31.5383 169.015 31.1499 169.713 30.4688C170.412 29.7876 170.813 28.8673 170.83 27.9025L170.843 27.9156Z" fill="#006495"/>
<path id="Vector_8" d="M165.54 27.8488C165.54 27.1664 165.54 26.4562 165.54 25.7877C165.54 25.5092 165.634 25.3839 165.916 25.3839C166.668 25.3486 167.422 25.3812 168.169 25.4813C168.933 25.6345 169.282 26.1637 169.161 27.1107C169.161 27.2858 169.116 27.4577 169.031 27.6092C168.946 27.7607 168.825 27.8865 168.679 27.9741C168.451 28.0994 168.41 28.2805 168.585 28.5172C168.856 28.8828 169.106 29.2641 169.336 29.6591C169.443 29.8541 169.644 30.1048 169.336 30.3137C169.191 30.374 169.033 30.3863 168.881 30.3489C168.73 30.3115 168.594 30.2262 168.491 30.1048C168.223 29.6731 167.954 29.2414 167.673 28.8096C167.537 28.6151 167.348 28.4664 167.131 28.3822C166.914 28.298 166.678 28.282 166.452 28.3362C166.251 28.3362 166.238 28.5172 166.238 28.6704C166.238 29.1021 166.238 29.5338 166.238 29.9655C166.238 30.3972 166.13 30.3415 165.876 30.3415C165.621 30.3415 165.5 30.258 165.5 29.9794C165.54 29.2692 165.54 28.559 165.54 27.8488ZM167.176 26.3169C166.211 26.3169 166.171 26.3169 166.264 27.1942V27.2778C166.264 27.3892 166.264 27.4728 166.439 27.4728C166.985 27.5572 167.542 27.4997 168.062 27.3056C168.154 27.2615 168.23 27.1874 168.279 27.0945C168.327 27.0016 168.345 26.8948 168.33 26.7904C168.33 26.5815 168.156 26.4562 167.954 26.4005C167.701 26.3289 167.438 26.3007 167.176 26.3169Z" fill="#006495"/>
</g>
</g>
</g>
</g>
</svg>
