<svg width="193" height="41" viewBox="0 0 193 41" fill="none" xmlns="http://www.w3.org/2000/svg">
<g id="logo-big-svg 1">
<path id="Vector" d="M69.1996 32.4471C65.9157 32.4471 63.4226 31.7436 61.2932 29.5688L64.0301 26.8218C65.4031 28.1976 67.2533 28.657 69.2293 28.657C71.7534 28.657 73.091 27.6784 73.091 25.9342C73.091 25.1996 72.8782 24.5883 72.4228 24.1289C71.9971 23.7306 71.5715 23.5475 70.4776 23.3944L67.8929 22.9972C65.9775 22.7221 64.6697 22.1406 63.6972 21.192C62.6674 20.1823 62.1456 18.7443 62.1456 16.908C62.1456 13.0224 65.0061 10.2996 69.687 10.2996C72.6619 10.2996 74.8256 11.0341 76.6803 12.8393L74.0052 15.5011C72.6665 14.1852 70.9948 14.0044 69.5657 14.0044C67.3151 14.0044 66.2476 15.2582 66.2476 16.7572C66.2476 17.3386 66.3997 17.8901 66.8551 18.3183C67.2819 18.7155 67.9204 19.0218 68.8323 19.1438L71.417 19.5422C73.393 19.8173 74.6093 20.3377 75.5521 21.2553C76.7078 22.326 77.2238 23.886 77.2238 25.8444C77.2261 30.0604 73.7603 32.4471 69.1996 32.4471Z" fill="#090C0C"/>
<path id="Vector_2" d="M85.8637 32.2639C82.6406 32.2639 81.2721 29.9693 81.2721 27.7047V19.8115H79.5981V16.7824H81.271V12.0713H85.2241V16.7824H88.0217V19.8115H85.2241V27.4607C85.2241 28.3817 85.6498 28.8986 86.5972 28.8986H88.0263V32.2639H85.8637Z" fill="#090C0C"/>
<path id="Vector_3" d="M99.5756 32.264V30.8825C98.5115 31.9532 97.508 32.4126 95.6853 32.4126C93.8912 32.4126 92.5525 31.9233 91.6406 31.0045C90.7893 30.118 90.3328 28.832 90.3328 27.4251C90.3328 24.8854 92.0662 22.805 95.8066 22.805H99.4794V22.0094C99.4794 20.2664 98.6282 19.5008 96.5308 19.5008C95.1018 19.5008 94.3409 19.8991 93.4896 20.8823L91.001 18.4047C92.5514 16.6905 94.0422 16.1401 96.6876 16.1401C101.157 16.1401 103.438 18.0375 103.438 21.77V32.264H99.5756ZM99.4794 25.5324H96.4702C94.8889 25.5324 94.128 26.1748 94.128 27.3687C94.128 28.4705 94.8889 29.174 96.5308 29.174C97.5034 29.174 98.2025 29.0519 98.8719 28.4084C99.3295 28.0112 99.4794 27.3987 99.4794 26.3901V25.5324Z" fill="#090C0C"/>
<path id="Vector_4" d="M116.299 20.6682C115.69 20.0568 115.173 19.7195 114.201 19.7195C112.984 19.7195 111.647 20.6406 111.647 22.6565V32.264H107.695V16.3232H111.556V17.8533C112.316 16.9322 113.837 16.1401 115.539 16.1401C117.09 16.1401 118.185 16.5373 119.28 17.6368L116.299 20.6682Z" fill="#090C0C"/>
<path id="Vector_5" d="M129.405 32.4471C126.152 32.4471 123.841 31.6826 121.739 29.5688L123.901 27.3975C125.483 28.9886 127.277 29.5089 129.465 29.5089C132.326 29.5089 133.936 28.2851 133.936 26.1437C133.936 25.1651 133.692 24.3995 133.085 23.8791C132.536 23.3898 131.808 23.1146 130.713 22.9581L128.159 22.5908C126.394 22.3156 125.026 21.7653 124.084 20.8466C123.02 19.868 122.472 18.4611 122.472 16.6559C122.472 12.8623 125.209 10.2915 129.709 10.2915C132.598 10.2915 134.574 11.026 136.429 12.7702L134.361 14.8506C133.024 13.5658 131.443 13.1674 129.588 13.1674C127.033 13.1674 125.666 14.5755 125.666 16.5638C125.666 17.3593 125.878 18.0938 126.455 18.5831C127.003 19.0724 127.642 19.3787 128.827 19.5617L131.412 19.9601C133.389 20.2663 134.483 20.7246 135.426 21.5811C136.581 22.6518 137.189 24.152 137.189 26.0481C137.189 30.0604 133.966 32.4471 129.405 32.4471Z" fill="#7E499B"/>
<path id="Vector_6" d="M158.808 32.264V22.8095C158.808 20.3918 157.435 19.3556 155.707 19.3556C154.035 19.3556 152.514 20.4264 152.514 22.6599V32.2674H149.413V22.8095C149.413 20.3918 148.04 19.3556 146.311 19.3556C144.582 19.3556 143.119 20.4264 143.119 22.8095V32.264H140.017V16.7514H143.058V18.3126C144.088 17.1808 145.612 16.5684 147.163 16.5684C149.078 16.5684 150.568 17.3328 151.541 18.833C152.787 17.3029 154.339 16.5684 156.376 16.5684C157.957 16.5684 159.35 17.0887 160.266 17.9752C161.451 19.1381 161.908 20.6071 161.908 22.3502V32.2628L158.808 32.264Z" fill="#7E499B"/>
<path id="Vector_7" d="M165.377 13.697V10.3882H168.661V13.697H165.377ZM165.468 32.2686V16.7514H168.569V32.264L165.468 32.2686Z" fill="#7E499B"/>
<path id="Vector_8" d="M176.414 32.2639C173.465 32.2639 172.188 30.2756 172.188 27.9799V10.4802H175.289V27.7969C175.289 28.9896 175.715 29.6021 176.962 29.6021H178.335V32.2639H176.414Z" fill="#7E499B"/>
<path id="Vector_9" d="M182.495 25.4104C182.495 28.1033 183.868 29.7554 186.419 29.7554C188.151 29.7554 189.064 29.2661 190.158 28.1643L192.135 30.0305C190.554 31.6216 189.064 32.4483 186.357 32.4483C182.495 32.4483 179.424 30.399 179.424 24.494C179.424 19.4455 182.009 16.5696 185.962 16.5696C190.097 16.5696 192.5 19.563 192.5 24.0956V25.4115L182.495 25.4104ZM189.002 21.1276C188.486 19.9648 187.422 19.1704 185.962 19.1704C184.475 19.1704 183.408 19.9659 182.891 21.1276C182.587 21.7999 182.526 22.2892 182.495 23.2379H189.428C189.367 22.2892 189.307 21.7999 189.002 21.1276Z" fill="#7E499B"/>
<path id="Vector_10" d="M45.0675 5.89356C45.6673 10.3678 44.5892 14.9064 42.0435 18.6242C39.4978 22.3419 35.6671 24.9722 31.2985 26.0019C26.9298 27.0317 22.3366 26.3871 18.4148 24.1938C14.4929 22.0005 11.5236 18.4159 10.0861 14.1391L0.500061 16.9023C4.10083 28.2656 14.6755 36.4962 27.1597 36.4962C42.6132 36.4962 55.1409 23.8906 55.1409 8.34121C55.141 6.82418 55.0201 5.30959 54.7794 3.81201L45.0675 5.89356Z" fill="#F3007A"/>
<path id="Vector_11" d="M25.4662 0.80249L24.2957 10.2236L14.9957 12.8738L23.5554 16.8182L23.2579 26.7366L29.9377 19.5456L38.7983 22.8556L34.2158 14.5144L40.1324 6.85831L30.7798 8.77867L25.4662 0.80249Z" fill="#F3007A"/>
<path id="Vector_12" d="M61.2246 35.4897H62.4832C63.0225 35.4897 63.4306 35.5665 63.7075 35.72C63.9844 35.8735 64.1225 36.1421 64.1217 36.5259C64.124 36.6686 64.0991 36.8105 64.0485 36.9438C64.0046 37.0622 63.9318 37.1675 63.8368 37.2501C63.7391 37.3335 63.6202 37.3877 63.4935 37.4067V37.4343C63.6228 37.4599 63.7464 37.5086 63.8585 37.5782C63.9716 37.6497 64.0624 37.7519 64.1206 37.8729C64.1926 38.0345 64.2263 38.2107 64.219 38.3876C64.2254 38.6126 64.1627 38.8341 64.0393 39.0219C63.9112 39.2047 63.7326 39.3456 63.5256 39.4272C63.2732 39.5268 63.0036 39.5746 62.7327 39.5676H61.2246V35.4897ZM62.0828 37.1016H62.5816C62.8311 37.1016 63.0027 37.0624 63.0988 36.9864C63.1476 36.9439 63.186 36.8906 63.211 36.8307C63.236 36.7708 63.2469 36.7059 63.243 36.641C63.2482 36.5746 63.2351 36.508 63.205 36.4487C63.1749 36.3894 63.129 36.3396 63.0725 36.3049C62.9047 36.2257 62.7196 36.1908 62.5347 36.2035H62.077L62.0828 37.1016ZM62.0828 37.7866V38.8481H62.6423C62.9009 38.8481 63.0809 38.7978 63.1823 38.6973C63.2339 38.6443 63.2741 38.5811 63.3003 38.5118C63.3265 38.4425 63.3381 38.3684 63.3345 38.2943C63.3368 38.2016 63.3138 38.11 63.2681 38.0295C63.2155 37.9467 63.137 37.8839 63.045 37.8511C62.9069 37.8027 62.761 37.7808 62.6148 37.7866H62.0828Z" fill="#3A3A3A"/>
<path id="Vector_13" d="M65.013 39.5621V36.4536H65.8574V37.6567H66.2636C66.528 37.6498 66.7919 37.6836 67.0462 37.7569C67.2273 37.8067 67.3877 37.9136 67.5039 38.062C67.608 38.2122 67.6606 38.3925 67.6538 38.5755C67.6583 38.7598 67.6103 38.9416 67.5153 39.0993C67.4099 39.2583 67.2568 39.3793 67.0783 39.4447C66.827 39.5348 66.5611 39.5763 66.2945 39.5667L65.013 39.5621ZM65.8574 38.975H66.2476C66.3878 38.9808 66.5271 38.9494 66.6515 38.884C66.7035 38.8539 66.7459 38.8096 66.7739 38.7562C66.8018 38.7028 66.8141 38.6425 66.8094 38.5824C66.8127 38.5293 66.8009 38.4764 66.7754 38.4299C66.7499 38.3834 66.7116 38.3452 66.6652 38.3199C66.5307 38.2586 66.3835 38.2309 66.2361 38.2393H65.8574V38.975ZM68.1023 39.5621V36.4536H68.9467V39.5621H68.1023Z" fill="#3A3A3A"/>
<path id="Vector_14" d="M71.5992 36.3902C71.7622 36.3861 71.9239 36.421 72.0709 36.4921C72.2179 36.5631 72.346 36.6683 72.4447 36.7989C72.6598 37.0714 72.7674 37.4717 72.7674 37.9997C72.7763 38.3036 72.7246 38.6063 72.6152 38.8897C72.5312 39.1089 72.3847 39.2984 72.1941 39.4342C72.0121 39.5577 71.7969 39.6219 71.5774 39.6185C71.447 39.6213 71.317 39.6018 71.193 39.5609C71.094 39.5273 71.0012 39.4775 70.9184 39.4135C70.8465 39.3559 70.7805 39.2911 70.7216 39.2201H70.6781C70.693 39.2938 70.7033 39.3698 70.7113 39.4504C70.7193 39.531 70.7216 39.6046 70.7216 39.6806V40.9378H69.8783V36.4489H70.5648L70.6792 36.8519H70.717C70.7747 36.7669 70.8427 36.6896 70.9195 36.6216C71.0034 36.5475 71.1004 36.4901 71.2056 36.4524C71.332 36.4082 71.4653 36.3872 71.5992 36.3902ZM71.3326 37.0683C71.2089 37.062 71.0862 37.0942 70.9813 37.1604C70.8896 37.2286 70.8229 37.3254 70.7914 37.4356C70.7488 37.5854 70.7268 37.7403 70.7261 37.8961V37.9882C70.723 38.16 70.7422 38.3315 70.7834 38.4982C70.8117 38.622 70.8787 38.7333 70.9744 38.816C71.0815 38.8939 71.2121 38.9322 71.344 38.9242C71.4597 38.9292 71.5731 38.8906 71.6621 38.816C71.7536 38.7301 71.8184 38.6193 71.8486 38.4971C71.8912 38.3314 71.9101 38.1604 71.9047 37.9894C71.9203 37.7504 71.8713 37.5117 71.7628 37.2986C71.7183 37.2248 71.6549 37.1644 71.5792 37.1239C71.5034 37.0833 71.4182 37.0641 71.3326 37.0683Z" fill="#3A3A3A"/>
<path id="Vector_15" d="M74.7789 36.3846C75.1946 36.3846 75.5127 36.4755 75.7332 36.6574C75.9536 36.8393 76.0646 37.116 76.0661 37.4875V39.5598H75.4757L75.3132 39.1408H75.2903C75.2111 39.2423 75.1201 39.3339 75.0192 39.4136C74.9239 39.4853 74.816 39.538 74.7011 39.569C74.5583 39.6054 74.4113 39.6224 74.264 39.6197C74.0941 39.6223 73.9259 39.5861 73.772 39.5138C73.6274 39.4433 73.5076 39.33 73.4287 39.1891C73.3405 39.0176 73.2979 38.826 73.3052 38.633C73.2947 38.4917 73.3208 38.3501 73.381 38.222C73.4411 38.0938 73.5333 37.9836 73.6484 37.902C73.8773 37.7485 74.2232 37.6617 74.6862 37.6418L75.224 37.6245V37.4886C75.2294 37.423 75.2207 37.357 75.1986 37.2951C75.1765 37.2331 75.1415 37.1766 75.0958 37.1294C74.9964 37.0479 74.8703 37.0068 74.7423 37.0143C74.5932 37.014 74.4448 37.0354 74.3018 37.0776C74.1543 37.1214 74.0102 37.1756 73.8704 37.24L73.5901 36.6643C73.7653 36.5733 73.9509 36.5041 74.1427 36.4582C74.3511 36.4082 74.5647 36.3835 74.7789 36.3846ZM75.2228 38.1196L74.8956 38.1311C74.6221 38.138 74.4379 38.1875 74.3235 38.2784C74.2716 38.3222 74.2303 38.3773 74.2027 38.4395C74.1751 38.5018 74.1621 38.5695 74.1645 38.6376C74.1595 38.6898 74.1674 38.7423 74.1873 38.7907C74.2073 38.8391 74.2387 38.8818 74.2789 38.9151C74.3667 38.973 74.4704 39.0017 74.5752 38.9968C74.7422 39.0009 74.9049 38.9436 75.0329 38.8357C75.0964 38.7779 75.1463 38.7066 75.1788 38.6269C75.2112 38.5472 75.2255 38.4611 75.2205 38.3751L75.2228 38.1196Z" fill="#3A3A3A"/>
<path id="Vector_16" d="M79.7227 37.264C79.7266 37.4215 79.671 37.5745 79.5671 37.6923C79.4456 37.8199 79.2838 37.9013 79.1094 37.9226V37.9445C79.3014 37.9612 79.4828 38.0399 79.6266 38.169C79.6908 38.2279 79.7415 38.3001 79.7755 38.3805C79.8094 38.461 79.8258 38.5478 79.8234 38.6352C79.8261 38.8049 79.7779 38.9714 79.685 39.113C79.576 39.2665 79.4225 39.3823 79.2456 39.4446C78.9921 39.5336 78.7244 39.5746 78.4561 39.5655H76.9801V36.457H78.4527C78.672 36.4543 78.8908 36.4798 79.1037 36.533C79.2774 36.5718 79.4363 36.6601 79.5614 36.7874C79.6737 36.9197 79.7314 37.0903 79.7227 37.264ZM78.868 37.3308C78.8707 37.2879 78.8614 37.2451 78.8412 37.2073C78.821 37.1695 78.7906 37.1381 78.7536 37.1167C78.6499 37.0643 78.5342 37.0405 78.4184 37.0476H77.8234V37.6624H78.3211C78.4611 37.6706 78.601 37.6442 78.7284 37.5852C78.7734 37.5607 78.8105 37.5237 78.8352 37.4786C78.86 37.4335 78.8714 37.3822 78.868 37.3308ZM78.9458 38.588C78.9495 38.5346 78.9381 38.4812 78.9127 38.4341C78.8874 38.387 78.8493 38.3482 78.8028 38.3221C78.6713 38.2589 78.526 38.2304 78.3806 38.2392H77.8245V38.9749H78.3966C78.533 38.9801 78.6683 38.9491 78.7891 38.8851C78.8407 38.8558 78.8828 38.8123 78.9106 38.7596C78.9384 38.707 78.9506 38.6474 78.9458 38.588Z" fill="#3A3A3A"/>
<path id="Vector_17" d="M81.4357 36.4488V37.6439H82.6142V36.4465H83.4609V39.555H82.6142V38.2782H81.4357V39.5619H80.5912V36.4534L81.4357 36.4488Z" fill="#3A3A3A"/>
<path id="Vector_18" d="M85.2069 36.4489V37.6797C85.2069 37.7426 85.2046 37.8221 85.2 37.918C85.2 38.0136 85.1885 38.1103 85.1817 38.2093C85.1748 38.3083 85.1668 38.3958 85.1588 38.4729C85.1508 38.5501 85.1462 38.6042 85.1428 38.6318L86.5707 36.4443H87.5868V39.5528H86.7698V38.3198C86.7698 38.2185 86.7698 38.1057 86.7813 37.9813C86.7927 37.857 86.7973 37.7418 86.8064 37.6359C86.8156 37.53 86.8225 37.4437 86.8259 37.3872L85.4059 39.562H84.3933V36.4535L85.2069 36.4489Z" fill="#3A3A3A"/>
<path id="Vector_19" d="M91.261 37.264C91.2649 37.4215 91.2093 37.5745 91.1054 37.6923C90.9838 37.8199 90.8221 37.9013 90.6477 37.9226V37.9445C90.8396 37.9612 91.0211 38.0399 91.1649 38.169C91.229 38.2279 91.2798 38.3001 91.3137 38.3805C91.3477 38.461 91.364 38.5478 91.3617 38.6352C91.3644 38.8049 91.3161 38.9714 91.2232 39.113C91.1143 39.2665 90.9608 39.3823 90.7838 39.4446C90.5304 39.5336 90.2627 39.5746 89.9943 39.5655H88.5183V36.457H89.9909C90.2103 36.4543 90.429 36.4798 90.642 36.533C90.8156 36.5718 90.9745 36.6601 91.0996 36.7874C91.2119 36.9197 91.2696 37.0903 91.261 37.264ZM90.4063 37.3308C90.4089 37.2879 90.3996 37.2451 90.3794 37.2073C90.3592 37.1695 90.3289 37.1381 90.2918 37.1167C90.1881 37.0643 90.0724 37.0405 89.9566 37.0476H89.3616V37.6624H89.8593C89.9993 37.6706 90.1392 37.6442 90.2667 37.5852C90.3117 37.5607 90.3487 37.5237 90.3735 37.4786C90.3982 37.4335 90.4096 37.3822 90.4063 37.3308ZM90.4841 38.588C90.4878 38.5346 90.4763 38.4812 90.451 38.4341C90.4256 38.387 90.3875 38.3482 90.341 38.3221C90.2095 38.2589 90.0643 38.2304 89.9188 38.2392H89.3628V38.9749H89.9349C90.0712 38.9801 90.2066 38.9491 90.3273 38.8851C90.3789 38.8558 90.4211 38.8123 90.4489 38.7596C90.4766 38.707 90.4889 38.6474 90.4841 38.588Z" fill="#3A3A3A"/>
<path id="Vector_20" d="M93.3972 36.3846C93.813 36.3846 94.131 36.4755 94.3515 36.6574C94.5719 36.8393 94.6829 37.116 94.6845 37.4875V39.5598H94.094L93.9316 39.1408H93.9087C93.8295 39.2423 93.7384 39.3339 93.6375 39.4136C93.5423 39.4853 93.4343 39.538 93.3194 39.569C93.1766 39.6054 93.0296 39.6224 92.8824 39.6197C92.7125 39.6223 92.5443 39.5861 92.3903 39.5138C92.2457 39.4433 92.1259 39.33 92.0471 39.1891C91.9588 39.0176 91.9162 38.826 91.9235 38.633C91.9131 38.4917 91.9392 38.3501 91.9993 38.222C92.0595 38.0938 92.1516 37.9836 92.2668 37.902C92.4956 37.7485 92.8415 37.6617 93.3046 37.6418L93.8423 37.6245V37.4886C93.8477 37.423 93.8391 37.357 93.817 37.2951C93.7949 37.2331 93.7598 37.1766 93.7142 37.1294C93.6148 37.0479 93.4886 37.0068 93.3606 37.0143C93.2115 37.014 93.0632 37.0354 92.9201 37.0776C92.7727 37.1214 92.6285 37.1756 92.4887 37.24L92.2084 36.6643C92.3836 36.5733 92.5692 36.5041 92.7611 36.4582C92.9694 36.4082 93.183 36.3835 93.3972 36.3846ZM93.8458 38.1196L93.5185 38.1311C93.2451 38.138 93.0608 38.1875 92.9464 38.2784C92.8945 38.3222 92.8532 38.3773 92.8256 38.4395C92.7981 38.5018 92.785 38.5695 92.7874 38.6376C92.7824 38.6898 92.7903 38.7423 92.8102 38.7907C92.8302 38.8391 92.8616 38.8818 92.9018 38.9151C92.9896 38.973 93.0933 39.0017 93.1981 38.9968C93.3651 39.0009 93.5278 38.9436 93.6558 38.8357C93.7193 38.7779 93.7692 38.7066 93.8017 38.6269C93.8341 38.5472 93.8484 38.4611 93.8435 38.3751L93.8458 38.1196Z" fill="#3A3A3A"/>
<path id="Vector_21" d="M96.4429 36.4488V37.6439H97.6214V36.4465H98.4658V39.555H97.6214V38.2782H96.4429V39.5619H95.5984V36.4534L96.4429 36.4488Z" fill="#3A3A3A"/>
<path id="Vector_22" d="M100.214 36.4489V37.6797C100.214 37.7426 100.212 37.8221 100.207 37.918C100.207 38.0136 100.197 38.1103 100.189 38.2093C100.181 38.3083 100.174 38.3958 100.167 38.4729C100.16 38.5501 100.153 38.6042 100.15 38.6318L101.579 36.4443H102.594V39.5528H101.778V38.3198C101.778 38.2185 101.782 38.1057 101.788 37.9813C101.796 37.8581 101.804 37.7418 101.814 37.6359C101.823 37.53 101.83 37.4437 101.833 37.3872L100.411 39.5655H99.3971V36.457L100.214 36.4489Z" fill="#3A3A3A"/>
<path id="Vector_23" d="M104.802 36.3902C105.058 36.3834 105.312 36.4403 105.541 36.556C105.745 36.6639 105.912 36.8313 106.02 37.0361C106.139 37.2743 106.197 37.5386 106.189 37.8051V38.2196H104.192C104.19 38.4284 104.267 38.6302 104.407 38.7837C104.482 38.8543 104.569 38.9088 104.665 38.9441C104.761 38.9793 104.863 38.9945 104.965 38.9887C105.148 38.9904 105.33 38.9695 105.508 38.9265C105.682 38.8825 105.852 38.8212 106.014 38.7434V39.4008C105.861 39.4764 105.7 39.5325 105.533 39.5678C105.333 39.6058 105.13 39.6235 104.926 39.6207C104.642 39.6262 104.361 39.5671 104.103 39.448C103.866 39.335 103.67 39.1508 103.541 38.9207C103.396 38.6472 103.326 38.3396 103.338 38.0296C103.327 37.7161 103.39 37.4044 103.522 37.1201C103.634 36.8903 103.813 36.7 104.034 36.5744C104.271 36.4485 104.535 36.3851 104.802 36.3902ZM104.802 36.9946C104.727 36.9923 104.652 37.0051 104.582 37.0324C104.513 37.0597 104.449 37.1009 104.395 37.1535C104.274 37.2909 104.207 37.4683 104.207 37.652H105.393C105.393 37.5361 105.369 37.4213 105.324 37.3147C105.283 37.2205 105.216 37.1405 105.131 37.0844C105.034 37.023 104.921 36.9917 104.807 36.9946H104.802Z" fill="#3A3A3A"/>
<path id="Vector_24" d="M109.566 36.3902C109.777 36.3884 109.988 36.4179 110.192 36.4777C110.368 36.5266 110.53 36.6197 110.662 36.7482C110.722 36.8099 110.769 36.8833 110.8 36.9639C110.831 37.0444 110.845 37.1305 110.841 37.2168C110.846 37.2992 110.833 37.3815 110.804 37.4586C110.774 37.5357 110.73 37.6059 110.672 37.6647C110.546 37.782 110.392 37.8638 110.225 37.9018V37.9306C110.348 37.9588 110.467 38.0017 110.579 38.0584C110.682 38.1089 110.77 38.1855 110.833 38.2806C110.901 38.3933 110.933 38.5235 110.927 38.6548C110.927 38.8279 110.869 38.996 110.764 39.1326C110.633 39.2939 110.46 39.4158 110.265 39.4849C109.988 39.5823 109.695 39.6276 109.402 39.6184C109.245 39.6187 109.089 39.611 108.933 39.5954C108.797 39.5828 108.663 39.5609 108.53 39.5298C108.421 39.5053 108.315 39.4706 108.212 39.4261V38.7238C108.364 38.7923 108.522 38.8474 108.684 38.8885C108.879 38.9393 109.081 38.9644 109.283 38.9633C109.423 38.9642 109.562 38.9531 109.7 38.9299C109.806 38.9144 109.907 38.8751 109.996 38.8148C110.031 38.792 110.06 38.7604 110.08 38.7232C110.1 38.6859 110.111 38.6442 110.11 38.6018C110.111 38.5622 110.103 38.5229 110.086 38.4869C110.07 38.451 110.045 38.4194 110.014 38.3946C109.929 38.3301 109.829 38.2878 109.724 38.2714C109.56 38.2419 109.395 38.2284 109.229 38.2311H108.903V37.6439H109.205C109.424 37.6513 109.643 37.6277 109.855 37.5737C110.008 37.5277 110.084 37.4425 110.084 37.3181C110.086 37.2693 110.072 37.2213 110.046 37.1802C110.02 37.1391 109.982 37.1069 109.938 37.0879C109.783 37.0273 109.618 37.0013 109.452 37.0119C109.292 37.0155 109.133 37.0344 108.976 37.0683C108.808 37.1007 108.643 37.1497 108.484 37.2145L108.235 36.6216C108.424 36.5493 108.619 36.4931 108.817 36.4535C109.064 36.4072 109.315 36.386 109.566 36.3902Z" fill="#3A3A3A"/>
<path id="Vector_25" d="M111.188 36.449H112.112L112.697 38.2001C112.715 38.2565 112.731 38.3152 112.744 38.3705C112.757 38.4258 112.768 38.4856 112.777 38.5489C112.786 38.6123 112.794 38.6744 112.799 38.7412H112.816C112.826 38.6464 112.842 38.5523 112.862 38.4591C112.881 38.3714 112.906 38.2849 112.935 38.2001L113.507 36.449H114.412L113.102 39.9604C113.034 40.1579 112.929 40.3406 112.793 40.4992C112.672 40.6382 112.522 40.7489 112.354 40.8239C112.182 40.8979 111.997 40.9352 111.81 40.9333C111.727 40.934 111.644 40.9286 111.561 40.9172C111.491 40.9068 111.43 40.8964 111.381 40.8849V40.2114C111.42 40.2206 111.468 40.2287 111.528 40.2367C111.589 40.2438 111.651 40.2472 111.713 40.2471C111.819 40.2504 111.925 40.2246 112.017 40.1723C112.102 40.122 112.175 40.0532 112.23 39.9708C112.288 39.885 112.334 39.7916 112.366 39.6933L112.417 39.5402L111.188 36.449Z" fill="#3A3A3A"/>
<path id="Vector_26" d="M114.713 37.6958C114.704 37.2991 114.761 36.9036 114.883 36.5261C114.983 36.222 115.169 35.9541 115.419 35.7559C115.704 35.5473 116.036 35.4128 116.385 35.3644C116.584 35.3299 116.787 35.3 116.992 35.2769C117.198 35.2539 117.412 35.2274 117.633 35.1975L117.73 35.9412L117.418 35.9781L117.075 36.0184L116.743 36.0598L116.452 36.1001C116.289 36.1222 116.13 36.1692 115.981 36.2394C115.855 36.3044 115.753 36.4102 115.694 36.5399C115.616 36.7284 115.575 36.93 115.571 37.134H115.614C115.731 36.9526 115.903 36.8129 116.103 36.7345C116.236 36.6825 116.377 36.6571 116.519 36.6597C116.742 36.6543 116.963 36.707 117.161 36.8128C117.344 36.9191 117.491 37.08 117.581 37.2733C117.686 37.5097 117.737 37.7672 117.728 38.0262C117.739 38.3329 117.673 38.6373 117.536 38.9116C117.416 39.1398 117.23 39.3258 117.003 39.4446C116.758 39.5676 116.488 39.6288 116.214 39.6231C116.001 39.626 115.79 39.5832 115.594 39.4976C115.409 39.4137 115.246 39.2866 115.119 39.1269C114.979 38.9484 114.876 38.7432 114.816 38.5236C114.743 38.2541 114.708 37.9753 114.713 37.6958ZM116.266 38.93C116.376 38.9327 116.485 38.9052 116.581 38.8506C116.677 38.7886 116.751 38.6969 116.791 38.5892C116.847 38.4317 116.873 38.2648 116.867 38.0976C116.876 37.8931 116.834 37.6895 116.744 37.5059C116.702 37.4331 116.64 37.3739 116.566 37.3352C116.491 37.2964 116.408 37.2798 116.324 37.2871C116.206 37.2863 116.091 37.3165 115.988 37.3746C115.891 37.4281 115.802 37.4956 115.724 37.5749C115.666 37.6321 115.615 37.6963 115.574 37.7661C115.573 37.9092 115.585 38.0521 115.609 38.1932C115.63 38.323 115.668 38.4494 115.724 38.5685C115.77 38.6736 115.843 38.7645 115.935 38.8322C116.032 38.8996 116.148 38.9339 116.266 38.93Z" fill="#3A3A3A"/>
<path id="Vector_27" d="M121.286 37.9999C121.29 38.2343 121.255 38.4677 121.183 38.6907C121.119 38.8801 121.016 39.0536 120.881 39.1995C120.747 39.3384 120.585 39.4454 120.405 39.5127C120.204 39.5858 119.991 39.6217 119.778 39.6186C119.573 39.6208 119.37 39.5849 119.178 39.5127C119 39.4439 118.838 39.3371 118.704 39.1995C118.567 39.0538 118.461 38.8803 118.394 38.6907C118.317 38.4688 118.278 38.2351 118.28 37.9999C118.271 37.6971 118.333 37.3964 118.462 37.1226C118.576 36.8916 118.758 36.7012 118.982 36.5769C119.229 36.4478 119.505 36.3836 119.783 36.3904C120.052 36.3851 120.318 36.4493 120.555 36.5769C120.78 36.7026 120.964 36.8924 121.083 37.1226C121.222 37.3935 121.292 37.695 121.286 37.9999ZM119.146 37.9999C119.142 38.1742 119.165 38.3481 119.212 38.5157C119.246 38.6421 119.321 38.7538 119.424 38.8334C119.528 38.913 119.654 38.9562 119.784 38.9562C119.915 38.9562 120.041 38.913 120.145 38.8334C120.248 38.7538 120.323 38.6421 120.357 38.5157C120.403 38.3479 120.425 38.1741 120.421 37.9999C120.425 37.8264 120.404 37.6533 120.357 37.4864C120.323 37.3636 120.25 37.2553 120.149 37.1779C120.041 37.1054 119.912 37.0695 119.782 37.0754C119.688 37.0675 119.594 37.0846 119.508 37.125C119.423 37.1654 119.35 37.2277 119.296 37.3057C119.181 37.5181 119.13 37.7589 119.146 37.9999Z" fill="#3A3A3A"/>
<path id="Vector_28" d="M124.772 37.264C124.776 37.4215 124.72 37.5745 124.616 37.6923C124.495 37.8197 124.333 37.901 124.159 37.9226V37.9445C124.351 37.9612 124.532 38.0399 124.676 38.169C124.74 38.2279 124.791 38.3001 124.825 38.3805C124.859 38.461 124.875 38.5479 124.873 38.6352C124.875 38.8049 124.827 38.9714 124.734 39.113C124.625 39.2664 124.471 39.3821 124.294 39.4446C124.041 39.5337 123.773 39.5747 123.505 39.5655H122.033V36.457H123.508C123.727 36.4543 123.945 36.4798 124.157 36.533C124.331 36.572 124.49 36.6603 124.615 36.7874C124.726 36.9204 124.782 37.0909 124.772 37.264ZM123.917 37.3308C123.92 37.2879 123.911 37.2451 123.89 37.2073C123.87 37.1695 123.84 37.1381 123.803 37.1167C123.699 37.0643 123.584 37.0404 123.469 37.0476H122.874V37.6624H123.371C123.511 37.6705 123.651 37.6441 123.779 37.5852C123.823 37.5603 123.86 37.5232 123.885 37.4782C123.909 37.4331 123.92 37.3821 123.917 37.3308ZM123.994 38.588C123.998 38.5347 123.987 38.4814 123.961 38.4343C123.936 38.3871 123.898 38.3482 123.852 38.3221C123.72 38.2589 123.575 38.2304 123.43 38.2392H122.874V38.9749H123.446C123.583 38.9802 123.718 38.9492 123.839 38.8851C123.89 38.8554 123.932 38.8117 123.959 38.7591C123.987 38.7065 123.999 38.6472 123.994 38.588Z" fill="#3A3A3A"/>
<path id="Vector_29" d="M126.97 37.6958C126.961 37.2992 127.017 36.9038 127.138 36.5261C127.239 36.2224 127.425 35.9548 127.675 35.7559C127.96 35.5473 128.292 35.4128 128.641 35.3644C128.841 35.3299 129.043 35.3 129.249 35.2769C129.455 35.2539 129.668 35.2274 129.89 35.1975L129.987 35.9412L129.674 35.9781L129.33 36.0184L128.997 36.0598L128.707 36.1001C128.544 36.1224 128.385 36.1693 128.236 36.2394C128.109 36.304 128.008 36.4099 127.948 36.5399C127.871 36.7285 127.83 36.9301 127.827 37.134H127.868C127.921 37.0535 127.984 36.9807 128.057 36.9175C128.146 36.8393 128.248 36.7773 128.358 36.7345C128.49 36.6825 128.631 36.6571 128.773 36.6597C128.997 36.6543 129.218 36.707 129.416 36.8128C129.6 36.9188 129.746 37.0798 129.835 37.2733C129.941 37.5096 129.992 37.7671 129.984 38.0262C129.997 38.3317 129.934 38.6357 129.801 38.9104C129.68 39.1381 129.494 39.3239 129.267 39.4435C129.022 39.5664 128.751 39.6277 128.478 39.6219C128.265 39.6247 128.053 39.5819 127.858 39.4965C127.673 39.4119 127.51 39.2849 127.383 39.1257C127.243 38.9469 127.141 38.7418 127.081 38.5225C127.004 38.2538 126.967 37.9753 126.97 37.6958ZM128.522 38.93C128.632 38.9326 128.741 38.9052 128.836 38.8506C128.933 38.7893 129.007 38.6974 129.046 38.5892C129.104 38.432 129.13 38.265 129.123 38.0976C129.133 37.893 129.09 37.6892 129 37.5059C128.957 37.4333 128.896 37.3742 128.822 37.3355C128.748 37.2968 128.664 37.28 128.581 37.2871C128.463 37.2863 128.347 37.3165 128.244 37.3746C128.147 37.4281 128.058 37.4956 127.98 37.5749C127.922 37.6317 127.872 37.696 127.83 37.7661C127.83 37.9091 127.841 38.052 127.865 38.1932C127.886 38.3229 127.924 38.4492 127.979 38.5685C128.026 38.6733 128.099 38.7641 128.191 38.8322C128.288 38.8995 128.404 38.9338 128.522 38.93Z" fill="#3A3A3A"/>
<path id="Vector_30" d="M132.006 36.3902C132.262 36.3834 132.516 36.4403 132.745 36.556C132.949 36.6637 133.116 36.8311 133.224 37.0361C133.343 37.2744 133.401 37.5387 133.392 37.8051V38.2196H131.403C131.4 38.4282 131.477 38.6298 131.617 38.7837C131.691 38.8543 131.779 38.9089 131.875 38.9441C131.971 38.9793 132.073 38.9945 132.175 38.9887C132.358 38.9904 132.54 38.9695 132.717 38.9265C132.892 38.8825 133.062 38.8212 133.224 38.7434V39.4008C133.071 39.4764 132.91 39.5325 132.744 39.5678C132.543 39.6057 132.34 39.6235 132.136 39.6207C131.852 39.6263 131.57 39.5673 131.312 39.448C131.075 39.3346 130.879 39.1505 130.75 38.9207C130.606 38.647 130.535 38.3396 130.547 38.0296C130.536 37.7161 130.599 37.4045 130.731 37.1201C130.843 36.8901 131.022 36.6998 131.245 36.5744C131.479 36.4494 131.741 36.3861 132.006 36.3902ZM132.006 36.9946C131.93 36.9922 131.855 37.0051 131.785 37.0324C131.715 37.0597 131.651 37.1009 131.597 37.1535C131.476 37.2911 131.41 37.4685 131.411 37.652H132.595C132.596 37.5361 132.573 37.4212 132.527 37.3147C132.486 37.2207 132.419 37.1408 132.334 37.0844C132.237 37.0233 132.125 36.9921 132.011 36.9946H132.006Z" fill="#3A3A3A"/>
<path id="Vector_31" d="M135.252 36.3902C135.463 36.3883 135.673 36.4178 135.876 36.4777C136.054 36.5264 136.216 36.6194 136.348 36.7482C136.408 36.8101 136.454 36.8835 136.485 36.964C136.516 37.0446 136.53 37.1306 136.527 37.2168C136.532 37.2992 136.519 37.3816 136.489 37.4587C136.46 37.5357 136.416 37.6059 136.358 37.6647C136.232 37.7822 136.077 37.8641 135.909 37.9018V37.9306C136.033 37.9588 136.152 38.0017 136.265 38.0584C136.368 38.1089 136.455 38.1855 136.519 38.2806C136.586 38.3935 136.619 38.5235 136.613 38.6548C136.613 38.8279 136.555 38.996 136.45 39.1326C136.318 39.2939 136.145 39.4158 135.95 39.4849C135.673 39.5823 135.381 39.6276 135.088 39.6184C134.931 39.6187 134.775 39.611 134.619 39.5954C134.483 39.5829 134.349 39.5609 134.216 39.5298C134.107 39.5053 134 39.4706 133.897 39.4262V38.7239C134.049 38.7921 134.208 38.8472 134.369 38.8885C134.565 38.9393 134.767 38.9644 134.969 38.9633C135.108 38.9643 135.248 38.9531 135.385 38.93C135.492 38.9145 135.593 38.8751 135.682 38.8148C135.716 38.7912 135.744 38.7593 135.763 38.7221C135.782 38.685 135.791 38.6436 135.79 38.6018C135.792 38.5623 135.783 38.523 135.767 38.4871C135.751 38.4511 135.726 38.4195 135.696 38.3946C135.61 38.3301 135.51 38.2878 135.405 38.2714C135.242 38.2419 135.076 38.2284 134.911 38.2311H134.583V37.644H134.893C135.113 37.6514 135.332 37.6278 135.544 37.5737C135.697 37.5277 135.773 37.4425 135.773 37.3181C135.775 37.2694 135.762 37.2213 135.736 37.1802C135.709 37.1391 135.672 37.1069 135.627 37.0879C135.473 37.0273 135.307 37.0013 135.142 37.0119C134.98 37.0136 134.819 37.0309 134.66 37.0637C134.492 37.0959 134.327 37.1449 134.168 37.2099L133.919 36.617C134.108 36.5447 134.303 36.4885 134.501 36.4489C134.749 36.4039 135 36.3843 135.252 36.3902Z" fill="#3A3A3A"/>
<path id="Vector_32" d="M138.646 37.6958C138.637 37.2991 138.695 36.9037 138.816 36.5261C138.916 36.2222 139.103 35.9545 139.352 35.7559C139.638 35.5473 139.97 35.4128 140.319 35.3644C140.518 35.3299 140.721 35.3 140.927 35.2769C141.133 35.2539 141.345 35.2274 141.567 35.1975L141.664 35.9412L141.351 35.9781L141.008 36.0184L140.675 36.0598L140.384 36.1001C140.221 36.1224 140.063 36.1693 139.914 36.2394C139.787 36.304 139.685 36.4099 139.626 36.5399C139.549 36.7285 139.507 36.9301 139.504 37.134H139.546C139.598 37.0535 139.662 36.9807 139.734 36.9175C139.823 36.8393 139.925 36.7773 140.035 36.7345C140.168 36.6825 140.309 36.6571 140.451 36.6597C140.675 36.6544 140.896 36.7071 141.094 36.8128C141.277 36.9188 141.424 37.0798 141.513 37.2733C141.618 37.5097 141.669 37.7672 141.66 38.0262C141.671 38.3322 141.607 38.6362 141.471 38.9104C141.352 39.1385 141.166 39.3244 140.939 39.4435C140.694 39.5663 140.423 39.6275 140.15 39.6219C139.937 39.6248 139.725 39.582 139.53 39.4965C139.345 39.4119 139.182 39.2849 139.055 39.1257C138.915 38.9467 138.812 38.7417 138.752 38.5225C138.677 38.2534 138.642 37.975 138.646 37.6958ZM140.2 38.93C140.31 38.9326 140.418 38.9052 140.514 38.8506C140.61 38.7889 140.684 38.6971 140.724 38.5892C140.781 38.4318 140.807 38.2649 140.801 38.0976C140.811 37.893 140.768 37.6892 140.677 37.5059C140.635 37.4331 140.573 37.3739 140.499 37.3352C140.424 37.2964 140.341 37.2798 140.257 37.2871C140.14 37.2868 140.024 37.3169 139.921 37.3746C139.824 37.4278 139.735 37.4954 139.658 37.5749C139.6 37.6317 139.549 37.696 139.508 37.7661C139.508 37.9091 139.519 38.052 139.542 38.1932C139.563 38.3229 139.602 38.4492 139.657 38.5685C139.703 38.6733 139.776 38.7641 139.868 38.8322C139.966 38.8996 140.082 38.9339 140.2 38.93Z" fill="#3A3A3A"/>
<path id="Vector_33" d="M144.129 36.3902C144.292 36.3861 144.454 36.421 144.601 36.4921C144.748 36.5631 144.876 36.6683 144.975 36.7989C145.19 37.0714 145.298 37.4717 145.298 37.9997C145.306 38.3036 145.254 38.6061 145.145 38.8897C145.061 39.1085 144.914 39.2977 144.724 39.4342C144.542 39.5577 144.326 39.622 144.107 39.6185C143.976 39.6211 143.846 39.6017 143.722 39.5609C143.623 39.5273 143.531 39.4775 143.449 39.4135C143.376 39.3565 143.31 39.2916 143.252 39.2201H143.207C143.223 39.2962 143.234 39.373 143.24 39.4504C143.247 39.5287 143.252 39.6046 143.252 39.6806V40.9378H142.407V36.4489H143.094L143.208 36.8519H143.247C143.304 36.7667 143.372 36.6893 143.449 36.6216C143.533 36.5475 143.63 36.4901 143.736 36.4524C143.862 36.4081 143.996 36.3871 144.129 36.3902ZM143.858 37.0695C143.734 37.0631 143.611 37.0953 143.506 37.1616C143.414 37.2295 143.348 37.3264 143.317 37.4368C143.273 37.5863 143.251 37.7414 143.252 37.8973V37.9894C143.248 38.1611 143.267 38.3326 143.308 38.4994C143.336 38.6231 143.403 38.7345 143.499 38.8172C143.606 38.8951 143.737 38.9333 143.869 38.9254C143.984 38.9304 144.098 38.8918 144.187 38.8172C144.278 38.731 144.343 38.6204 144.374 38.4982C144.419 38.3305 144.44 38.1572 144.436 37.9836C144.451 37.7448 144.403 37.5063 144.295 37.2928C144.25 37.2191 144.185 37.1593 144.108 37.1197C144.031 37.0802 143.944 37.0624 143.858 37.0683V37.0695Z" fill="#3A3A3A"/>
<path id="Vector_34" d="M147.316 36.3902C147.572 36.3834 147.826 36.4403 148.055 36.556C148.259 36.6637 148.426 36.8311 148.534 37.0361C148.653 37.2744 148.711 37.5387 148.702 37.8051V38.2196H146.707C146.704 38.4283 146.781 38.6301 146.921 38.7837C146.995 38.8543 147.083 38.9089 147.179 38.9441C147.275 38.9793 147.377 38.9945 147.479 38.9887C147.662 38.9904 147.844 38.9695 148.022 38.9265C148.196 38.8825 148.366 38.8212 148.529 38.7434V39.4008C148.376 39.4764 148.214 39.5325 148.048 39.5678C147.848 39.6057 147.644 39.6235 147.44 39.6207C147.156 39.6263 146.875 39.5673 146.617 39.448C146.38 39.3346 146.184 39.1505 146.055 38.9207C145.91 38.647 145.84 38.3396 145.851 38.0296C145.841 37.7161 145.904 37.4045 146.035 37.1201C146.147 36.8897 146.327 36.6993 146.549 36.5744C146.785 36.4485 147.049 36.3851 147.316 36.3902ZM147.321 36.9946C147.246 36.9921 147.171 37.0049 147.101 37.0322C147.031 37.0595 146.967 37.1007 146.913 37.1535C146.792 37.2911 146.726 37.4685 146.726 37.652H147.911C147.912 37.5361 147.889 37.4212 147.843 37.3147C147.802 37.2207 147.735 37.1408 147.65 37.0844C147.552 37.0222 147.437 36.9909 147.321 36.9946Z" fill="#3A3A3A"/>
<path id="Vector_35" d="M151.463 36.449H152.394L151.167 37.9457L152.501 39.5667H151.54L150.282 37.9894V39.5678H149.437V36.4593H150.282V37.971L151.463 36.449Z" fill="#3A3A3A"/>
<path id="Vector_36" d="M154.266 36.3902C154.522 36.3832 154.776 36.4402 155.005 36.556C155.209 36.6638 155.376 36.8311 155.484 37.0361C155.603 37.2743 155.661 37.5386 155.653 37.8052V38.2196H153.657C153.654 38.4284 153.731 38.6303 153.872 38.7838C153.946 38.8543 154.034 38.9088 154.13 38.9441C154.225 38.9793 154.327 38.9945 154.429 38.9887C154.612 38.9905 154.794 38.9696 154.972 38.9265C155.146 38.8828 155.316 38.8214 155.478 38.7435V39.4009C155.326 39.4764 155.164 39.5325 154.998 39.5678C154.798 39.6058 154.594 39.6235 154.39 39.6208C154.107 39.6265 153.825 39.5674 153.568 39.4481C153.331 39.3347 153.134 39.1506 153.005 38.9208C152.86 38.6469 152.791 38.3395 152.802 38.0297C152.791 37.7161 152.854 37.4044 152.986 37.1201C153.098 36.8898 153.277 36.6994 153.499 36.5744C153.735 36.4486 153.999 36.3852 154.266 36.3902ZM154.266 36.9946C154.19 36.9924 154.116 37.0053 154.045 37.0326C153.975 37.0599 153.911 37.101 153.857 37.1535C153.737 37.2914 153.671 37.4686 153.671 37.652H154.858C154.858 37.5361 154.835 37.4213 154.79 37.3147C154.749 37.2208 154.681 37.1408 154.596 37.0845C154.499 37.0229 154.386 36.9916 154.271 36.9946H154.266Z" fill="#3A3A3A"/>
<path id="Vector_37" d="M158.945 37.0868H157.933V39.5621H157.088V37.0868H156.072V36.449H158.945V37.0868Z" fill="#3A3A3A"/>
<path id="Vector_38" d="M162.379 37.9997C162.383 38.2342 162.348 38.4677 162.275 38.6904C162.212 38.8803 162.109 39.054 161.973 39.1993C161.839 39.3382 161.677 39.4452 161.497 39.5125C161.296 39.5857 161.083 39.6215 160.87 39.6184C160.666 39.6206 160.463 39.5847 160.271 39.5125C160.093 39.4437 159.931 39.3369 159.798 39.1993C159.66 39.0535 159.554 38.8801 159.488 38.6904C159.409 38.4688 159.371 38.2349 159.373 37.9997C159.364 37.6968 159.427 37.3961 159.556 37.1224C159.67 36.891 159.852 36.7005 160.077 36.5767C160.324 36.4475 160.599 36.3833 160.878 36.3901C161.147 36.385 161.412 36.4492 161.649 36.5767C161.875 36.7024 162.058 36.8922 162.178 37.1224C162.316 37.3933 162.386 37.6949 162.379 37.9997ZM160.239 37.9997C160.235 38.174 160.257 38.348 160.306 38.5154C160.336 38.6424 160.41 38.7543 160.515 38.8313C160.62 38.9083 160.748 38.9453 160.878 38.9357C161.007 38.9416 161.135 38.9044 161.242 38.8297C161.342 38.7498 161.413 38.6396 161.446 38.5154C161.494 38.3478 161.516 38.1739 161.512 37.9997C161.516 37.8262 161.494 37.653 161.446 37.4862C161.413 37.3637 161.34 37.2554 161.241 37.1776C161.132 37.1052 161.003 37.0694 160.872 37.0752C160.778 37.0673 160.684 37.0845 160.599 37.1249C160.514 37.1653 160.441 37.2276 160.387 37.3054C160.272 37.5177 160.22 37.7585 160.236 37.9997H160.239Z" fill="#3A3A3A"/>
<path id="Vector_39" d="M165.865 37.264C165.869 37.4216 165.813 37.5747 165.709 37.6923C165.587 37.8202 165.426 37.9016 165.251 37.9226V37.9445C165.443 37.9614 165.625 38.0401 165.769 38.169C165.833 38.2282 165.884 38.3004 165.917 38.3808C165.951 38.4612 165.967 38.548 165.965 38.6352C165.968 38.8049 165.919 38.9714 165.827 39.113C165.718 39.2668 165.564 39.3827 165.387 39.4446C165.134 39.5336 164.866 39.5746 164.598 39.5655H163.125V36.457H164.598C164.817 36.4543 165.036 36.4798 165.249 36.533C165.422 36.572 165.581 36.6603 165.706 36.7874C165.817 36.9205 165.874 37.0907 165.865 37.264ZM165.01 37.3308C165.012 37.2879 165.003 37.2452 164.983 37.2073C164.963 37.1695 164.932 37.1381 164.895 37.1167C164.791 37.0643 164.676 37.0405 164.56 37.0476H163.965V37.6624H164.47C164.609 37.6707 164.749 37.6442 164.876 37.5853C164.92 37.5599 164.956 37.5226 164.979 37.4775C165.003 37.4325 165.013 37.3816 165.01 37.3308ZM165.087 38.588C165.091 38.5346 165.08 38.4812 165.054 38.4341C165.029 38.3871 164.991 38.3482 164.944 38.3221C164.813 38.2589 164.668 38.2304 164.522 38.2392H163.966V38.9749H164.538C164.675 38.9802 164.81 38.9492 164.931 38.8851C164.982 38.8558 165.024 38.8123 165.052 38.7596C165.08 38.707 165.092 38.6474 165.087 38.588Z" fill="#3A3A3A"/>
</g>
</svg>
