<svg width="116" height="114" viewBox="0 0 116 114" fill="none" xmlns="http://www.w3.org/2000/svg">
<g id="Group 17609">
<path id="Vector" d="M52.8 113.616C22.1455 113.616 0 92.5651 0 61.6162C0 30.6673 22.1455 0.616211 52.8 0.616211C83.4545 0.616211 116 24.1673 116 55.1162C116 86.0651 83.4545 113.616 52.8 113.616Z" fill="#EB433C"/>
<path id="Vector_2" d="M83.6906 70.0283C83.2797 70.0283 82.9106 69.777 82.7601 69.3947L70.2261 37.5599C69.9184 36.7784 68.8425 36.7014 68.4267 37.4313L58.8706 54.2044C58.4867 54.8784 57.5148 54.8776 57.132 54.2029L47.6173 37.4344C47.2026 36.7036 46.1262 36.779 45.8175 37.5605L33.2403 69.3958C33.0895 69.7775 32.7207 70.0283 32.3103 70.0283H30C29.4477 70.0283 29 70.476 29 71.0283V74.2437C29 74.796 29.4477 75.2437 30 75.2437H48.5088C49.0611 75.2437 49.5088 74.796 49.5088 74.2437V71.0283C49.5088 70.476 49.0611 70.0283 48.5088 70.0283H47.8513C47.1638 70.0283 46.6813 69.3505 46.9065 68.7008L48.7193 63.4705C48.9965 62.6706 50.0802 62.5556 50.5192 63.2795L57.1449 74.2061C57.5342 74.8481 58.4658 74.8481 58.8551 74.2061L65.4808 63.2795C65.9198 62.5556 67.0035 62.6706 67.2807 63.4705L69.0935 68.7008C69.3187 69.3505 68.8362 70.0283 68.1487 70.0283H67.4912C66.9389 70.0283 66.4912 70.476 66.4912 71.0283V74.2437C66.4912 74.796 66.9389 75.2437 67.4912 75.2437H86C86.5523 75.2437 87 74.796 87 74.2437V71.0283C87 70.476 86.5523 70.0283 86 70.0283H83.6906Z" fill="white"/>
</g>
</svg>
