<svg width="174" height="118" viewBox="0 0 174 118" fill="none" xmlns="http://www.w3.org/2000/svg">
<g id="Group 17935">
<path id="Vector" d="M91.7448 0.870117C122.664 0.870117 145 22.6664 145 54.7108C145 86.7553 122.664 117.87 91.7448 117.87C60.8261 117.87 28 93.4854 28 61.4409C28 29.3965 60.8261 0.870117 91.7448 0.870117Z" fill="white"/>
<g id="Group 18077">
<g id="Group">
<g id="Group_2">
<g id="Group_3">
<path id="Vector_2" d="M159.872 67.8086C159.872 67.8086 162.254 69.8763 164.349 74.914C166.445 79.9517 167.017 89.3617 165.969 88.7914C164.921 88.2211 158.729 83.3735 154.537 76.6249C150.346 69.8762 146.917 58.6121 159.872 67.8086Z" fill="white"/>
<path id="Vector_3" d="M166.056 89.8468C165.859 89.8468 165.659 89.7974 165.474 89.6965C164.234 89.0215 157.887 83.9755 153.659 77.168C153.404 76.7566 147.439 67.0587 150.669 64.0342C152.337 62.4728 155.451 63.4054 160.471 66.9688L160.55 67.0311C160.655 67.122 163.14 69.3175 165.304 74.519C166.584 77.5977 167.128 81.6374 167.303 83.2313C167.891 88.6075 167.137 89.2835 166.854 89.538C166.627 89.742 166.344 89.8468 166.056 89.8468ZM152.699 65.376C152.288 65.376 152.124 65.4993 152.084 65.5377C151.143 66.4185 152.394 71.2162 155.416 76.082C158.691 81.3549 163.308 85.5157 165.44 87.1667C165.469 86.2536 165.415 84.8144 165.195 82.9915C164.832 79.9863 164.176 77.1863 163.395 75.3095C161.563 70.9043 159.499 68.8725 159.222 68.6126C155.363 65.8803 153.528 65.376 152.699 65.376Z" fill="#58595B"/>
</g>
</g>
<g id="Group_4">
<g id="Group_5">
<path id="Vector_4" d="M150.536 63.7268C150.536 63.7268 157.986 70.6541 157.986 77.0135C157.986 83.3729 158.539 90.5017 157.395 90.5017C156.252 90.5017 145.774 82.8976 141.773 79.0956C137.772 75.2936 143.964 56.057 150.536 63.7268Z" fill="white"/>
<path id="Vector_5" d="M157.395 91.5334C157.035 91.5334 156.192 91.5334 150.047 87.0577C147.161 84.9564 143.285 81.9575 141.06 79.8428C138.908 77.7976 139.284 72.9879 140.26 69.4906C141.281 65.8306 143.463 61.6786 146.525 61.0018C147.681 60.7463 149.442 60.8901 151.284 63.0137C151.97 63.6606 159.02 70.4719 159.02 77.0141C159.02 78.6429 159.056 80.314 159.091 81.9301C159.224 88.0436 159.194 90.2602 158.346 91.1257C158.088 91.3886 157.75 91.5334 157.395 91.5334ZM147.372 62.9709C147.238 62.9709 147.105 62.9856 146.972 63.0147C145.212 63.4037 143.315 66.2283 142.25 70.0436C141.217 73.7455 141.316 77.2388 142.485 78.3496C146.114 81.7977 154.431 87.8388 156.948 89.2155C157.153 87.8534 157.083 84.6388 157.025 81.9744C156.99 80.3474 156.953 78.6651 156.953 77.0139C156.953 71.1824 149.903 64.5473 149.832 64.481L149.789 64.4415L149.751 64.3971C148.939 63.4492 148.14 62.9709 147.372 62.9709Z" fill="#58595B"/>
</g>
</g>
<g id="Group_6">
<g id="Group_7">
<path id="Vector_6" d="M139.208 61.3764C140.753 62.9101 144.737 67.0624 144.737 75.251C144.737 83.4397 144.737 90.4586 141.401 91.8983C138.064 93.338 130.943 89.0428 125.171 75.0951C121.116 65.2958 135.328 57.5257 139.208 61.3764Z" fill="white"/>
<path id="Vector_7" d="M140.039 93.1943C139.24 93.1943 138.375 93.0111 137.473 92.6459C132.772 90.7421 127.94 84.4886 124.216 75.4892C123.111 72.8189 123.158 70.0286 124.352 67.4198C125.343 65.2553 127.135 63.2307 129.399 61.7188C131.209 60.5101 133.212 59.6988 135.04 59.4346C137.109 59.1353 138.848 59.5656 139.936 60.6462C141.379 62.0785 145.771 66.437 145.771 75.2516C145.771 84.1266 145.771 91.1364 141.81 92.8453C141.271 93.078 140.676 93.1943 140.039 93.1943ZM136.296 61.3942C134.662 61.3942 132.529 62.1098 130.548 63.4322C127.107 65.7305 124.138 69.898 126.126 74.7023C131.256 87.101 136.703 90.1088 138.251 90.7355C139.33 91.1724 140.303 91.2497 140.99 90.9529C143.704 89.7819 143.704 82.724 143.704 75.2517C143.704 67.2943 139.771 63.3908 138.479 62.108C137.993 61.6255 137.225 61.3942 136.296 61.3942Z" fill="#58595B"/>
</g>
</g>
<g id="Group_8">
<g id="Group_9">
<path id="Vector_8" d="M14.4747 67.8086C14.4747 67.8086 12.0932 69.8763 9.99745 74.914C7.90174 79.9517 7.33011 89.3617 8.37802 88.7914C9.42594 88.2211 15.6178 83.3735 19.8094 76.6249C24.0008 69.8762 27.4302 58.6121 14.4747 67.8086Z" fill="white"/>
<path id="Vector_9" d="M8.29051 89.8466C8.00301 89.8466 7.7202 89.7417 7.49306 89.5379C7.20941 89.2833 6.45597 88.6072 7.04408 83.2312C7.21843 81.6373 7.76229 77.5975 9.04311 74.5188C11.207 69.3173 13.6917 67.1219 13.7964 67.0309L13.8757 66.9687C18.8953 63.4055 22.0097 62.4729 23.6771 64.034C26.9074 67.0586 20.9429 76.7565 20.6874 77.1679C16.4593 83.9754 10.1129 89.0214 8.87261 89.6964C8.68743 89.7971 8.48783 89.8466 8.29051 89.8466ZM15.1249 68.6122C14.8477 68.8723 12.7841 70.9043 10.9516 75.3091C10.1707 77.186 9.5147 79.986 9.15157 82.9911C8.93128 84.8139 8.87717 86.2531 8.90639 87.1664C11.039 85.5154 15.656 81.3546 18.9309 76.0816C21.9529 71.2158 23.2037 66.4181 22.263 65.5373C22.1396 65.4217 20.8928 64.5283 15.1249 68.6122Z" fill="#58595B"/>
</g>
</g>
<g id="Group_10">
<g id="Group_11">
<path id="Vector_10" d="M23.8103 63.7273C23.8103 63.7273 16.3603 70.6546 16.3603 77.014C16.3603 83.3734 15.8083 90.5022 16.9514 90.5022C18.0946 90.5022 28.5732 82.8981 32.5742 79.0961C36.5751 75.294 30.3833 56.0575 23.8103 63.7273Z" fill="white"/>
<path id="Vector_11" d="M16.9515 91.5333C16.5966 91.5333 16.2592 91.3885 16.0014 91.1256C15.1525 90.2601 15.1233 88.0435 15.2559 81.93C15.291 80.3139 15.3273 78.643 15.3273 77.014C15.3273 70.4718 22.3771 63.6604 23.0629 63.0136C24.9046 60.8902 26.6653 60.7464 27.8215 61.0017C30.8838 61.6785 33.0662 65.8304 34.0873 69.4904C35.0632 72.9877 35.4391 77.7975 33.2868 79.8426C31.0614 81.9574 27.1855 84.9563 24.3004 87.0577C18.1553 91.5333 17.3118 91.5333 16.9515 91.5333ZM24.515 64.4811C24.4438 64.5475 17.3935 71.1824 17.3935 77.014C17.3935 78.6653 17.357 80.3476 17.3218 81.9746C17.2639 84.6389 17.1941 87.8536 17.3992 89.2157C19.9156 87.8388 28.2333 81.7979 31.8618 78.3497C33.0308 77.2389 33.1297 73.7456 32.0967 70.0436C31.0322 66.2285 29.1345 63.4039 27.3745 63.0149C26.4853 62.8187 25.5502 63.2835 24.5955 64.3974L24.5575 64.4418L24.515 64.4811Z" fill="#58595B"/>
</g>
</g>
<g id="Group_12">
<g id="Group_13">
<path id="Vector_12" d="M35.1392 61.3764C33.5941 62.9101 29.6095 67.0624 29.6095 75.251C29.6095 83.4397 29.6095 90.4586 32.9463 91.8983C36.2832 93.338 43.4043 89.0428 49.1761 75.0951C53.2313 65.2958 39.019 57.5257 35.1392 61.3764Z" fill="white"/>
<path id="Vector_13" d="M34.3077 93.1942C33.6712 93.1942 33.0763 93.0781 32.5364 92.8452C28.5764 91.1365 28.5764 84.1265 28.5764 75.2516C28.5764 66.4367 32.9677 62.0783 34.4106 60.6462C35.4993 59.5657 37.2383 59.1353 39.3071 59.4345C41.1344 59.6987 43.1377 60.51 44.9477 61.7187C47.2116 63.2305 49.0039 65.2552 49.9949 67.4197C51.189 70.0285 51.2361 72.8188 50.1312 75.4891C46.4069 84.4887 41.5746 90.742 36.8733 92.6459C35.9717 93.0109 35.1069 93.1941 34.3077 93.1942ZM38.0504 61.3941C37.1216 61.3941 36.3542 61.6254 35.8679 62.1079C34.5756 63.3905 30.6428 67.294 30.6428 75.2516C30.6428 82.7238 30.6428 89.7817 33.3565 90.9527C34.0443 91.2495 35.0173 91.1721 36.0961 90.7353C37.6433 90.1087 43.0903 87.1008 48.2212 74.7021C50.2091 69.898 47.24 65.7303 43.7984 63.432C41.8184 62.1099 39.6847 61.3941 38.0504 61.3941Z" fill="#58595B"/>
</g>
</g>
<g id="Group_14">
<path id="Vector_14" d="M105.358 64.0303C104.404 58.7442 85.5166 62.1385 86.4707 67.4244C88.1205 76.564 92.2306 90.5753 100.143 89.1534C108.055 87.7316 107.008 73.1699 105.358 64.0303Z" fill="url(#paint0_linear_1_1530)"/>
<g id="Group_15">
<g id="Group_16">
<g id="Group_17">
<path id="Vector_15" d="M99.0322 90.2848C97.3392 90.2848 95.733 89.6663 94.2425 88.4374C92.714 87.177 91.2977 85.2491 90.0329 82.7072C87.629 77.8756 86.2159 71.8284 85.4539 67.6064C85.2418 66.4312 85.5735 64.6841 88.3574 63.0337C90.0584 62.0254 92.4231 61.2134 95.0156 60.7475C97.6082 60.2813 100.108 60.2192 102.055 60.5721C105.241 61.1495 106.163 62.6716 106.375 63.8467C107.137 68.0689 107.927 74.2279 107.364 79.5927C107.067 82.4151 106.414 84.715 105.423 86.4283C104.212 88.5191 102.497 89.7771 100.326 90.1672C99.8897 90.2457 99.4581 90.2848 99.0322 90.2848ZM99.2761 62.411C98.0875 62.411 96.7624 62.5285 95.3818 62.7766C90.7352 63.6116 87.1939 65.6143 87.4875 67.2408C88.0919 70.5895 89.4668 76.9326 91.8837 81.7904C94.2472 86.5407 96.9649 88.6761 99.9596 88.1382C102.955 87.6 104.755 84.6525 105.309 79.3778C105.875 73.984 104.945 67.5609 104.341 64.2122C104.135 63.069 102.088 62.411 99.2761 62.411Z" fill="#58595B"/>
</g>
</g>
</g>
</g>
<g id="Group_18">
<path id="Vector_16" d="M127.581 70.1112C129.624 64.7891 111.604 57.9028 109.561 63.2248C106.029 72.4267 104.311 88.2638 111.259 90.9191C117.701 93.3807 124.049 79.313 127.581 70.1112Z" fill="url(#paint1_linear_1_1530)"/>
<g id="Group_19">
<path id="Vector_17" d="M112.781 92.2388C112.145 92.2388 111.514 92.1198 110.89 91.8811C107.326 90.5192 105.444 86.2468 105.447 79.5258C105.449 74.298 106.656 67.9102 108.596 62.8556C109.91 59.4333 115.508 59.816 120.473 61.7133C125.438 63.6107 129.86 67.0571 128.546 70.4794C126.094 76.8684 123.682 81.9049 121.378 85.4493C118.443 89.9646 115.559 92.2388 112.781 92.2388ZM113.635 62.3321C112.003 62.3321 110.848 62.7517 110.526 63.5928C108.67 68.4283 107.515 74.5337 107.513 79.5266C107.511 82.8336 108.044 88.5858 111.629 89.9556C113.945 90.8411 116.641 88.9471 119.644 84.3273C121.87 80.9037 124.216 75.9964 126.616 69.7419C127.268 68.0435 124.245 65.3626 119.734 63.6387C117.457 62.7684 115.298 62.3321 113.635 62.3321Z" fill="#58595B"/>
</g>
</g>
<g id="Group_20">
<path id="Vector_18" d="M67.9822 65.5712C67.9822 60.2002 87.1733 60.2002 87.1733 65.5712C87.1733 74.8579 85.6173 89.3743 77.5778 89.3743C69.5382 89.3743 67.9822 74.8579 67.9822 65.5712Z" fill="url(#paint2_linear_1_1530)"/>
<g id="Group_21">
<g id="Group_22">
<g id="Group_23">
<path id="Vector_19" d="M77.5777 90.4046C75.3714 90.4046 73.4605 89.4697 71.8978 87.626C70.6175 86.1153 69.5659 83.9674 68.7729 81.242C67.2653 76.0619 66.949 69.8607 66.949 65.5707C66.949 64.3767 67.5857 62.7157 70.6189 61.5838C72.4721 60.8922 74.9434 60.5115 77.5778 60.5115C80.2122 60.5115 82.6836 60.8923 84.5367 61.5838C87.57 62.7157 88.2067 64.3765 88.2067 65.5707C88.2067 69.8607 87.8902 76.0619 86.3827 81.242C85.5896 83.9674 84.5382 86.1153 83.2577 87.626C81.6949 89.4697 79.784 90.4046 77.5777 90.4046ZM77.5777 62.5732C72.8564 62.5732 69.0153 63.9179 69.0153 65.5705C69.0153 70.9126 69.6328 88.3426 77.5778 88.3426C85.5227 88.3426 86.1402 70.9128 86.1402 65.5705C86.1402 64.5377 84.682 63.8392 83.8128 63.5149C82.2089 62.9164 79.9364 62.5732 77.5777 62.5732Z" fill="#58595B"/>
</g>
</g>
</g>
</g>
<g id="Group_24">
<path id="Vector_20" d="M45.9822 69.3323C44.274 63.8942 62.6875 58.1355 64.3958 63.5735C67.3495 72.9761 68.0807 88.889 60.9805 91.1096C54.3983 93.1681 48.936 78.7349 45.9822 69.3323Z" fill="url(#paint3_linear_1_1530)"/>
<g id="Group_25">
<g id="Group_26">
<g id="Group_27">
<path id="Vector_21" d="M59.6942 92.3436C56.8132 92.3436 53.9698 89.8912 51.2205 85.0256C49.1413 81.3458 47.0472 76.1698 44.9962 69.6412C44.6243 68.4572 44.7133 66.6167 47.2489 64.5723C48.8108 63.3131 51.0658 62.1834 53.5986 61.3911C56.1314 60.5991 58.6293 60.2428 60.6321 60.3867C63.8838 60.6211 65.0096 62.0817 65.3815 63.2657C67.0041 68.4307 67.8117 74.8808 67.4894 80.0987C67.0749 86.8069 64.931 90.9548 61.2893 92.0939C60.7566 92.2604 60.2248 92.3436 59.6942 92.3436ZM46.9681 69.0244C51.6508 83.9311 56.5166 91.425 60.6714 90.1263C66.7758 88.2171 66.3706 73.3076 63.4098 63.8825C63.0836 62.8438 61.6382 62.5265 60.4832 62.4432C58.7586 62.3189 56.4745 62.6526 54.2168 63.3586C51.959 64.0648 49.8927 65.0916 48.5478 66.1759C47.6471 66.9022 46.6418 67.9859 46.9681 69.0244Z" fill="#58595B"/>
</g>
</g>
</g>
</g>
</g>
<g id="Group_28">
<g id="Group_29">
<g id="Group_30">
<g id="Group_31">
<path id="Vector_22" d="M161.135 48.0805C161.135 48.0805 166.208 42.2509 169.581 39.6166C172.955 36.9823 173.322 40.4701 172.735 43.8485C172.148 47.2269 170.975 54.2519 169.435 60.4718C167.894 66.6918 164.301 71.5191 159.461 66.9467C154.62 62.3743 153.307 56.0417 161.135 48.0805Z" fill="white"/>
<path id="Vector_23" d="M163.175 69.781C161.98 69.7812 160.459 69.3099 158.75 67.6957C155.997 65.0952 154.572 62.2073 154.515 59.1122C154.445 55.361 156.417 51.4144 160.375 47.3814C160.782 46.9146 165.607 41.4114 168.944 38.8054C170.418 37.6545 171.664 37.3683 172.645 37.9542C174.264 38.9206 174.141 41.789 173.753 44.0251L173.604 44.8839C172.996 48.4024 171.866 54.9515 170.437 60.7195C169.229 65.6007 167.038 68.8381 164.428 69.602C164.067 69.7076 163.646 69.781 163.175 69.781ZM171.561 39.7224C171.466 39.7224 171.066 39.7669 170.218 40.429C166.962 42.9712 161.965 48.6995 161.915 48.757L161.872 48.8031C158.302 52.4343 156.522 55.8899 156.581 59.0742C156.628 61.5955 157.835 63.9925 160.171 66.1985C161.512 67.4655 162.748 67.9447 163.846 67.6236C165.677 67.0878 167.434 64.2529 168.431 60.2251C169.842 54.5287 170.965 48.0268 171.568 44.5338L171.717 43.6731C172.178 41.0175 171.781 39.8487 171.584 39.7235H171.584C171.584 39.7235 171.576 39.7224 171.561 39.7224Z" fill="#58595B"/>
</g>
</g>
<g id="Group_32">
<g id="Group_33">
<path id="Vector_24" d="M141.192 45.2948C141.192 45.2948 147.811 35.73 150.771 32.5658C153.73 29.4015 158.699 27.6084 160.496 31.1946C162.293 34.7807 161.553 52.5007 159.227 58.6183C156.902 64.7359 152.145 69.4019 146.965 65.5395C141.785 61.6771 134.362 55.9144 141.192 45.2948Z" fill="white"/>
<path id="Vector_25" d="M150.795 67.9758C149.29 67.9758 147.779 67.4326 146.347 66.3645C143.862 64.5115 140.458 61.9736 138.653 58.4159C136.567 54.305 137.129 49.7028 140.323 44.7372L140.342 44.7083C140.614 44.3153 147.038 35.0447 150.015 31.8616C151.976 29.7656 155.211 27.8311 158.024 28.2379C159.537 28.4563 160.712 29.319 161.42 30.7328C163.392 34.6672 162.612 52.6208 160.193 58.9832C158.422 63.6432 155.642 66.828 152.567 67.721C151.981 67.8912 151.388 67.9758 150.795 67.9758ZM142.052 45.8656C136.148 55.0587 141.299 60.027 147.584 64.713C149.062 65.815 150.544 66.1612 151.99 65.7414C154.4 65.0413 156.745 62.2415 158.261 58.2519C159.292 55.5395 160.102 50.0442 160.375 43.9107C160.636 38.0591 160.313 33.1338 159.572 31.655C159.168 30.8496 158.565 30.3993 157.728 30.2785C155.961 30.0232 153.411 31.253 151.526 33.2684C148.704 36.2857 142.343 45.4456 142.052 45.8656Z" fill="#58595B"/>
</g>
</g>
<g id="Group_34">
<g id="Group_35">
<path id="Vector_26" d="M141.941 54.1939C143.687 61.3825 120.557 66.9784 118.81 59.7897C115.79 47.3603 116.636 30.7463 123.589 29.0641C133.279 26.7199 138.92 41.7645 141.941 54.1939Z" fill="white"/>
<path id="Vector_27" d="M125.819 64.1642C124.906 64.1642 124.042 64.1025 123.246 63.9779C119.396 63.3745 118.162 61.4996 117.806 60.033C116.241 53.5949 115.729 46.209 116.434 40.2757C116.817 37.0511 117.533 34.3883 118.563 32.3611C119.77 29.9846 121.379 28.5384 123.346 28.0625C128.174 26.8942 132.484 29.4172 136.154 35.5616C138.752 39.9124 141.037 46.0996 142.945 53.9514C143.301 55.418 143.066 57.6482 139.919 59.9444C137.925 61.3992 135.088 62.6213 131.929 63.3857C129.8 63.9007 127.705 64.1642 125.819 64.1642ZM125.585 29.8504C125.011 29.8504 124.427 29.9227 123.833 30.0664C121.147 30.7162 119.198 34.5259 118.485 40.5185C117.808 46.2213 118.304 53.3348 119.814 59.5474C120.507 62.3985 126.322 62.6204 131.442 61.382C136.562 60.1434 141.63 57.2885 140.937 54.4373C139.078 46.7862 136.871 40.7906 134.379 36.6171C131.67 32.0812 128.779 29.8504 125.585 29.8504Z" fill="#58595B"/>
</g>
</g>
<g id="Group_36">
<g id="Group_37">
<path id="Vector_28" d="M12.8653 48.0805C12.8653 48.0805 7.79253 42.2509 4.419 39.6166C1.04548 36.9823 0.678741 40.4701 1.26552 43.8485C1.85219 47.2269 3.02563 54.2519 4.5657 60.4718C6.10577 66.6918 9.69933 71.5191 14.5397 66.9467C19.3799 62.3743 20.6927 56.0417 12.8653 48.0805Z" fill="white"/>
<path id="Vector_29" d="M10.825 69.781C10.3535 69.781 9.93308 69.7076 9.57224 69.602C6.96153 68.8381 4.77119 65.6005 3.56264 60.7195C2.13415 54.9503 1.00315 48.4005 0.395568 44.8817L0.24743 44.0249C-0.140954 41.7888 -0.263962 38.9205 1.35474 37.9541C2.33664 37.3679 3.582 37.6543 5.05569 38.8052C8.39326 41.4115 13.2181 46.9152 13.6248 47.3813C17.583 51.4143 19.5546 55.361 19.4851 59.112C19.4278 62.2071 18.0029 65.095 15.2498 67.6957C13.5413 69.3097 12.0195 69.781 10.825 69.781ZM2.44017 39.7237C2.42105 39.7237 2.41179 39.7253 2.41119 39.7256C2.21905 39.8487 1.82225 41.0175 2.28338 43.6731L2.43188 44.5316C3.03501 48.025 4.15784 54.5274 5.56852 60.2251C6.56581 64.2528 8.32268 67.0877 10.1536 67.6236C11.2513 67.9449 12.488 67.4653 13.8292 66.1986C16.1645 63.9925 17.3724 61.5954 17.419 59.0741C17.4779 55.8898 15.6977 52.434 12.1276 48.803L12.0851 48.757C12.0349 48.6994 7.03776 42.9712 3.78208 40.429C2.94567 39.7757 2.54538 39.7237 2.44017 39.7237Z" fill="#58595B"/>
</g>
</g>
<g id="Group_38">
<path id="Vector_30" d="M32.8081 45.2948C32.8081 45.2948 26.1892 35.73 23.2295 32.5658C20.2697 29.4015 15.3013 27.6084 13.5042 31.1946C11.7072 34.7807 12.4472 52.5007 14.7728 58.6183C17.0984 64.7359 21.8553 69.4019 27.035 65.5395C32.2147 61.6771 39.6384 55.9144 32.8081 45.2948Z" fill="url(#paint4_linear_1_1530)"/>
<g id="Group_39">
<g id="Group_40">
<path id="Vector_31" d="M23.2053 67.9755C22.6116 67.9755 22.0193 67.8911 21.4328 67.7207C18.3577 66.8277 15.5782 63.6429 13.8067 58.983C11.3881 52.6205 10.6086 34.667 12.5801 30.7325C13.2886 29.3189 14.463 28.456 15.9763 28.2376C18.7874 27.832 22.0241 29.7652 23.9847 31.8613C26.9622 35.0444 33.3863 44.315 33.6584 44.7081L33.6777 44.737C36.8715 49.7026 37.4331 54.3048 35.3472 58.4157C33.5419 61.9733 30.1386 64.5113 27.6536 66.3643C26.2215 67.4322 24.7099 67.9755 23.2053 67.9755ZM16.754 30.245C16.5879 30.245 16.4271 30.2559 16.2723 30.2782C15.4351 30.399 14.832 30.8493 14.4285 31.6547C13.6874 33.1335 13.3644 38.0588 13.6248 43.9105C13.8977 50.044 14.7077 55.5392 15.7389 58.2518C17.2555 62.2412 19.6 65.041 22.0105 65.7411C23.4558 66.1604 24.9385 65.8148 26.4166 64.7128C32.7008 60.0267 37.8519 55.0586 31.9483 45.8654C31.6571 45.4454 25.2966 36.2854 22.4743 33.2681C20.7543 31.4296 18.4806 30.245 16.754 30.245Z" fill="#58595B"/>
</g>
</g>
</g>
<g id="Group_41">
<g id="Group_42">
<path id="Vector_32" d="M33.0259 55.453C31.9398 62.7701 55.4839 66.2496 56.57 58.9326C58.4481 46.2811 56.0954 29.8121 49.0177 28.7661C39.1547 27.3085 34.904 42.8016 33.0259 55.453Z" fill="white"/>
<path id="Vector_33" d="M47.9405 64.0121C46.627 64.0121 45.2415 63.9085 43.8319 63.7001C40.6165 63.2248 37.6796 62.2645 35.5619 60.9962C32.2196 58.9941 31.7822 56.7943 32.0039 55.3017L33.0259 55.4527L32.0039 55.3017C33.1902 47.3097 34.9033 40.9412 37.0956 36.3731C40.1915 29.9221 44.2539 27.02 49.1691 27.746C51.1709 28.0419 52.9051 29.3365 54.3232 31.5939C55.5329 33.5195 56.4883 36.1065 57.1631 39.2832C58.4045 45.1282 58.5649 52.5301 57.5921 59.0832C57.3705 60.576 56.3129 62.5548 52.5325 63.5042C51.1873 63.842 49.6229 64.012 47.9405 64.0121ZM47.7371 29.7007C44.2758 29.7007 41.3955 32.1873 38.9594 37.2636C36.8564 41.6454 35.2041 47.816 34.0479 55.6038C33.8136 57.183 35.3203 58.4465 36.6256 59.2284C38.488 60.3441 41.225 61.2306 44.1348 61.6606C49.346 62.4312 55.1173 61.6833 55.548 58.7814C56.4867 52.4579 56.3348 45.3287 55.1416 39.7108C53.8877 33.8073 51.6006 30.1898 48.8664 29.7857C48.4832 29.7291 48.1067 29.7007 47.7371 29.7007Z" fill="#58595B"/>
</g>
</g>
<g id="Group_43">
<path id="Vector_34" d="M117.381 60.7163C117.001 68.1649 85.9397 66.5859 86.32 59.1373C86.9777 46.2585 90.524 26.255 103.536 26.9164C116.548 27.5779 118.039 47.8374 117.381 60.7163Z" fill="url(#paint5_linear_1_1530)"/>
<g id="Group_44">
<g id="Group_45">
<g id="Group_46">
<path id="Vector_35" d="M104.024 66.6079C103.201 66.6079 102.362 66.5865 101.513 66.5434C97.3403 66.3313 93.4627 65.6194 90.5946 64.5389C86.0659 62.8328 85.2094 60.6317 85.2882 59.0854C85.5913 53.1513 86.5393 44.6015 89.3348 37.5697C90.7939 33.8998 92.6163 31.0504 94.7517 29.1008C97.2733 26.7987 100.244 25.7169 103.589 25.8876C106.931 26.0575 109.779 27.4344 112.053 29.9804C113.979 32.1363 115.502 35.1557 116.579 38.9546C118.644 46.2335 118.717 54.8351 118.413 60.7693C118.335 62.3154 117.258 64.4184 112.579 65.6564C110.219 66.2809 107.245 66.6079 104.024 66.6079ZM102.925 27.9322C97.9236 27.9322 93.9999 31.4269 91.2556 38.3299C88.422 45.4575 87.5935 54.459 87.352 59.1903C87.2682 60.8321 89.8048 62.0373 91.3244 62.6099C93.9589 63.6023 97.7107 64.2856 101.618 64.4841C105.525 64.6831 109.327 64.3837 112.049 63.6634C113.619 63.248 116.266 62.306 116.35 60.6642L117.382 60.7168L116.35 60.6642C116.591 55.9329 116.684 46.8942 114.591 39.516C112.489 32.1068 108.752 28.2143 103.484 27.9464C103.296 27.9371 103.11 27.9322 102.925 27.9322Z" fill="#58595B"/>
</g>
</g>
</g>
</g>
<g id="Group_47">
<g id="Group_48">
<g id="Group_49">
<path id="Vector_36" d="M60.7534 63.9757C63.0007 71.0889 92.6635 61.7589 90.4161 54.6456C86.5305 42.3466 78.0516 23.8782 65.6253 27.7867C53.199 31.6953 56.8678 51.6768 60.7534 63.9757Z" fill="white"/>
<path id="Vector_37" d="M66.7355 67.5465C65.5831 67.5465 64.546 67.4505 63.6597 67.2544C61.0347 66.6735 60.0945 65.3195 59.7679 64.2859C57.9775 58.619 55.8774 50.2761 56.0393 42.713C56.1239 38.7657 56.8359 35.461 58.1557 32.8907C59.7142 29.8556 62.1228 27.8076 65.3146 26.8037C68.5066 25.7999 71.6568 26.0994 74.6779 27.6939C77.2363 29.0444 79.7189 31.3442 82.0569 34.5295C86.5366 40.6327 89.6112 48.6689 91.4015 54.336C91.728 55.3696 91.736 57.0168 89.9194 58.9947C87.6926 61.4193 83.0801 63.8994 77.5808 65.6292C73.5964 66.8823 69.7668 67.5465 66.7355 67.5465ZM61.7387 63.6661C61.9757 64.4162 62.7726 64.9462 64.1071 65.2415C66.9434 65.8687 71.8682 65.2642 76.9596 63.6626C82.0509 62.0612 86.4332 59.7388 88.396 57.6016C89.3196 56.596 89.6677 55.7059 89.4306 54.9556C88.0032 50.4374 84.9305 41.934 80.3898 35.7476C75.8299 29.5352 70.9667 27.1871 65.9358 28.7701C60.9047 30.3525 58.2701 35.0584 58.1052 42.757C57.9411 50.4233 60.3112 59.1478 61.7387 63.6661Z" fill="#58595B"/>
</g>
</g>
</g>
</g>
</g>
</g>
</g>
<defs>
<linearGradient id="paint0_linear_1_1530" x1="96.4776" y1="81.1583" x2="96.4776" y2="53.2831" gradientUnits="userSpaceOnUse">
<stop offset="0.2465" stop-color="white"/>
<stop offset="0.3294" stop-color="#FAFAFA"/>
<stop offset="0.4299" stop-color="#EBEBEB"/>
<stop offset="0.5395" stop-color="#D3D2D3"/>
<stop offset="0.6557" stop-color="#B2B0B1"/>
<stop offset="0.777" stop-color="#868485"/>
<stop offset="0.9008" stop-color="#524F50"/>
<stop offset="1" stop-color="#231F20"/>
</linearGradient>
<linearGradient id="paint1_linear_1_1530" x1="118.801" y1="81.5695" x2="110.023" y2="52.9844" gradientUnits="userSpaceOnUse">
<stop offset="0.2465" stop-color="white"/>
<stop offset="0.3294" stop-color="#FAFAFA"/>
<stop offset="0.4299" stop-color="#EBEBEB"/>
<stop offset="0.5395" stop-color="#D3D2D3"/>
<stop offset="0.6557" stop-color="#B2B0B1"/>
<stop offset="0.777" stop-color="#868485"/>
<stop offset="0.9008" stop-color="#524F50"/>
<stop offset="1" stop-color="#231F20"/>
</linearGradient>
<linearGradient id="paint2_linear_1_1530" x1="79.8175" y1="79.9025" x2="74.1926" y2="52.643" gradientUnits="userSpaceOnUse">
<stop offset="0.2465" stop-color="white"/>
<stop offset="0.3294" stop-color="#FAFAFA"/>
<stop offset="0.4299" stop-color="#EBEBEB"/>
<stop offset="0.5395" stop-color="#D3D2D3"/>
<stop offset="0.6557" stop-color="#B2B0B1"/>
<stop offset="0.777" stop-color="#868485"/>
<stop offset="0.9008" stop-color="#524F50"/>
<stop offset="1" stop-color="#231F20"/>
</linearGradient>
<linearGradient id="paint3_linear_1_1530" x1="55.1827" y1="79.1546" x2="62.1947" y2="50.0619" gradientUnits="userSpaceOnUse">
<stop offset="0.2465" stop-color="white"/>
<stop offset="0.3294" stop-color="#FAFAFA"/>
<stop offset="0.4299" stop-color="#EBEBEB"/>
<stop offset="0.5395" stop-color="#D3D2D3"/>
<stop offset="0.6557" stop-color="#B2B0B1"/>
<stop offset="0.777" stop-color="#868485"/>
<stop offset="0.9008" stop-color="#524F50"/>
<stop offset="1" stop-color="#231F20"/>
</linearGradient>
<linearGradient id="paint4_linear_1_1530" x1="24.3057" y1="48.0818" x2="47.3601" y2="48.0818" gradientUnits="userSpaceOnUse">
<stop stop-color="white"/>
<stop offset="0.1161" stop-color="#FAFAFA"/>
<stop offset="0.2492" stop-color="#EDECEC"/>
<stop offset="0.3905" stop-color="#D6D5D6"/>
<stop offset="0.5378" stop-color="#B7B5B6"/>
<stop offset="0.6897" stop-color="#8E8C8C"/>
<stop offset="0.8448" stop-color="#5C595A"/>
<stop offset="1" stop-color="#231F20"/>
</linearGradient>
<linearGradient id="paint5_linear_1_1530" x1="69.2066" y1="46.238" x2="100.399" y2="46.238" gradientUnits="userSpaceOnUse">
<stop stop-color="#231F20"/>
<stop offset="0.1552" stop-color="#5C595A"/>
<stop offset="0.3103" stop-color="#8E8C8C"/>
<stop offset="0.4622" stop-color="#B7B5B6"/>
<stop offset="0.6095" stop-color="#D6D5D6"/>
<stop offset="0.7508" stop-color="#EDECEC"/>
<stop offset="0.8839" stop-color="#FAFAFA"/>
<stop offset="1" stop-color="white"/>
</linearGradient>
</defs>
</svg>
