<svg width="18" height="13" viewBox="0 0 18 13" fill="none" xmlns="http://www.w3.org/2000/svg">
<g id="Frame 12865" clip-path="url(#clip0_112_114)">
<path id="Vector" d="M14.6816 1.9166C14.8792 3.42081 14.524 4.94667 13.6854 6.19656C12.8468 7.44644 11.5848 8.33073 10.1457 8.67692C8.70659 9.02311 7.19348 8.80639 5.90152 8.06903C4.60957 7.33167 3.63142 6.12654 3.15787 4.68872L0 5.61766C1.18618 9.43793 4.66971 12.205 8.78233 12.205C13.8731 12.205 18 7.96711 18 2.73949C18 2.22947 17.9602 1.72027 17.8809 1.2168L14.6816 1.9166Z" fill="#F3007A"/>
<path id="Vector_2" d="M8.2245 0.205078L7.83891 3.37238L4.77527 4.26339L7.59504 5.58946L7.49704 8.92397L9.69752 6.5064L12.6164 7.61919L11.1068 4.81495L13.0559 2.24101L9.97493 2.88662L8.2245 0.205078Z" fill="#F3007A"/>
</g>
<defs>
<clipPath id="clip0_112_114">
<rect width="18" height="12" fill="white" transform="translate(0 0.205078)"/>
</clipPath>
</defs>
</svg>
