<svg width="111" height="114" viewBox="0 0 111 114" fill="none" xmlns="http://www.w3.org/2000/svg">
<g id="Group 17608">
<path id="Vector" d="M59.2 113.616C89.8545 113.616 111 89.466 111 58.517C111 27.5681 77.8295 0.616211 47.175 0.616211C16.5205 0.616211 0 27.5681 0 58.517C0 89.466 28.5455 113.616 59.2 113.616Z" fill="#6FC448"/>
<path id="Vector_2" d="M51.7257 58.1946C47.5548 54.0239 44.4106 49.3542 42.3215 44.6167C41.8795 43.6151 42.1397 42.4423 42.9133 41.6687L47.8026 39.259C50.1946 36.8671 48.225 32.9781 46.136 30.8892L41.9508 26.7042C39.1666 23.9202 34.6535 23.9202 31.8693 26.7042L29.545 29.0284C26.9034 31.6698 24.4105 37.0134 25.1235 40.792C26.8846 50.1065 35.3931 62.0621 44.1235 70.792C52.8539 79.5219 61.3085 83.531 70.6235 85.292C74.4023 86.0049 78.2521 83.0154 80.8937 80.374L83.2144 78.0534C85.9986 75.2694 85.9986 70.7565 83.2144 67.9725L79.0328 63.7911C76.9438 61.7022 73.5571 61.7022 71.4717 63.7911L68.1235 68.792C67.35 69.5655 66.1357 67.9725 65.3044 67.6053C60.5667 65.5129 55.8967 62.3653 51.7257 58.1946Z" fill="white"/>
</g>
</svg>
